<?xml version="1.0" encoding="utf-8"?>
<!-- Generator: Adobe Illustrator 24.1.1, SVG Export Plug-In . SVG Version: 6.00 Build 0)  -->
<svg version="1.1" id="Layer_1" xmlns="http://www.w3.org/2000/svg" xmlns:xlink="http://www.w3.org/1999/xlink" x="0px" y="0px"
	 viewBox="0 0 1352 260" style="enable-background:new 0 0 1352 260;" xml:space="preserve">
	<style type="text/css">
		.st0{fill:#010101;}
		.st1{fill:none;stroke:#010101;stroke-width:0.75;stroke-miterlimit:10;}
		.st2{fill:none;stroke:#010101;stroke-width:0.75;stroke-miterlimit:10;stroke-dasharray:12.0013,12.0013;}
		.st3{fill:none;stroke:#010101;stroke-width:0.75;stroke-miterlimit:10;stroke-dasharray:12.1268,12.1268;}
	</style>
	<path class="st0" d="M382.2,103.4c-1.4-1.4-3.6-1.4-5,0l-13.1,13.1l-5.9,0.1l0.1-5.9l13.1-13.1c1.4-1.4,1.4-3.6,0-5
		c-1.4-1.4-3.6-1.4-5,0l-14.1,14.1c-0.6,0.6-1,1.5-1,2.4l-0.1,9.3c0,0.3,0.1,0.6,0.2,0.9l-24.2,21.5c-1.3-0.8-2.8-1.2-4.5-1.2
		c-2.8,0-5.3,1.3-7,3.3l-33.3-8.8v-20.4c0-1.9-1.6-3.5-3.5-3.5h-25.7c-1.2-6.9-6.5-12.5-13.4-13.9V54.5h15.8c1.9,0,3.5-1.6,3.5-3.5
		V25c0-1.9-1.6-3.5-3.5-3.5H217c-1.9,0-3.5,1.6-3.5,3.5v26c0,1.9,1.6,3.5,3.5,3.5h15.8v41.8c-6.9,1.4-12.2,7-13.4,13.9h-4.6v-8.3
		c0-1.9-1.6-3.5-3.5-3.5H208V81.2c0-0.1-0.1-0.2-0.1-0.4c0-0.1,0-0.2,0-0.3c-3-15.3-5.2-22.3-6.7-25.6c-0.4-1.2-1-2-1.6-2.6
		c-0.2-0.2-0.4-0.4-0.5-0.5l0,0c-1.1-0.9-2.5-1.3-4-1.3c-4.5,0-9.7,4-13.8,8.4l-4.1-3.2c-1.5-1.2-3.7-0.9-4.9,0.6
		c-1.2,1.5-0.9,3.7,0.6,4.9l4.1,3.2c-3.6,5.4-5.5,10.8-5,14.5c0.3,2.4,1.5,3.8,2.4,4.5c0,0,0,0,0,0c0.2,0.2,0.6,0.5,1.4,0.7
		c0.4,0.2,0.9,0.3,1.4,0.4c1.9,0.4,5,0.7,10.5,0.7c3.4,0,7.8-0.1,13.3-0.5v13.5h-25.3c-1.9,0-3.5,1.6-3.5,3.5v8.3h-7.4l-4.7-14
		c0-0.1-0.1-0.3-0.2-0.4c0-0.1,0-0.2-0.1-0.2l-5.1-8.7c3.2-1.4,5.5-4.6,5.5-8.3V62.8c0-5-4-9-9-9h-4.5c-5,0-9,4-9,9v15.7
		c0,3.7,2.2,6.8,5.4,8.2l-4.2,6.9l-15-11.8c-2.9-2.3-7.2-1.8-9.5,1.1l-14,17.7c-2.3,2.9-1.8,7.2,1.1,9.5l33.3,26.2
		c0.7,0.6,1.6,0.9,2.4,1.2v4.2l-2.7-0.9c-1.2-3.6-4.6-6.2-8.6-6.2c-5,0-9.1,4.1-9.1,9.1c0,3.8,2.3,7,5.6,8.4v25.6
		c-2.8,0.5-5.3,1.7-7.5,3.2c-0.8-1.1-2.1-1.9-3.6-1.9c-2.5,0-4.5,2-4.5,4.5c0,1.8,1,3.2,2.5,4c-0.7,1.2-1.2,2.5-1.5,3.9
		c-0.3-0.1-0.6-0.2-0.9-0.2c-2.5,0-4.5,2-4.5,4.5c0,2.5,2,4.5,4.5,4.5c0.2,0,0.4-0.1,0.7-0.1c0.4,1.8,1.1,3.5,2,5.1
		c-1.2,0.8-2,2.1-2,3.7c0,2.5,2,4.5,4.5,4.5c1.4,0,2.6-0.6,3.4-1.6c1.5,1,3.2,1.8,5,2.3c0,0.2-0.1,0.3-0.1,0.5c0,2.5,2,4.5,4.5,4.5
		c2.4,0,4.4-2,4.5-4.4c2.4-0.4,4.6-1.3,6.5-2.5c0.8,0.7,1.8,1.2,3,1.2c2.5,0,4.5-2,4.5-4.5c0-1.2-0.5-2.3-1.3-3.1
		c1-1.7,1.8-3.6,2.2-5.6c0.1,0,0.1,0,0.2,0c2.5,0,4.5-2,4.5-4.5c0-2.5-2-4.5-4.5-4.5c-0.2,0-0.3,0.1-0.4,0.1c-0.4-1.4-1-2.8-1.7-4.1
		c1.2-0.8,2.1-2.1,2.1-3.7c0-2.5-2-4.5-4.5-4.5c-1.4,0-2.6,0.7-3.4,1.7c-2.1-1.4-4.5-2.5-7.1-3V152c1.9-0.8,3.5-2.3,4.5-4.1l3.3,1.1
		v10.3c0,1.9,1.6,3.5,3.5,3.5h37.6c1.2,3.6,4.6,6.3,8.6,6.3c1.6,0,3.1-0.4,4.4-1.2l15,6.8v2.8c-2.7,0.5-5.1,1.6-7.3,3.1
		c-0.8-1.1-2.1-1.8-3.5-1.8c-2.5,0-4.5,2-4.5,4.5c0,1.7,0.9,3.1,2.3,3.8c-0.7,1.3-1.2,2.6-1.6,4c-0.2,0-0.4-0.1-0.7-0.1
		c-2.5,0-4.5,2-4.5,4.5c0,2.5,2,4.5,4.5,4.5c0.1,0,0.3-0.1,0.4-0.1c0.4,1.9,1.1,3.6,2,5.2c-1.1,0.8-1.8,2.1-1.8,3.5
		c0,2.5,2,4.5,4.5,4.5c1.3,0,2.5-0.6,3.3-1.5c1.5,1,3.3,1.8,5.1,2.3c0,0.1-0.1,0.3-0.1,0.4c0,2.5,2,4.5,4.5,4.5c2.5,0,4.4-2,4.5-4.4
		c2.3-0.5,4.5-1.4,6.4-2.6c0.8,0.8,1.9,1.3,3.1,1.3c2.5,0,4.5-2,4.5-4.5c0-1.3-0.6-2.4-1.5-3.3c1-1.7,1.8-3.5,2.2-5.4
		c0.1,0,0.3,0.1,0.4,0.1c2.5,0,4.5-2,4.5-4.5c0-2.5-2-4.5-4.5-4.5c-0.2,0-0.5,0.1-0.7,0.1c-0.4-1.4-0.9-2.7-1.6-4
		c1.3-0.8,2.3-2.2,2.3-3.8c0-2.5-2-4.5-4.5-4.5c-1.5,0-2.7,0.7-3.5,1.8c-2.1-1.5-4.6-2.6-7.3-3.1v-5c0-1.4-0.8-2.6-2.1-3.2l-14.3-6.5
		h81.9c1.6,0,2.8-1,3.3-2.4l3.1,0.8c0.4,3.2,2.6,5.9,5.5,7.2v9.1c-2.7,0.5-5.3,1.7-7.5,3.2c-0.8-1.1-2.1-1.9-3.6-1.9
		c-2.5,0-4.5,2-4.5,4.5c0,1.8,1,3.2,2.5,4c-0.7,1.2-1.2,2.5-1.5,3.9c-0.3-0.1-0.6-0.2-0.9-0.2c-2.5,0-4.5,2-4.5,4.5
		c0,2.5,2,4.5,4.5,4.5c0.2,0,0.4-0.1,0.7-0.1c0.4,1.8,1.1,3.5,2,5.1c-1.2,0.8-2,2.1-2,3.7c0,2.5,2,4.5,4.5,4.5c1.4,0,2.6-0.6,3.4-1.6
		c1.5,1,3.2,1.8,5,2.3c0,0.2-0.1,0.3-0.1,0.5c0,2.5,2,4.5,4.5,4.5c2.4,0,4.4-2,4.5-4.4c2.4-0.4,4.6-1.3,6.5-2.5
		c0.8,0.7,1.8,1.2,3,1.2c2.5,0,4.5-2,4.5-4.5c0-1.2-0.5-2.3-1.3-3.1c1-1.7,1.8-3.6,2.2-5.6c0.1,0,0.1,0,0.2,0c2.5,0,4.5-2,4.5-4.5
		c0-2.5-2-4.5-4.5-4.5c-0.2,0-0.3,0.1-0.4,0.1c-0.4-1.4-1-2.8-1.7-4.1c1.2-0.8,2.1-2.1,2.1-3.7c0-2.5-2-4.5-4.5-4.5
		c-1.4,0-2.6,0.7-3.4,1.7c-2.1-1.4-4.5-2.5-7.1-3v-9.1c3.3-1.4,5.6-4.6,5.6-8.4c0-5-4.1-9.1-9.1-9.1c-2.9,0-5.5,1.4-7.2,3.6l-4.7-1.2
		v-11.8l31.2,8.3c0.4,4.6,4.3,8.3,9,8.3c5,0,9.1-4.1,9.1-9.1c0-0.8-0.1-1.6-0.3-2.3l25.6-22.8l8.5-0.1c0.9,0,1.8-0.4,2.4-1l14.1-14.1
		C383.6,107,383.6,104.8,382.2,103.4z M236.3,33.3c2.8,0,5,2.2,5,5s-2.2,5-5,5s-5-2.2-5-5C231.3,35.6,233.6,33.3,236.3,33.3z
		M252.1,47.5H244c2.6-2.2,4.4-5.5,4.4-9.2c0-4-2-7.6-5.1-9.8h8.9V47.5z M220.5,28.6h8.9c-3.1,2.2-5.1,5.7-5.1,9.8
		c0,3.7,1.7,7,4.4,9.2h-8.2V28.6z M183,69.1c0.6,0.5,1.4,0.8,2.2,0.8c1,0,2.1-0.5,2.8-1.3c1.2-1.5,0.9-3.7-0.6-4.9l-0.5-0.4
		c3.2-3.4,6.2-5.3,7.7-5.7c0,1.7-1.4,6.3-5.7,11.8c-4.1,5.2-8.1,7.9-10,8.4c0-1.4,0.9-4.7,3.6-8.9L183,69.1z M190.4,78.3
		c1.5-1.5,2.9-3,4.1-4.6c1.4-1.8,2.6-3.6,3.6-5.3c0.7,3,1.5,6.3,2.2,9.6C196.9,78.1,193.5,78.2,190.4,78.3z M126,141.5
		c1.2,0,2.1,0.9,2.1,2.1c0,1.2-1,2.1-2.1,2.1c-1.2,0-2.1-0.9-2.1-2.1C123.9,142.4,124.8,141.5,126,141.5z M137.8,196
		c0,6.5-5.3,11.8-11.8,11.8c-6.5,0-11.8-5.3-11.8-11.8c0-5.3,3.5-9.7,8.3-11.2V196c0,1.9,1.6,3.5,3.5,3.5s3.5-1.6,3.5-3.5v-11.2
		C134.3,186.3,137.8,190.8,137.8,196z M221.7,196c0,6.5-5.3,11.8-11.8,11.8s-11.8-5.3-11.8-11.8c0-5.3,3.5-9.7,8.3-11.2V196
		c0,1.9,1.6,3.5,3.5,3.5s3.5-1.6,3.5-3.5v-11.2C218.2,186.3,221.7,190.8,221.7,196z M236.3,103c4.6,0,8.4,3.1,9.7,7.2h-19.4
		C227.9,106,231.7,103,236.3,103z M179.2,105.4h28.6v4.8h-28.6V105.4z M150.6,93.8h-3.6l1.8-3L150.6,93.8z M144.8,62.8
		c0-1.1,0.9-2,2-2h4.5c1.1,0,2,0.9,2,2v15.7c0,1.1-0.9,2-2,2h-4.5c-1.1,0-2-0.9-2-2V62.8z M106.2,104.7l13.7-17.3L137,101
		c0.1,0.1,0.2,0.1,0.3,0.2v3.3l-13.8-10.9c-1.5-1.2-3.7-0.9-4.9,0.6c-1.2,1.5-0.9,3.7,0.6,4.9l18.2,14.3v3.8l-20.6-16.2
		c-1.5-1.2-3.7-0.9-4.9,0.6c-1.2,1.5-0.9,3.7,0.6,4.9l24.6,19.4c0.1,0.1,0.2,0.1,0.3,0.2v3.3L106.2,104.7z M144.3,151.4l13.5,4.5
		h-13.5V151.4z M187,162.1c-1.2,0-2.1-0.9-2.1-2.1c0-1.2,0.9-2.1,2.1-2.1c1.2,0,2.1,0.9,2.1,2.1C189.1,161.2,188.1,162.1,187,162.1z
		M206.4,155.9l19.8-6.2c1.7,2,4.2,3.3,6.9,3.3c2.9,0,5.5-1.4,7.2-3.6l24.6,6.5L206.4,155.9z M231,143.8c0-1.2,0.9-2.1,2.1-2.1
		c1.2,0,2.1,0.9,2.1,2.1c0,1.2-1,2.1-2.1,2.1C232,145.9,231,145,231,143.8z M306.2,196c0,6.5-5.3,11.8-11.8,11.8
		c-6.5,0-11.8-5.3-11.8-11.8c0-5.3,3.5-9.7,8.3-11.2V196c0,1.9,1.6,3.5,3.5,3.5s3.5-1.6,3.5-3.5v-11.2
		C302.7,186.3,306.2,190.8,306.2,196z M294.4,157.9c1.2,0,2.1,0.9,2.1,2.1c0,1.2-1,2.1-2.1,2.1c-1.2,0-2.1-0.9-2.1-2.1
		C292.3,158.9,293.2,157.9,294.4,157.9z M275.4,151.4l-33.3-8.8c-0.6-4.4-4.4-7.9-9-7.9c-4.7,0-8.6,3.6-9,8.3l-31.5,9.9
		c-1.5-1.2-3.5-1.9-5.6-1.9c-3.4,0-6.3,1.9-7.9,4.7L144.3,144v-43.2h9.9l4.7,14c0.5,1.4,1.8,2.4,3.3,2.4h13.5h25.2v8.2
		c0,4.3-4.5,4.7-5.8,4.8h-4.6v-1.6c0-5-4-9-9-9h-12.4c-5,0-9,4-9,9v9.6c0,5,4,9,9,9h12.4c5,0,9-4,9-9v-1h4.7
		c5.1,0,12.8-3.2,12.8-11.8v-8.2h3.4h64.1v15.1l-5.1-1.3c0-5-4.1-9.1-9.1-9.1c-5,0-9.1,4.1-9.1,9.1c0,5,4.1,9.1,9.1,9.1
		c2.5,0,4.8-1,6.4-2.6l7.8,2.1L275.4,151.4L275.4,151.4z M183.5,132.4c-0.1,0.4-0.2,0.8-0.2,1.2c0,0.4,0.1,0.9,0.2,1.2v3.2
		c0,1.1-0.9,2-2,2h-12.4c-1.1,0-2-0.9-2-2v-9.6c0-1.1,0.9-2,2-2h12.4c1.1,0,2,0.9,2,2V132.4z M263.3,131c0,1.2-1,2.1-2.1,2.1
		c-1.2,0-2.1-0.9-2.1-2.1c0-1.2,0.9-2.1,2.1-2.1C262.4,128.9,263.3,129.8,263.3,131z M322.7,150.9c-1.2,0-2.1-0.9-2.1-2.1
		c0-1.2,0.9-2.1,2.1-2.1s2.1,0.9,2.1,2.1C324.8,150,323.9,150.9,322.7,150.9z"/>
	<g>
		<g>
			<path class="st0" d="M1058.9,202.6c-3.6-1.3-10.3-3.7-7.7-8.8c1.1-2.1,2.7-3.1,3.2-5.7c0.6-3.6-1.2-7.8,2.7-10
				c3.2-1.9,7.4-1.2,10.9-0.8c3.8,0.4,7.5,0.8,11.3,1.2c4.1,0.5,8.9,0.1,11.6,3.6c3.6,4.8,8.4,7.8,13.5,10.8c0-1.7,0-3.5,0-5.2
				c-3.9,2.8-8,4.9-12.7,5.9c-4.8,1-9.7,0.3-14.5,0.6c-7.8,0.5-14.7,4.1-19.7,10c-2.5,2.9,1.8,7.2,4.2,4.2c6.8-8,14.5-8.1,24.2-8.3
				c7.9-0.2,15.2-2.6,21.6-7.3c1.8-1.3,2.1-4,0-5.2c-4.7-2.7-8.8-5.5-12.1-9.8c-2.6-3.4-5.2-4.2-9.4-4.7c-5.7-0.7-11.3-1.3-17-1.9
				c-4.5-0.5-9.4-1-13.6,0.9c-3.3,1.5-6,4.2-6.8,7.8c-0.4,2,0.2,4,0,5.9c-0.3,2.5-2.5,4.2-3.4,6.5c-3.5,8.5,5.7,13.7,12.2,15.9
				C1060.9,209.6,1062.5,203.8,1058.9,202.6L1058.9,202.6z"/>
		</g>
	</g>
	<g>
		<g>
			<path class="st0" d="M1094,170.5c0.4-7.7,0.9-15.5,1.3-23.2c-1.3,1-2.5,1.9-3.8,2.9c7.7,3,15.8,4.1,24.1,3c3.9-0.5,7.7-1.5,11.3-3
				c3.4-1.4,10.9-5.2,9.4,2.6c-0.8,4.3-3.6,9.9,1.7,12.8c2.8,1.6,6,0.4,8.8-0.5c4.1-1.3,8.2-2.6,12.2-3.9c-1.3-1-2.5-1.9-3.8-2.9
				c0.1,9.9-1.5,19.5-4.7,28.9c1.7-0.4,3.3-0.9,5-1.3c-3.4-4.3-8.8-5.2-14-4.7c-7.3,0.6-14.7,2.8-21.7,4.6
				c-11.2,2.8-24.1,6.8-29,18.3c1.8,0.2,3.7,0.5,5.5,0.7c-3.7-9.1-4.3-18.5-1.6-27.9c1.1-3.7-4.7-5.3-5.8-1.6
				c-3,10.4-2.5,21.1,1.6,31.1c0.8,2,4.3,3.4,5.5,0.7c4.1-9.5,14.4-12.7,23.7-15.1c5.6-1.5,11.2-2.8,16.8-3.9
				c4.9-1,11.3-2.4,14.8,2.1c1.5,1.9,4.4,0.6,5-1.3c3.3-9.9,5-20.1,4.9-30.5c0-1.9-1.9-3.5-3.8-2.9c-3.9,1.3-8.2,3.1-12.2,3.9
				c-2.2,0.4-4.4,1.6-4.4-1.6c0-1.2,1.2-3,1.5-4.2c1.5-5-0.4-9.9-5.6-11.3c-6.2-1.7-12.5,3-18.3,4.3c-8.5,1.9-17.1,0.9-25.2-2.2
				c-1.9-0.8-3.7,1.1-3.8,2.9c-0.4,7.7-0.9,15.5-1.3,23.2C1087.7,174.4,1093.7,174.4,1094,170.5L1094,170.5z"/>
		</g>
	</g>
	<g>
		<g>
			<path class="st0" d="M1126.4,187.9c-4.9,1.1-9.7,2.2-14.6,3.3c-5.1,1.1-10.7,1.7-15.5,3.8c-6.5,2.8-8.1,9.5-8.5,16
				c-0.3,5.1,1.3,13.3,8.4,11.5c1.4-0.4,2.6-1.9,3.9-2.2c2.1-0.4,3.6,1.7,5.3,2.5c3.5,1.6,7.3,1.1,10.9,0.2c3.3-0.9,9.1-4.2,12-2.1
				c1,0.7,1.5,2,2.7,2.8c1.4,0.9,3,1.2,4.6,1.4c6.7,0.7,14.8-0.3,21.1-2.7c6.2-2.3,11.4-6.7,13.2-13.3c1-3.9,0.7-7.9,0-11.8
				c-0.6-3.1-1.2-7.5-3.8-9.6c-2.7-2.1-5.5-0.8-7.9,0.8c-2.6,1.7-4.5,3-7.4,0.7c-1.7-1.4-3.2-2.9-5.1-3.9c-7-3.8-15.3-2.5-21.5,2.3
				c-3,2.4,1.2,6.6,4.2,4.2c3.5-2.7,8.2-3.5,12.4-2.1c3.5,1.2,5.6,4.2,8.7,6c2.6,1.5,5.3,1.6,8,0.4c1.4-0.6,2.8-2.4,4.1-2.7
				c1.9-0.5,0.4-0.5,1.4,1.3c2.3,4.2,2.3,11.7,0,15.7c-1.7,3-4.7,5-7.8,6.2c-5.2,2.1-17.4,5-21.9,0.8c-2-1.8-2.9-3.1-5.8-3.3
				c-3.5-0.2-7.1,1.4-10.4,2.5c-1.9,0.6-3.9,1.3-5.9,1.4c-2.8,0.1-4.1-1.3-6.2-2.6c-2.4-1.5-4.7-1.6-7.2-0.4
				c-1.3,0.6-2.1,2.1-3.5,1.1c-0.9-0.7-0.3-4.7-0.2-5.6c0.4-4.7,1.3-8.6,6.2-10.3c8.9-3,18.7-4.2,27.9-6.3
				C1131.8,192.8,1130.2,187.1,1126.4,187.9L1126.4,187.9z"/>
		</g>
	</g>
	<g>
		<g>
			<line class="st1" x1="1109.8" y1="105.4" x2="1103.8" y2="104.9"/>
			<line class="st2" x1="1091.9" y1="104" x2="260.3" y2="39.3"/>
			<polyline class="st1" points="254.3,38.8 248.3,38.3 254.2,39.7 		"/>
			<line class="st3" x1="266" y1="42.3" x2="1040.8" y2="217.1"/>
			<line class="st1" x1="1046.8" y1="218.4" x2="1052.6" y2="219.7"/>
		</g>
	</g>
	<g>
		<g>
			<path class="st0" d="M842.3,233.5c3.2-6.1,6.5-12.3,9.7-18.4c-1.9-0.5-3.7-1-5.6-1.5c-0.2,5.7,4.2,9.1,9.4,10.3
				c6.8,1.5,12.4-1.7,18.9-2.5c5.3-0.6,6.4,1.8,9.7,5.2c1.8,2,4.3,3.1,7,2.9c6.3-0.4,10.5-6.6,16.6-7.7c-1.2-0.7-2.5-1.4-3.7-2.1
				c1.3,5.6,6.3,8.3,11.7,8.7c8.6,0.7,16-6.6,24.5-4.9c-0.7-1-1.5-1.9-2.2-2.9c0.3,11,10.6,19,21.3,16.9c-1.2-1.2-2.5-2.5-3.7-3.7
				c-1.9,5.7,3,9.7,8.2,10.6c8.3,1.4,13.3-7.2,21.1-6.5c-0.9-1.5-1.7-3-2.6-4.5c-3.4,5.7-0.1,12.6,5.7,15.4c8.1,3.9,17-2.1,23.8-6.1
				c4.5-2.6,9.3-5.1,13.6-8c2.6-1.8,5-4,5.6-7.2c1.4-7.2-6.9-11.5-6.3-18.3c-0.7,1-1.5,1.9-2.2,2.9c12.1-3.5,25.7-0.3,34.7,8.7
				c3,2.9,5.3,8.5,10.3,8.2c2-0.1,3.6-1.3,5.1-2.5c1.1-0.9,2.3-2.7,3.8-3c2.4-0.6,4.7,1.3,6.2,2.9c4.2,4.5,6.3,9.6,12.2,12.5
				c4.6,2.3,9.9,3,15,2.5c12.6-1.3,22.5-9.9,31.5-18c-1.6-0.2-3.1-0.4-4.7-0.6c1.6,2,3.6,6.4,6.2,7.2c2.3,0.8,6.4-0.5,8.6-1.2
				c6.6-2,12.2-6.1,17.7-10.2c2.8-2.1,5.5-4.3,8.4-6.4c3.1-2.2,6.6-5.5,9.1-1c3.3,6,7,11.9,12.4,16.2c5,4.1,11.1,6.2,17.6,5.7
				c8-0.6,15.3-4.3,23.2-5.5c15.7-2.3,31.4,2.5,46.3,6.7c16.3,4.6,32.8,8.9,49.8,6.3c3.8-0.6,2.2-6.4-1.6-5.8
				c-28.7,4.4-55.3-12.7-83.6-13.7c-6.7-0.3-13.4,0.5-19.9,2.4c-8.1,2.3-16.7,6-24.8,1.6c-6-3.2-10-9.2-13.3-14.9
				c-2.4-4.3-4.9-9.3-10.8-7.6c-6.4,1.9-12.5,8.3-17.7,12.3c-6.2,4.6-12.8,8.9-20.7,9.3c0.9,0.5,1.7,1,2.6,1.5c-1.5-2-3-3.9-4.5-5.9
				c-1.2-1.6-3.1-2-4.7-0.6c-9.4,8.5-21,18.7-34.8,16c-6.9-1.4-9.9-6-13.9-11.2c-2.9-3.8-7.1-7.1-12.2-6.5c-2.4,0.3-4.1,1.5-5.9,3
				c-1,0.9-2,2.6-3.7,2.2c-0.8-0.2-1.8-2.4-2.3-3c-3.4-4.2-7.7-7.7-12.5-10.2c-9.5-5-20.6-6.2-30.9-3.2c-1.4,0.4-2.1,1.5-2.2,2.9
				c-0.3,3.9,1.5,7.1,3.6,10.4c1,1.6,2.6,3.5,2.8,5.4c0.4,3.5-3.6,5.1-6.1,6.6c-5.5,3.2-10.9,6.6-16.5,9.5c-3.1,1.6-6.7,3.4-10.3,2.7
				c-3.1-0.7-6.6-3.9-4.6-7.3c1.2-2.1-0.4-4.3-2.6-4.5c-4.5-0.4-8.2,1.5-12,3.8c-2,1.2-4.2,2.8-6.6,3c-1.8,0.1-5.8-0.7-5-3.2
				c0.8-2.3-1.6-4.1-3.7-3.7c-6.8,1.3-13.5-4.2-13.7-11.1c0-1.2-0.9-2.6-2.2-2.9c-6.7-1.3-12.1,1.3-18.3,3.5
				c-4.2,1.5-12.3,2.8-13.7-3.1c-0.4-1.7-2.2-2.4-3.7-2.1c-4.9,0.9-8.3,4.2-12.5,6.4c-3.5,1.8-4.6,0.4-7-2.5c-1.6-2-3.5-3.4-6-4.2
				c-4.9-1.4-10.2,0.1-14.9,1.5c-3.7,1-13.8,2.6-13.6-3.7c0.1-2.9-4.2-4.1-5.6-1.5c-3.2,6.1-6.5,12.3-9.7,18.4
				C835.3,233.9,840.5,236.9,842.3,233.5L842.3,233.5z"/>
		</g>
	</g>
	<g>
		<g>
			<path class="st0" d="M39.9,227c3.5-1.7,7-3.5,10.5-5.2c4-2,8.4-5.1,12.7-6.2c3.9-1,6,2.3,8.5,4.7c2.1,2,4.3,3.6,7,4.8
				c12.2,5.1,27.2,0.3,39.5-2c16-3,33-7.8,49.4-6.3c7.9,0.7,15,4.9,22.9,5.2c7.5,0.4,14.5-3.2,22-1.3c6,1.5,11.9,4.3,18.1,1.8
				c3.6-1.4,5.6-3.8,9.8-2.7c3.3,0.9,6.4,2.6,9.7,3.5c13,3.4,26.5,2.1,39.5,0.1c14.3-2.2,28.6-5.6,43.2-5.3
				c14.7,0.3,28.9,8.4,43.6,6.7c8.1-0.9,15-5.3,22.7-7.7c5-1.5,8.4-0.7,12.8,2c3.1,2,6.2,3.7,9.7,5c13.8,5.3,29.5,4,42.4-3
				c3.4-1.8,0.4-7-3-5.2c-12.9,7-29,7.4-42,0.4c-5.5-2.9-9.7-6.9-16.4-6.1c-7.5,0.9-14,5.1-21,7.3c-14.8,4.7-29.8-4.3-44.6-5.3
				c-13.6-1-27.3,1.7-40.6,4c-14.1,2.4-28.8,5-42.9,1.7c-5.7-1.3-12.1-5.8-18.1-4.3c-2.9,0.8-5.1,3.1-8,3.8c-3.8,0.9-7.9-1-11.5-2
				c-7.2-2.1-13.2-0.6-20.4,0.4c-8.5,1.2-16-3.3-24.2-4.5c-15.3-2.2-30.8,1.7-45.8,4.5c-8.8,1.6-17.6,3.5-26.5,4.8
				c-7.6,1.1-16.3,1.6-22.3-4c-4.4-4.1-8-8.8-14.8-6.8c-3.7,1.1-7.2,3.4-10.7,5.1c-4.7,2.3-9.3,4.6-14,7
				C33.4,223.6,36.5,228.7,39.9,227L39.9,227z"/>
		</g>
	</g>
</svg>
