<?xml version="1.0" encoding="utf-8"?>
<!-- Generator: Adobe Illustrator 24.1.1, SVG Export Plug-In . SVG Version: 6.00 Build 0)  -->
<svg version="1.1" id="Layer_1" xmlns="http://www.w3.org/2000/svg" xmlns:xlink="http://www.w3.org/1999/xlink" x="0px" y="0px"
	 viewBox="0 0 672 270" style="enable-background:new 0 0 672 270;" xml:space="preserve">
	<style type="text/css">
		.st0{fill:#010101;}
		.st1{fill:none;stroke:#010101;stroke-width:0.75;stroke-miterlimit:10;}
		.st2{fill:none;stroke:#010101;stroke-width:0.75;stroke-miterlimit:10;stroke-dasharray:12.0264,12.0264;}
		.st3{fill:none;stroke:#010101;stroke-width:0.75;stroke-miterlimit:10;stroke-dasharray:11.6756,11.6756;}
	</style>
	<path class="st0" d="M330.5,105.2c-1.4-1.4-3.6-1.4-5,0l-13.1,13.1l-5.9,0.1l0.1-5.9l13.1-13.1c1.4-1.4,1.4-3.6,0-5
		c-1.4-1.4-3.6-1.4-5,0l-14.1,14.1c-0.6,0.6-1,1.5-1,2.4l-0.1,9.3c0,0.3,0.1,0.6,0.2,0.9l-24.2,21.5c-1.3-0.8-2.8-1.2-4.5-1.2
		c-2.8,0-5.3,1.3-7,3.3l-33.3-8.8v-20.4c0-1.9-1.6-3.5-3.5-3.5h-25.7c-1.2-6.9-6.5-12.5-13.4-13.9V56.3h15.8c1.9,0,3.5-1.6,3.5-3.5
		v-26c0-1.9-1.6-3.5-3.5-3.5h-38.6c-1.9,0-3.5,1.6-3.5,3.5v26c0,1.9,1.6,3.5,3.5,3.5H181v41.8c-6.9,1.4-12.2,7-13.4,13.9H163v-8.3
		c0-1.9-1.6-3.5-3.5-3.5h-3.3V82.9c0-0.1-0.1-0.2-0.1-0.4c0-0.1,0-0.2,0-0.3c-3-15.3-5.2-22.3-6.7-25.6c-0.4-1.2-1-2-1.6-2.6
		c-0.2-0.2-0.4-0.4-0.5-0.5l0,0c-1.1-0.9-2.5-1.3-4-1.3c-4.5,0-9.7,4-13.8,8.4l-4.1-3.2c-1.5-1.2-3.7-0.9-4.9,0.6
		c-1.2,1.5-0.9,3.7,0.6,4.9l4.1,3.2c-3.6,5.4-5.5,10.8-5,14.5c0.3,2.4,1.5,3.8,2.4,4.5c0,0,0,0,0,0c0.2,0.2,0.6,0.5,1.4,0.7
		c0.4,0.2,0.9,0.3,1.4,0.4c1.9,0.4,5,0.7,10.5,0.7c3.4,0,7.8-0.1,13.3-0.5v13.5h-25.3c-1.9,0-3.5,1.6-3.5,3.5v8.3H113l-4.7-14
		c0-0.1-0.1-0.3-0.2-0.4c0-0.1,0-0.2-0.1-0.2l-5.1-8.7c3.2-1.4,5.5-4.6,5.5-8.3V64.5c0-5-4-9-9-9H95c-5,0-9,4-9,9v15.7
		c0,3.7,2.2,6.8,5.4,8.2l-4.2,6.9l-15-11.8c-2.9-2.3-7.2-1.8-9.5,1.1l-14,17.7c-2.3,2.9-1.8,7.2,1.1,9.5l33.3,26.2
		c0.7,0.6,1.6,0.9,2.4,1.2v4.2l-2.7-0.9c-1.2-3.6-4.6-6.2-8.6-6.2c-5,0-9.1,4.1-9.1,9.1c0,3.8,2.3,7,5.6,8.4v25.6
		c-2.8,0.5-5.3,1.7-7.5,3.2c-0.8-1.1-2.1-1.9-3.6-1.9c-2.5,0-4.5,2-4.5,4.5c0,1.8,1,3.2,2.5,4c-0.7,1.2-1.2,2.5-1.5,3.9
		c-0.3-0.1-0.6-0.2-0.9-0.2c-2.5,0-4.5,2-4.5,4.5c0,2.5,2,4.5,4.5,4.5c0.2,0,0.4-0.1,0.7-0.1c0.4,1.8,1.1,3.5,2,5.1
		c-1.2,0.8-2,2.1-2,3.7c0,2.5,2,4.5,4.5,4.5c1.4,0,2.6-0.6,3.4-1.6c1.5,1,3.2,1.8,5,2.3c0,0.2-0.1,0.3-0.1,0.5c0,2.5,2,4.5,4.5,4.5
		c2.4,0,4.4-2,4.5-4.4c2.4-0.4,4.6-1.3,6.5-2.5c0.8,0.7,1.8,1.2,3,1.2c2.5,0,4.5-2,4.5-4.5c0-1.2-0.5-2.3-1.3-3.1
		c1-1.7,1.8-3.6,2.2-5.6c0.1,0,0.1,0,0.2,0c2.5,0,4.5-2,4.5-4.5c0-2.5-2-4.5-4.5-4.5c-0.2,0-0.3,0.1-0.4,0.1c-0.4-1.4-1-2.8-1.7-4.1
		c1.2-0.8,2.1-2.1,2.1-3.7c0-2.5-2-4.5-4.5-4.5c-1.4,0-2.6,0.7-3.4,1.7c-2.1-1.4-4.5-2.5-7.1-3v-25.6c1.9-0.8,3.5-2.3,4.5-4.1
		l3.3,1.1v10.3c0,1.9,1.6,3.5,3.5,3.5h37.6c1.2,3.6,4.6,6.3,8.6,6.3c1.6,0,3.1-0.4,4.4-1.2l15,6.8v2.8c-2.7,0.5-5.1,1.6-7.3,3.1
		c-0.8-1.1-2.1-1.8-3.5-1.8c-2.5,0-4.5,2-4.5,4.5c0,1.7,0.9,3.1,2.3,3.8c-0.7,1.3-1.2,2.6-1.6,4c-0.2,0-0.4-0.1-0.7-0.1
		c-2.5,0-4.5,2-4.5,4.5c0,2.5,2,4.5,4.5,4.5c0.1,0,0.3-0.1,0.4-0.1c0.4,1.9,1.1,3.6,2,5.2c-1.1,0.8-1.8,2.1-1.8,3.5
		c0,2.5,2,4.5,4.5,4.5c1.3,0,2.5-0.6,3.3-1.5c1.5,1,3.3,1.8,5.1,2.3c0,0.1-0.1,0.3-0.1,0.4c0,2.5,2,4.5,4.5,4.5c2.5,0,4.4-2,4.5-4.4
		c2.3-0.5,4.5-1.4,6.4-2.6c0.8,0.8,1.9,1.3,3.1,1.3c2.5,0,4.5-2,4.5-4.5c0-1.3-0.6-2.4-1.5-3.3c1-1.7,1.8-3.5,2.2-5.4
		c0.1,0,0.3,0.1,0.4,0.1c2.5,0,4.5-2,4.5-4.5c0-2.5-2-4.5-4.5-4.5c-0.2,0-0.5,0.1-0.7,0.1c-0.4-1.4-0.9-2.7-1.6-4
		c1.3-0.8,2.3-2.2,2.3-3.8c0-2.5-2-4.5-4.5-4.5c-1.5,0-2.7,0.7-3.5,1.8c-2.1-1.5-4.6-2.6-7.3-3.1v-5c0-1.4-0.8-2.6-2.1-3.2l-14.3-6.5
		h81.9c1.6,0,2.8-1,3.3-2.4l3.1,0.8c0.4,3.2,2.6,5.9,5.5,7.2v9.1c-2.7,0.5-5.3,1.7-7.5,3.2c-0.8-1.1-2.1-1.9-3.6-1.9
		c-2.5,0-4.5,2-4.5,4.5c0,1.8,1,3.2,2.5,4c-0.7,1.2-1.2,2.5-1.5,3.9c-0.3-0.1-0.6-0.2-0.9-0.2c-2.5,0-4.5,2-4.5,4.5
		c0,2.5,2,4.5,4.5,4.5c0.2,0,0.4-0.1,0.7-0.1c0.4,1.8,1.1,3.5,2,5.1c-1.2,0.8-2,2.1-2,3.7c0,2.5,2,4.5,4.5,4.5c1.4,0,2.6-0.6,3.4-1.6
		c1.5,1,3.2,1.8,5,2.3c0,0.2-0.1,0.3-0.1,0.5c0,2.5,2,4.5,4.5,4.5c2.4,0,4.4-2,4.5-4.4c2.4-0.4,4.6-1.3,6.5-2.5
		c0.8,0.7,1.8,1.2,3,1.2c2.5,0,4.5-2,4.5-4.5c0-1.2-0.5-2.3-1.3-3.1c1-1.7,1.8-3.6,2.2-5.6c0.1,0,0.1,0,0.2,0c2.5,0,4.5-2,4.5-4.5
		c0-2.5-2-4.5-4.5-4.5c-0.2,0-0.3,0.1-0.4,0.1c-0.4-1.4-1-2.8-1.7-4.1c1.2-0.8,2.1-2.1,2.1-3.7c0-2.5-2-4.5-4.5-4.5
		c-1.4,0-2.6,0.7-3.4,1.7c-2.1-1.4-4.5-2.5-7.1-3v-9.1c3.3-1.4,5.6-4.6,5.6-8.4c0-5-4.1-9.1-9.1-9.1c-2.9,0-5.5,1.4-7.2,3.6l-4.7-1.2
		v-11.8l31.2,8.3c0.4,4.6,4.3,8.3,9,8.3c5,0,9.1-4.1,9.1-9.1c0-0.8-0.1-1.6-0.3-2.3l25.6-22.8l8.5-0.1c0.9,0,1.8-0.4,2.4-1l14.1-14.1
		C331.8,108.8,331.8,106.5,330.5,105.2z M184.5,35.1c2.8,0,5,2.2,5,5s-2.2,5-5,5s-5-2.2-5-5C179.5,37.4,181.8,35.1,184.5,35.1z
		M200.3,49.3h-8.2c2.6-2.2,4.4-5.5,4.4-9.2c0-4-2-7.6-5.1-9.8h8.9V49.3z M168.7,30.3h8.9c-3.1,2.2-5.1,5.7-5.1,9.8
		c0,3.7,1.7,7,4.4,9.2h-8.2V30.3z M131.2,70.9c0.6,0.5,1.4,0.8,2.2,0.8c1,0,2.1-0.5,2.8-1.3c1.2-1.5,0.9-3.7-0.6-4.9l-0.5-0.4
		c3.2-3.4,6.2-5.3,7.7-5.7c0,1.7-1.4,6.3-5.7,11.8c-4.1,5.2-8.1,7.9-10,8.4c0-1.4,0.9-4.7,3.6-8.9L131.2,70.9z M138.6,80
		c1.5-1.5,2.9-3,4.1-4.6c1.4-1.8,2.6-3.6,3.6-5.3c0.7,3,1.5,6.3,2.2,9.6C145.1,79.9,141.7,80,138.6,80z M74.2,143.3
		c1.2,0,2.1,0.9,2.1,2.1c0,1.2-1,2.1-2.1,2.1c-1.2,0-2.1-0.9-2.1-2.1C72.1,144.2,73,143.3,74.2,143.3z M86,197.8
		c0,6.5-5.3,11.8-11.8,11.8c-6.5,0-11.8-5.3-11.8-11.8c0-5.3,3.5-9.7,8.3-11.2v11.2c0,1.9,1.6,3.5,3.5,3.5s3.5-1.6,3.5-3.5v-11.2
		C82.5,188.1,86,192.5,86,197.8z M169.9,197.8c0,6.5-5.3,11.8-11.8,11.8c-6.5,0-11.8-5.3-11.8-11.8c0-5.3,3.5-9.7,8.3-11.2v11.2
		c0,1.9,1.6,3.5,3.5,3.5c1.9,0,3.5-1.6,3.5-3.5v-11.2C166.4,188.1,169.9,192.5,169.9,197.8z M184.5,104.7c4.6,0,8.4,3.1,9.7,7.2
		h-19.4C176.1,107.8,179.9,104.7,184.5,104.7z M127.4,107.2H156v4.8h-28.6V107.2z M98.9,95.6h-3.6l1.8-3L98.9,95.6z M93,64.5
		c0-1.1,0.9-2,2-2h4.5c1.1,0,2,0.9,2,2v15.7c0,1.1-0.9,2-2,2H95c-1.1,0-2-0.9-2-2V64.5z M54.4,106.5L68,89.2l17.2,13.5
		c0.1,0.1,0.2,0.1,0.3,0.2v3.3L71.7,95.3c-1.5-1.2-3.7-0.9-4.9,0.6c-1.2,1.5-0.9,3.7,0.6,4.9l18.2,14.3v3.8l-20.6-16.2
		c-1.5-1.2-3.7-0.9-4.9,0.6c-1.2,1.5-0.9,3.7,0.6,4.9l24.6,19.4c0.1,0.1,0.2,0.1,0.3,0.2v3.3L54.4,106.5z M92.5,153.1l13.5,4.5H92.5
		V153.1z M135.2,163.9c-1.2,0-2.1-0.9-2.1-2.1c0-1.2,0.9-2.1,2.1-2.1c1.2,0,2.1,0.9,2.1,2.1C137.3,163,136.4,163.9,135.2,163.9z
		M154.6,157.6l19.8-6.2c1.7,2,4.2,3.3,6.9,3.3c2.9,0,5.5-1.4,7.2-3.6l24.6,6.5L154.6,157.6z M179.2,145.6c0-1.2,0.9-2.1,2.1-2.1
		c1.2,0,2.1,0.9,2.1,2.1c0,1.2-1,2.1-2.1,2.1C180.2,147.7,179.2,146.7,179.2,145.6z M254.4,197.8c0,6.5-5.3,11.8-11.8,11.8
		c-6.5,0-11.8-5.3-11.8-11.8c0-5.3,3.5-9.7,8.3-11.2v11.2c0,1.9,1.6,3.5,3.5,3.5c1.9,0,3.5-1.6,3.5-3.5v-11.2
		C250.9,188.1,254.4,192.5,254.4,197.8z M242.6,159.7c1.2,0,2.1,0.9,2.1,2.1c0,1.2-1,2.1-2.1,2.1c-1.2,0-2.1-0.9-2.1-2.1
		C240.5,160.6,241.4,159.7,242.6,159.7z M223.7,153.2l-33.3-8.8c-0.6-4.4-4.4-7.9-9-7.9c-4.7,0-8.6,3.6-9,8.3l-31.5,9.9
		c-1.5-1.2-3.5-1.9-5.6-1.9c-3.4,0-6.3,1.9-7.9,4.7l-34.8-11.6v-43.2h9.9l4.7,14c0.5,1.4,1.8,2.4,3.3,2.4h13.5h25.2v8.2
		c0,4.3-4.5,4.7-5.8,4.8h-4.6v-1.6c0-5-4-9-9-9h-12.4c-5,0-9,4-9,9v9.6c0,5,4,9,9,9h12.4c5,0,9-4,9-9v-1h4.7
		c5.1,0,12.8-3.2,12.8-11.8V119h3.4h64.1v15.1l-5.1-1.3c0-5-4.1-9.1-9.1-9.1c-5,0-9.1,4.1-9.1,9.1c0,5,4.1,9.1,9.1,9.1
		c2.5,0,4.8-1,6.4-2.6l7.8,2.1L223.7,153.2L223.7,153.2z M131.7,134.2c-0.1,0.4-0.2,0.8-0.2,1.2c0,0.4,0.1,0.9,0.2,1.2v3.2
		c0,1.1-0.9,2-2,2h-12.4c-1.1,0-2-0.9-2-2v-9.6c0-1.1,0.9-2,2-2h12.4c1.1,0,2,0.9,2,2V134.2z M211.6,132.8c0,1.2-1,2.1-2.1,2.1
		c-1.2,0-2.1-0.9-2.1-2.1c0-1.2,0.9-2.1,2.1-2.1C210.6,130.7,211.6,131.6,211.6,132.8z M270.9,152.7c-1.2,0-2.1-0.9-2.1-2.1
		c0-1.2,0.9-2.1,2.1-2.1c1.2,0,2.1,0.9,2.1,2.1C273,151.7,272.1,152.7,270.9,152.7z"/>
	<g>
		<g>
			<path class="st0" d="M564.8,179.3c0.4-7.7,0.9-15.5,1.3-23.2c-1.9,1.4-3.8,2.9-5.7,4.3c7.8,3,16.1,4.1,24.5,3
				c4-0.5,7.9-1.5,11.7-3c2.7-1,8.6-4.6,7.5,0.7c-1,5-3.7,11.2,2.4,14.5c3.2,1.8,6.7,0.7,10-0.3c4.1-1.3,8.2-2.6,12.2-3.9
				c-1.9-1.4-3.8-2.9-5.7-4.3c0,9.8-1.5,19.2-4.7,28.5c2.5-0.7,5-1.3,7.5-2c-8.2-10.5-26.9-3.2-37.2-0.5c-11.5,2.9-24.8,7.2-29.9,19
				c2.7,0.4,5.5,0.7,8.2,1.1c-3.6-8.8-4.3-17.9-1.6-27.1c1.6-5.6-7.1-8-8.7-2.4c-3.1,10.6-2.6,21.7,1.6,31.9c1.3,3.1,6.5,5.1,8.2,1.1
				c3.9-9.1,13.9-12.1,22.8-14.4c5.6-1.5,11.2-2.8,16.8-3.9c4.4-0.9,10.2-2.4,13.4,1.7c2.3,2.9,6.6,0.9,7.5-2c3.4-10,5-20.3,5-30.9
				c0-2.8-2.9-5.2-5.7-4.3c-4,1.3-8.4,2.2-12.2,3.9c-0.6,0.2-1.2,0.4-1.7,0.6c-1,1.3-1.3,1.2-0.8-0.3c0-1.2,1.2-3.1,1.5-4.2
				c1.7-5.7-0.6-11.5-6.7-13.2c-6.6-1.8-12.9,2.9-19.1,4.3c-8.3,1.9-16.6,0.9-24.4-2.2c-2.9-1.1-5.5,1.7-5.7,4.3
				c-0.4,7.7-0.9,15.5-1.3,23.2C555.5,185.1,564.5,185,564.8,179.3L564.8,179.3z"/>
		</g>
	</g>
	<g>
		<g>
			<line class="st1" x1="598.6" y1="114.3" x2="592.7" y2="113.2"/>
			<line class="st2" x1="580.9" y1="111" x2="208.4" y2="42.3"/>
			<polyline class="st1" points="202.4,41.2 196.5,40.1 201.8,43 		"/>
			<line class="st3" x1="212" y1="48.7" x2="534.1" y2="226.3"/>
			<line class="st1" x1="539.2" y1="229.1" x2="544.4" y2="232"/>
		</g>
	</g>
	<ellipse transform="matrix(0.418 -0.9085 0.9085 0.418 175.5997 621.7228)" class="st1" cx="573" cy="173.8" rx="64.5" ry="29.3"/>
</svg>
