<?xml version="1.0" encoding="utf-8"?>
<!-- Generator: Adobe Illustrator 24.1.1, SVG Export Plug-In . SVG Version: 6.00 Build 0)  -->
<svg version="1.1" id="Layer_1" xmlns="http://www.w3.org/2000/svg" xmlns:xlink="http://www.w3.org/1999/xlink" x="0px" y="0px"
	 viewBox="0 0 366 270" style="enable-background:new 0 0 366 270;" xml:space="preserve">
	<style type="text/css">
		.st0{fill:#010101;}
		.st1{fill:none;stroke:#010101;stroke-width:6;stroke-miterlimit:10;}
	</style>
	<path class="st0" d="M303.2,114.8c-1.4-1.4-3.6-1.4-5,0l-13.1,13.1l-5.9,0.1l0.1-5.9l13.1-13.1c1.4-1.4,1.4-3.6,0-5
		c-1.4-1.4-3.6-1.4-5,0l-14.1,14.1c-0.6,0.6-1,1.5-1,2.4l-0.1,9.3c0,0.3,0.1,0.6,0.2,0.9l-24.2,21.5c-1.3-0.8-2.8-1.2-4.5-1.2
		c-2.8,0-5.3,1.3-7,3.3l-33.3-8.8v-20.4c0-1.9-1.6-3.5-3.5-3.5h-25.7c-1.2-6.9-6.5-12.5-13.4-13.9V65.9h15.8c1.9,0,3.5-1.6,3.5-3.5
		v-26c0-1.9-1.6-3.5-3.5-3.5h-38.6c-1.9,0-3.5,1.6-3.5,3.5v26c0,1.9,1.6,3.5,3.5,3.5h15.8v41.8c-6.9,1.4-12.2,7-13.4,13.9h-4.6v-8.3
		c0-1.9-1.6-3.5-3.5-3.5h-3.3V92.5c0-0.1-0.1-0.2-0.1-0.4c0-0.1,0-0.2,0-0.3c-3-15.3-5.2-22.3-6.7-25.6c-0.4-1.2-1-2-1.6-2.6
		c-0.2-0.2-0.4-0.4-0.5-0.5l0,0c-1.1-0.9-2.5-1.3-4-1.3c-4.5,0-9.7,4-13.8,8.4l-4.1-3.2c-1.5-1.2-3.7-0.9-4.9,0.6
		c-1.2,1.5-0.9,3.7,0.6,4.9l4.1,3.2c-3.6,5.4-5.5,10.8-5,14.5c0.3,2.4,1.5,3.8,2.4,4.5c0,0,0,0,0,0c0.2,0.2,0.6,0.5,1.4,0.7
		c0.4,0.2,0.9,0.3,1.4,0.4c1.9,0.4,5,0.7,10.5,0.7c3.4,0,7.8-0.1,13.3-0.5v13.5H96.6c-1.9,0-3.5,1.6-3.5,3.5v8.3h-7.4l-4.7-14
		c0-0.1-0.1-0.3-0.2-0.4c0-0.1,0-0.2-0.1-0.2l-5.1-8.7c3.2-1.4,5.5-4.6,5.5-8.3V74.1c0-5-4-9-9-9h-4.5c-5,0-9,4-9,9v15.7
		c0,3.7,2.2,6.8,5.4,8.2l-4.2,6.9l-15-11.8c-2.9-2.3-7.2-1.8-9.5,1.1l-14,17.7c-2.3,2.9-1.8,7.2,1.1,9.5l33.3,26.2
		c0.7,0.6,1.6,0.9,2.4,1.2v4.2l-2.7-0.9c-1.2-3.6-4.6-6.2-8.6-6.2c-5,0-9.1,4.1-9.1,9.1c0,3.8,2.3,7,5.6,8.4v25.6
		c-2.8,0.5-5.3,1.7-7.5,3.2c-0.8-1.1-2.1-1.9-3.6-1.9c-2.5,0-4.5,2-4.5,4.5c0,1.8,1,3.2,2.5,4c-0.7,1.2-1.2,2.5-1.5,3.9
		c-0.3-0.1-0.6-0.2-0.9-0.2c-2.5,0-4.5,2-4.5,4.5c0,2.5,2,4.5,4.5,4.5c0.2,0,0.4-0.1,0.7-0.1c0.4,1.8,1.1,3.5,2,5.1
		c-1.2,0.8-2,2.1-2,3.7c0,2.5,2,4.5,4.5,4.5c1.4,0,2.6-0.6,3.4-1.6c1.5,1,3.2,1.8,5,2.3c0,0.2-0.1,0.3-0.1,0.5c0,2.5,2,4.5,4.5,4.5
		c2.4,0,4.4-2,4.5-4.4c2.4-0.4,4.6-1.3,6.5-2.5c0.8,0.7,1.8,1.2,3,1.2c2.5,0,4.5-2,4.5-4.5c0-1.2-0.5-2.3-1.3-3.1
		c1-1.7,1.8-3.6,2.2-5.6c0.1,0,0.1,0,0.2,0c2.5,0,4.5-2,4.5-4.5c0-2.5-2-4.5-4.5-4.5c-0.2,0-0.3,0.1-0.4,0.1c-0.4-1.4-1-2.8-1.7-4.1
		c1.2-0.8,2.1-2.1,2.1-3.7c0-2.5-2-4.5-4.5-4.5c-1.4,0-2.6,0.7-3.4,1.7c-2.1-1.4-4.5-2.5-7.1-3v-25.6c1.9-0.8,3.5-2.3,4.5-4.1
		l3.3,1.1v10.3c0,1.9,1.6,3.5,3.5,3.5h37.6c1.2,3.6,4.6,6.3,8.6,6.3c1.6,0,3.1-0.4,4.4-1.2l15,6.8v2.8c-2.7,0.5-5.1,1.6-7.3,3.1
		c-0.8-1.1-2.1-1.8-3.5-1.8c-2.5,0-4.5,2-4.5,4.5c0,1.7,0.9,3.1,2.3,3.8c-0.7,1.3-1.2,2.6-1.6,4c-0.2,0-0.4-0.1-0.7-0.1
		c-2.5,0-4.5,2-4.5,4.5c0,2.5,2,4.5,4.5,4.5c0.1,0,0.3-0.1,0.4-0.1c0.4,1.9,1.1,3.6,2,5.2c-1.1,0.8-1.8,2.1-1.8,3.5
		c0,2.5,2,4.5,4.5,4.5c1.3,0,2.5-0.6,3.3-1.5c1.5,1,3.3,1.8,5.1,2.3c0,0.1-0.1,0.3-0.1,0.4c0,2.5,2,4.5,4.5,4.5c2.5,0,4.4-2,4.5-4.4
		c2.3-0.5,4.5-1.4,6.4-2.6c0.8,0.8,1.9,1.3,3.1,1.3c2.5,0,4.5-2,4.5-4.5c0-1.3-0.6-2.4-1.5-3.3c1-1.7,1.8-3.5,2.2-5.4
		c0.1,0,0.3,0.1,0.4,0.1c2.5,0,4.5-2,4.5-4.5c0-2.5-2-4.5-4.5-4.5c-0.2,0-0.5,0.1-0.7,0.1c-0.4-1.4-0.9-2.7-1.6-4
		c1.3-0.8,2.3-2.2,2.3-3.8c0-2.5-2-4.5-4.5-4.5c-1.5,0-2.7,0.7-3.5,1.8c-2.1-1.5-4.6-2.6-7.3-3.1v-5c0-1.4-0.8-2.6-2.1-3.2l-14.3-6.5
		h81.9c1.6,0,2.8-1,3.3-2.4l3.1,0.8c0.4,3.2,2.6,5.9,5.5,7.2v9.1c-2.7,0.5-5.3,1.7-7.5,3.2c-0.8-1.1-2.1-1.9-3.6-1.9
		c-2.5,0-4.5,2-4.5,4.5c0,1.8,1,3.2,2.5,4c-0.7,1.2-1.2,2.5-1.5,3.9c-0.3-0.1-0.6-0.2-0.9-0.2c-2.5,0-4.5,2-4.5,4.5
		c0,2.5,2,4.5,4.5,4.5c0.2,0,0.4-0.1,0.7-0.1c0.4,1.8,1.1,3.5,2,5.1c-1.2,0.8-2,2.1-2,3.7c0,2.5,2,4.5,4.5,4.5c1.4,0,2.6-0.6,3.4-1.6
		c1.5,1,3.2,1.8,5,2.3c0,0.2-0.1,0.3-0.1,0.5c0,2.5,2,4.5,4.5,4.5c2.4,0,4.4-2,4.5-4.4c2.4-0.4,4.6-1.3,6.5-2.5
		c0.8,0.7,1.8,1.2,3,1.2c2.5,0,4.5-2,4.5-4.5c0-1.2-0.5-2.3-1.3-3.1c1-1.7,1.8-3.6,2.2-5.6c0.1,0,0.1,0,0.2,0c2.5,0,4.5-2,4.5-4.5
		c0-2.5-2-4.5-4.5-4.5c-0.2,0-0.3,0.1-0.4,0.1c-0.4-1.4-1-2.8-1.7-4.1c1.2-0.8,2.1-2.1,2.1-3.7c0-2.5-2-4.5-4.5-4.5
		c-1.4,0-2.6,0.7-3.4,1.7c-2.1-1.4-4.5-2.5-7.1-3v-9.1c3.3-1.4,5.6-4.6,5.6-8.4c0-5-4.1-9.1-9.1-9.1c-2.9,0-5.5,1.4-7.2,3.6l-4.7-1.2
		v-11.8l31.2,8.3c0.4,4.6,4.3,8.3,9,8.3c5,0,9.1-4.1,9.1-9.1c0-0.8-0.1-1.6-0.3-2.3l25.6-22.8l8.5-0.1c0.9,0,1.8-0.4,2.4-1l14.1-14.1
		C304.5,118.4,304.5,116.1,303.2,114.8z M157.2,44.7c2.8,0,5,2.2,5,5s-2.2,5-5,5s-5-2.2-5-5C152.2,47,154.5,44.7,157.2,44.7z
		M173,58.9h-8.2c2.6-2.2,4.4-5.5,4.4-9.2c0-4-2-7.6-5.1-9.8h8.9V58.9z M141.4,39.9h8.9c-3.1,2.2-5.1,5.7-5.1,9.8
		c0,3.7,1.7,7,4.4,9.2h-8.2V39.9z M103.9,80.5c0.6,0.5,1.4,0.8,2.2,0.8c1,0,2.1-0.5,2.8-1.3c1.2-1.5,0.9-3.7-0.6-4.9l-0.5-0.4
		c3.2-3.4,6.2-5.3,7.7-5.7c0,1.7-1.4,6.3-5.7,11.8c-4.1,5.2-8.1,7.9-10,8.4c0-1.4,0.9-4.7,3.6-8.9L103.9,80.5z M111.3,89.6
		c1.5-1.5,2.9-3,4.1-4.6c1.4-1.8,2.6-3.6,3.6-5.3c0.7,3,1.5,6.3,2.2,9.6C117.8,89.5,114.4,89.6,111.3,89.6z M46.9,152.9
		c1.2,0,2.1,0.9,2.1,2.1c0,1.2-1,2.1-2.1,2.1c-1.2,0-2.1-0.9-2.1-2.1C44.8,153.8,45.7,152.9,46.9,152.9z M58.7,207.4
		c0,6.5-5.3,11.8-11.8,11.8c-6.5,0-11.8-5.3-11.8-11.8c0-5.3,3.5-9.7,8.3-11.2v11.2c0,1.9,1.6,3.5,3.5,3.5c1.9,0,3.5-1.6,3.5-3.5
		v-11.2C55.2,197.7,58.7,202.1,58.7,207.4z M142.6,207.4c0,6.5-5.3,11.8-11.8,11.8s-11.8-5.3-11.8-11.8c0-5.3,3.5-9.7,8.3-11.2v11.2
		c0,1.9,1.6,3.5,3.5,3.5s3.5-1.6,3.5-3.5v-11.2C139.1,197.7,142.6,202.1,142.6,207.4z M157.2,114.3c4.6,0,8.4,3.1,9.7,7.2h-19.4
		C148.8,117.4,152.6,114.3,157.2,114.3z M100.1,116.8h28.6v4.8h-28.6V116.8z M71.6,105.1H68l1.8-3L71.6,105.1z M65.7,74.1
		c0-1.1,0.9-2,2-2h4.5c1.1,0,2,0.9,2,2v15.7c0,1.1-0.9,2-2,2h-4.5c-1.1,0-2-0.9-2-2V74.1z M27.1,116.1l13.7-17.3l17.2,13.5
		c0.1,0.1,0.2,0.1,0.3,0.2v3.3l-13.8-10.9c-1.5-1.2-3.7-0.9-4.9,0.6c-1.2,1.5-0.9,3.7,0.6,4.9l18.2,14.3v3.8l-20.6-16.2
		c-1.5-1.2-3.7-0.9-4.9,0.6c-1.2,1.5-0.9,3.7,0.6,4.9l24.6,19.4c0.1,0.1,0.2,0.1,0.3,0.2v3.3L27.1,116.1z M65.2,162.7l13.5,4.5H65.2
		V162.7z M107.9,173.5c-1.2,0-2.1-0.9-2.1-2.1c0-1.2,0.9-2.1,2.1-2.1c1.2,0,2.1,0.9,2.1,2.1C110,172.5,109.1,173.5,107.9,173.5z
		M127.3,167.2l19.8-6.2c1.7,2,4.2,3.3,6.9,3.3c2.9,0,5.5-1.4,7.2-3.6l24.6,6.5L127.3,167.2z M151.9,155.2c0-1.2,0.9-2.1,2.1-2.1
		c1.2,0,2.1,0.9,2.1,2.1c0,1.2-1,2.1-2.1,2.1C152.9,157.3,151.9,156.3,151.9,155.2z M227.1,207.4c0,6.5-5.3,11.8-11.8,11.8
		c-6.5,0-11.8-5.3-11.8-11.8c0-5.3,3.5-9.7,8.3-11.2v11.2c0,1.9,1.6,3.5,3.5,3.5s3.5-1.6,3.5-3.5v-11.2
		C223.6,197.7,227.1,202.1,227.1,207.4z M215.3,169.3c1.2,0,2.1,0.9,2.1,2.1c0,1.2-1,2.1-2.1,2.1c-1.2,0-2.1-0.9-2.1-2.1
		C213.2,170.2,214.1,169.3,215.3,169.3z M196.4,162.8l-33.3-8.8c-0.6-4.4-4.4-7.9-9-7.9c-4.7,0-8.6,3.6-9,8.3l-31.5,9.9
		c-1.5-1.2-3.5-1.9-5.6-1.9c-3.4,0-6.3,1.9-7.9,4.7l-34.8-11.6v-43.2h9.9l4.7,14c0.5,1.4,1.8,2.4,3.3,2.4h13.5h25.2v8.2
		c0,4.3-4.5,4.7-5.8,4.8h-4.6v-1.6c0-5-4-9-9-9H90c-5,0-9,4-9,9v9.6c0,5,4,9,9,9h12.4c5,0,9-4,9-9v-1h4.7c5.1,0,12.8-3.2,12.8-11.8
		v-8.2h3.4h64.1v15.1l-5.1-1.3c0-5-4.1-9.1-9.1-9.1c-5,0-9.1,4.1-9.1,9.1c0,5,4.1,9.1,9.1,9.1c2.5,0,4.8-1,6.4-2.6l7.8,2.1
		L196.4,162.8L196.4,162.8z M104.4,143.8c-0.1,0.4-0.2,0.8-0.2,1.2c0,0.4,0.1,0.9,0.2,1.2v3.2c0,1.1-0.9,2-2,2H90c-1.1,0-2-0.9-2-2
		v-9.6c0-1.1,0.9-2,2-2h12.4c1.1,0,2,0.9,2,2V143.8z M184.3,142.4c0,1.2-1,2.1-2.1,2.1c-1.2,0-2.1-0.9-2.1-2.1c0-1.2,0.9-2.1,2.1-2.1
		C183.3,140.2,184.3,141.2,184.3,142.4z M243.6,162.3c-1.2,0-2.1-0.9-2.1-2.1c0-1.2,0.9-2.1,2.1-2.1s2.1,0.9,2.1,2.1
		C245.7,161.3,244.8,162.3,243.6,162.3z"/>
	<g>
		<g>
			<path class="st0" d="M281.1,188.9c0.4-7.7,0.9-15.5,1.3-23.2c-1.9,1.4-3.8,2.9-5.7,4.3c7.8,3,16.1,4.1,24.5,3
				c4-0.5,7.9-1.5,11.7-3c2.7-1,8.6-4.6,7.5,0.7c-1,5-3.7,11.2,2.4,14.5c3.2,1.8,6.7,0.7,10-0.3c4.1-1.3,8.2-2.6,12.2-3.9
				c-1.9-1.4-3.8-2.9-5.7-4.3c0.1,9.8-1.5,19.2-4.7,28.5c2.5-0.7,5-1.3,7.5-2c-8.2-10.5-26.9-3.2-37.2-0.5
				c-11.5,2.9-24.8,7.2-29.9,19c2.7,0.4,5.5,0.7,8.2,1.1c-3.6-8.8-4.3-17.9-1.6-27.1c1.6-5.6-7.1-8-8.7-2.4
				c-3.1,10.6-2.6,21.7,1.6,31.9c1.3,3.1,6.5,5.1,8.2,1.1c3.9-9.1,13.9-12.1,22.8-14.4c5.6-1.5,11.2-2.8,16.8-3.9
				c4.4-0.9,10.2-2.4,13.4,1.7c2.3,2.9,6.6,0.9,7.5-2c3.4-10,5-20.3,5-30.9c0-2.8-2.9-5.2-5.7-4.3c-4,1.3-8.4,2.2-12.2,3.9
				c-0.6,0.2-1.2,0.4-1.7,0.6c-1,1.3-1.3,1.2-0.8-0.3c0-1.2,1.2-3.1,1.5-4.2c1.7-5.7-0.6-11.5-6.7-13.2c-6.6-1.8-12.9,2.9-19.1,4.3
				c-8.3,1.9-16.6,0.9-24.4-2.2c-2.9-1.1-5.5,1.7-5.7,4.3c-0.4,7.7-0.9,15.5-1.3,23.2C271.8,194.7,280.8,194.6,281.1,188.9
				L281.1,188.9z"/>
		</g>
	</g>
	<path class="st1" d="M271.6,97.6l39.2,47.2c0,0,18,5.3,12.6-12l-37.9-46.6L271.6,97.6z"/>
	<polygon class="st1" points="273.3,96 258.3,90.3 282.2,71.7 284.1,87.1 "/>
</svg>
