<?xml version="1.0" encoding="utf-8"?>
<!-- Generator: Adobe Illustrator 24.1.1, SVG Export Plug-In . SVG Version: 6.00 Build 0)  -->
<svg version="1.1" id="Layer_1" xmlns="http://www.w3.org/2000/svg" xmlns:xlink="http://www.w3.org/1999/xlink" x="0px" y="0px"
	 viewBox="0 0 366 307" style="enable-background:new 0 0 366 307;" xml:space="preserve">
<style type="text/css">
	.st0{fill:#010101;}
	.st1{enable-background:new    ;}
</style>
<path class="st0" d="M346,179.3c-1.4-1.4-3.6-1.4-5,0l-13.1,13.1l-5.9,0.1l0.1-5.9l13.1-13.1c1.4-1.4,1.4-3.6,0-5s-3.6-1.4-5,0
	L316,182.6c-0.6,0.6-1,1.5-1,2.4l-0.1,9.3c0,0.3,0.1,0.6,0.2,0.9l-24.2,21.5c-1.3-0.8-2.8-1.2-4.5-1.2c-2.8,0-5.3,1.3-7,3.3
	l-33.3-8.8v-20.4c0-1.9-1.6-3.5-3.5-3.5H217c-1.2-6.9-6.5-12.5-13.4-13.9v-41.8h15.8c1.9,0,3.5-1.6,3.5-3.5v-26
	c0-1.9-1.6-3.5-3.5-3.5h-38.6c-1.9,0-3.5,1.6-3.5,3.5v26c0,1.9,1.6,3.5,3.5,3.5h15.8v41.8c-6.9,1.4-12.2,7-13.4,13.9h-4.6v-8.3
	c0-1.9-1.6-3.5-3.5-3.5h-3.3V157c0-0.1-0.1-0.2-0.1-0.4c0-0.1,0-0.2,0-0.3c-3-15.3-5.2-22.3-6.7-25.6c-0.4-1.2-1-2-1.6-2.6
	c-0.2-0.2-0.4-0.4-0.5-0.5l0,0c-1.1-0.9-2.5-1.3-4-1.3c-4.5,0-9.7,4-13.8,8.4l-4.1-3.2c-1.5-1.2-3.7-0.9-4.9,0.6s-0.9,3.7,0.6,4.9
	l4.1,3.2c-3.6,5.4-5.5,10.8-5,14.5c0.3,2.4,1.5,3.8,2.4,4.5l0,0c0.2,0.2,0.6,0.5,1.4,0.7c0.4,0.2,0.9,0.3,1.4,0.4
	c1.9,0.4,5,0.7,10.5,0.7c3.4,0,7.8-0.1,13.3-0.5V174h-25.3c-1.9,0-3.5,1.6-3.5,3.5v8.3h-7.4l-4.7-14c0-0.1-0.1-0.3-0.2-0.4
	c0-0.1,0-0.2-0.1-0.2l-5.1-8.7c3.2-1.4,5.5-4.6,5.5-8.3v-15.7c0-5-4-9-9-9h-4.5c-5,0-9,4-9,9v15.7c0,3.7,2.2,6.8,5.4,8.2l-4.2,6.9
	l-15-11.8c-2.9-2.3-7.2-1.8-9.5,1.1l-14,17.7c-2.3,2.9-1.8,7.2,1.1,9.5L98.6,212c0.7,0.6,1.6,0.9,2.4,1.2v4.2l-2.7-0.9
	c-1.2-3.6-4.6-6.2-8.6-6.2c-5,0-9.1,4.1-9.1,9.1c0,3.8,2.3,7,5.6,8.4v25.6c-2.8,0.5-5.3,1.7-7.5,3.2c-0.8-1.1-2.1-1.9-3.6-1.9
	c-2.5,0-4.5,2-4.5,4.5c0,1.8,1,3.2,2.5,4c-0.7,1.2-1.2,2.5-1.5,3.9c-0.3-0.1-0.6-0.2-0.9-0.2c-2.5,0-4.5,2-4.5,4.5s2,4.5,4.5,4.5
	c0.2,0,0.4-0.1,0.7-0.1c0.4,1.8,1.1,3.5,2,5.1c-1.2,0.8-2,2.1-2,3.7c0,2.5,2,4.5,4.5,4.5c1.4,0,2.6-0.6,3.4-1.6c1.5,1,3.2,1.8,5,2.3
	c0,0.2-0.1,0.3-0.1,0.5c0,2.5,2,4.5,4.5,4.5c2.4,0,4.4-2,4.5-4.4c2.4-0.4,4.6-1.3,6.5-2.5c0.8,0.7,1.8,1.2,3,1.2
	c2.5,0,4.5-2,4.5-4.5c0-1.2-0.5-2.3-1.3-3.1c1-1.7,1.8-3.6,2.2-5.6c0.1,0,0.1,0,0.2,0c2.5,0,4.5-2,4.5-4.5s-2-4.5-4.5-4.5
	c-0.2,0-0.3,0.1-0.4,0.1c-0.4-1.4-1-2.8-1.7-4.1c1.2-0.8,2.1-2.1,2.1-3.7c0-2.5-2-4.5-4.5-4.5c-1.4,0-2.6,0.7-3.4,1.7
	c-2.1-1.4-4.5-2.5-7.1-3v-25.6c1.9-0.8,3.5-2.3,4.5-4.1l3.3,1.1v10.3c0,1.9,1.6,3.5,3.5,3.5h37.6c1.2,3.6,4.6,6.3,8.6,6.3
	c1.6,0,3.1-0.4,4.4-1.2l15,6.8v2.8c-2.7,0.5-5.1,1.6-7.3,3.1c-0.8-1.1-2.1-1.8-3.5-1.8c-2.5,0-4.5,2-4.5,4.5c0,1.7,0.9,3.1,2.3,3.8
	c-0.7,1.3-1.2,2.6-1.6,4c-0.2,0-0.4-0.1-0.7-0.1c-2.5,0-4.5,2-4.5,4.5s2,4.5,4.5,4.5c0.1,0,0.3-0.1,0.4-0.1c0.4,1.9,1.1,3.6,2,5.2
	c-1.1,0.8-1.8,2.1-1.8,3.5c0,2.5,2,4.5,4.5,4.5c1.3,0,2.5-0.6,3.3-1.5c1.5,1,3.3,1.8,5.1,2.3c0,0.1-0.1,0.3-0.1,0.4
	c0,2.5,2,4.5,4.5,4.5s4.4-2,4.5-4.4c2.3-0.5,4.5-1.4,6.4-2.6c0.8,0.8,1.9,1.3,3.1,1.3c2.5,0,4.5-2,4.5-4.5c0-1.3-0.6-2.4-1.5-3.3
	c1-1.7,1.8-3.5,2.2-5.4c0.1,0,0.3,0.1,0.4,0.1c2.5,0,4.5-2,4.5-4.5s-2-4.5-4.5-4.5c-0.2,0-0.5,0.1-0.7,0.1c-0.4-1.4-0.9-2.7-1.6-4
	c1.3-0.8,2.3-2.2,2.3-3.8c0-2.5-2-4.5-4.5-4.5c-1.5,0-2.7,0.7-3.5,1.8c-2.1-1.5-4.6-2.6-7.3-3.1v-5c0-1.4-0.8-2.6-2.1-3.2l-14.3-6.5
	h81.9c1.6,0,2.8-1,3.3-2.4l3.1,0.8c0.4,3.2,2.6,5.9,5.5,7.2v9.1c-2.7,0.5-5.3,1.7-7.5,3.2c-0.8-1.1-2.1-1.9-3.6-1.9
	c-2.5,0-4.5,2-4.5,4.5c0,1.8,1,3.2,2.5,4c-0.7,1.2-1.2,2.5-1.5,3.9c-0.3-0.1-0.6-0.2-0.9-0.2c-2.5,0-4.5,2-4.5,4.5s2,4.5,4.5,4.5
	c0.2,0,0.4-0.1,0.7-0.1c0.4,1.8,1.1,3.5,2,5.1c-1.2,0.8-2,2.1-2,3.7c0,2.5,2,4.5,4.5,4.5c1.4,0,2.6-0.6,3.4-1.6c1.5,1,3.2,1.8,5,2.3
	c0,0.2-0.1,0.3-0.1,0.5c0,2.5,2,4.5,4.5,4.5c2.4,0,4.4-2,4.5-4.4c2.4-0.4,4.6-1.3,6.5-2.5c0.8,0.7,1.8,1.2,3,1.2
	c2.5,0,4.5-2,4.5-4.5c0-1.2-0.5-2.3-1.3-3.1c1-1.7,1.8-3.6,2.2-5.6c0.1,0,0.1,0,0.2,0c2.5,0,4.5-2,4.5-4.5s-2-4.5-4.5-4.5
	c-0.2,0-0.3,0.1-0.4,0.1c-0.4-1.4-1-2.8-1.7-4.1c1.2-0.8,2.1-2.1,2.1-3.7c0-2.5-2-4.5-4.5-4.5c-1.4,0-2.6,0.7-3.4,1.7
	c-2.1-1.4-4.5-2.5-7.1-3v-9.1c3.3-1.4,5.6-4.6,5.6-8.4c0-5-4.1-9.1-9.1-9.1c-2.9,0-5.5,1.4-7.2,3.6l-4.7-1.2v-11.8l31.2,8.3
	c0.4,4.6,4.3,8.3,9,8.3c5,0,9.1-4.1,9.1-9.1c0-0.8-0.1-1.6-0.3-2.3l25.6-22.8l8.5-0.1c0.9,0,1.8-0.4,2.4-1l14.1-14.1
	C347.3,182.8,347.3,180.6,346,179.3z M200,109.2c2.8,0,5,2.2,5,5s-2.2,5-5,5s-5-2.2-5-5C195,111.4,197.3,109.2,200,109.2z
	 M215.8,123.4h-8.2c2.6-2.2,4.4-5.5,4.4-9.2c0-4-2-7.6-5.1-9.8h8.9L215.8,123.4L215.8,123.4z M184.2,104.4h8.9
	c-3.1,2.2-5.1,5.7-5.1,9.8c0,3.7,1.7,7,4.4,9.2h-8.2L184.2,104.4L184.2,104.4z M146.7,145c0.6,0.5,1.4,0.8,2.2,0.8
	c1,0,2.1-0.5,2.8-1.3c1.2-1.5,0.9-3.7-0.6-4.9l-0.5-0.4c3.2-3.4,6.2-5.3,7.7-5.7c0,1.7-1.4,6.3-5.7,11.8c-4.1,5.2-8.1,7.9-10,8.4
	c0-1.4,0.9-4.7,3.6-8.9L146.7,145z M154.1,154.1c1.5-1.5,2.9-3,4.1-4.6c1.4-1.8,2.6-3.6,3.6-5.3c0.7,3,1.5,6.3,2.2,9.6
	C160.6,153.9,157.2,154.1,154.1,154.1z M89.7,217.3c1.2,0,2.1,0.9,2.1,2.1c0,1.2-1,2.1-2.1,2.1c-1.2,0-2.1-0.9-2.1-2.1
	C87.6,218.3,88.5,217.3,89.7,217.3z M101.5,271.9c0,6.5-5.3,11.8-11.8,11.8s-11.8-5.3-11.8-11.8c0-5.3,3.5-9.7,8.3-11.2v11.2
	c0,1.9,1.6,3.5,3.5,3.5s3.5-1.6,3.5-3.5v-11.2C98,262.2,101.5,266.6,101.5,271.9z M185.4,271.9c0,6.5-5.3,11.8-11.8,11.8
	s-11.8-5.3-11.8-11.8c0-5.3,3.5-9.7,8.3-11.2v11.2c0,1.9,1.6,3.5,3.5,3.5s3.5-1.6,3.5-3.5v-11.2
	C181.9,262.2,185.4,266.6,185.4,271.9z M200,178.8c4.6,0,8.4,3.1,9.7,7.2h-19.4C191.6,181.9,195.4,178.8,200,178.8z M142.9,181.3
	h28.6v4.8h-28.6V181.3z M114.4,169.6h-3.6l1.8-3L114.4,169.6z M108.5,138.6c0-1.1,0.9-2,2-2h4.5c1.1,0,2,0.9,2,2v15.7
	c0,1.1-0.9,2-2,2h-4.5c-1.1,0-2-0.9-2-2V138.6z M69.9,180.6l13.7-17.3l17.2,13.5c0.1,0.1,0.2,0.1,0.3,0.2v3.3l-13.8-10.9
	c-1.5-1.2-3.7-0.9-4.9,0.6c-1.2,1.5-0.9,3.7,0.6,4.9l18.2,14.3v3.8l-20.6-16.2c-1.5-1.2-3.7-0.9-4.9,0.6c-1.2,1.5-0.9,3.7,0.6,4.9
	l24.6,19.4c0.1,0.1,0.2,0.1,0.3,0.2v3.3L69.9,180.6z M108,227.2l13.5,4.5H108V227.2z M150.7,238c-1.2,0-2.1-0.9-2.1-2.1
	c0-1.2,0.9-2.1,2.1-2.1c1.2,0,2.1,0.9,2.1,2.1C152.8,237,151.9,238,150.7,238z M170.1,231.7l19.8-6.2c1.7,2,4.2,3.3,6.9,3.3
	c2.9,0,5.5-1.4,7.2-3.6l24.6,6.5H170.1z M194.7,219.7c0-1.2,0.9-2.1,2.1-2.1c1.2,0,2.1,0.9,2.1,2.1c0,1.2-1,2.1-2.1,2.1
	S194.7,220.8,194.7,219.7z M269.9,271.9c0,6.5-5.3,11.8-11.8,11.8s-11.8-5.3-11.8-11.8c0-5.3,3.5-9.7,8.3-11.2v11.2
	c0,1.9,1.6,3.5,3.5,3.5s3.5-1.6,3.5-3.5v-11.2C266.4,262.2,269.9,266.6,269.9,271.9z M258.1,233.8c1.2,0,2.1,0.9,2.1,2.1
	c0,1.2-1,2.1-2.1,2.1c-1.2,0-2.1-0.9-2.1-2.1S256.9,233.8,258.1,233.8z M239.2,227.2l-33.3-8.8c-0.6-4.4-4.4-7.9-9-7.9
	c-4.7,0-8.6,3.6-9,8.3l-31.5,9.9c-1.5-1.2-3.5-1.9-5.6-1.9c-3.4,0-6.3,1.9-7.9,4.7L108,219.8v-43.2h9.9l4.7,14
	c0.5,1.4,1.8,2.4,3.3,2.4h13.5h25.2v8.2c0,4.3-4.5,4.7-5.8,4.8h-4.6v-1.6c0-5-4-9-9-9h-12.4c-5,0-9,4-9,9v9.6c0,5,4,9,9,9h12.4
	c5,0,9-4,9-9v-1h4.7c5.1,0,12.8-3.2,12.8-11.8V193h3.4h64.1v15.1l-5.1-1.3c0-5-4.1-9.1-9.1-9.1s-9.1,4.1-9.1,9.1s4.1,9.1,9.1,9.1
	c2.5,0,4.8-1,6.4-2.6l7.8,2.1L239.2,227.2L239.2,227.2z M147.2,208.2c-0.1,0.4-0.2,0.8-0.2,1.2s0.1,0.9,0.2,1.2v3.2c0,1.1-0.9,2-2,2
	h-12.4c-1.1,0-2-0.9-2-2v-9.6c0-1.1,0.9-2,2-2h12.4c1.1,0,2,0.9,2,2V208.2z M227.1,206.8c0,1.2-1,2.1-2.1,2.1
	c-1.2,0-2.1-0.9-2.1-2.1c0-1.2,0.9-2.1,2.1-2.1C226.1,204.7,227.1,205.7,227.1,206.8z M286.4,226.7c-1.2,0-2.1-0.9-2.1-2.1
	c0-1.2,0.9-2.1,2.1-2.1s2.1,0.9,2.1,2.1S287.6,226.7,286.4,226.7z"/>
<g class="st1">
	<path class="st0" d="M77.3,24c0-4.8,3.5-8.3,8.1-8.3c2.6,0,4.7,1,6.1,2.8l-2.2,2.2c-1-1.2-2.3-1.9-3.8-1.9c-2.8,0-4.8,2.1-4.8,5.1
		s2,5.1,4.8,5.1c1.5,0,2.8-0.6,3.8-1.9l2.2,2.2c-1.4,1.9-3.6,2.9-6.2,2.9C80.8,32.3,77.3,28.8,77.3,24z"/>
	<path class="st0" d="M92.7,24c0-4.8,3.5-8.3,8.2-8.3c4.7,0,8.2,3.5,8.2,8.3s-3.5,8.3-8.2,8.3C96.1,32.3,92.7,28.7,92.7,24z
		 M105.5,24c0-3.1-2-5.1-4.7-5.1s-4.7,2.1-4.7,5.1s2,5.1,4.7,5.1S105.5,27,105.5,24z"/>
</g>
<g class="st1">
	<path class="st0" d="M117.6,37.9v1.8H111v-1.4l3.4-3.4c0.8-0.8,0.9-1.3,0.9-1.7c0-0.7-0.5-1.2-1.4-1.2c-0.7,0-1.4,0.3-1.8,0.9
		l-1.5-1c0.7-1.1,1.9-1.7,3.5-1.7c1.9,0,3.2,1.1,3.2,2.8c0,0.9-0.2,1.7-1.5,3l-2,2H117.6z"/>
</g>
<g class="st1">
	<path class="st0" d="M17.5,101.8c0-4.8,3.5-8.3,8.1-8.3c2.6,0,4.7,1,6.1,2.8l-2.2,2.2c-1-1.2-2.3-1.9-3.8-1.9
		c-2.8,0-4.8,2.1-4.8,5.1s2,5.1,4.8,5.1c1.5,0,2.8-0.6,3.8-1.9l2.2,2.2c-1.4,1.9-3.6,2.9-6.2,2.9C20.9,110.1,17.5,106.6,17.5,101.8z
		"/>
	<path class="st0" d="M32.8,101.8c0-4.8,3.5-8.3,8.2-8.3c4.7,0,8.2,3.5,8.2,8.3s-3.5,8.3-8.2,8.3C36.3,110.1,32.8,106.5,32.8,101.8z
		 M45.7,101.8c0-3.1-2-5.1-4.7-5.1s-4.7,2.1-4.7,5.1s2,5.1,4.7,5.1S45.7,104.8,45.7,101.8z"/>
</g>
<g class="st1">
	<path class="st0" d="M57.7,115.7v1.8h-6.6V116l3.4-3.4c0.8-0.8,0.9-1.3,0.9-1.7c0-0.7-0.5-1.2-1.4-1.2c-0.7,0-1.4,0.3-1.8,0.9
		l-1.5-1c0.7-1.1,1.9-1.7,3.5-1.7c1.9,0,3.2,1.1,3.2,2.8c0,0.9-0.2,1.7-1.5,3l-2,2H57.7z"/>
</g>
<g class="st1">
	<path class="st0" d="M109.3,88.8c0-4.8,3.5-8.3,8.1-8.3c2.6,0,4.7,1,6.1,2.8l-2.2,2.2c-1-1.2-2.3-1.9-3.8-1.9
		c-2.8,0-4.8,2.1-4.8,5.1s2,5.1,4.8,5.1c1.5,0,2.8-0.6,3.8-1.9l2.2,2.2c-1.4,1.9-3.6,2.9-6.2,2.9C112.7,97.1,109.3,93.6,109.3,88.8z
		"/>
	<path class="st0" d="M124.6,88.8c0-4.8,3.5-8.3,8.2-8.3c4.7,0,8.2,3.5,8.2,8.3s-3.5,8.3-8.2,8.3C128,97.1,124.6,93.6,124.6,88.8z
		 M137.4,88.8c0-3.1-2-5.1-4.7-5.1s-4.7,2.1-4.7,5.1s2,5.1,4.7,5.1S137.4,91.9,137.4,88.8z"/>
</g>
<g class="st1">
	<path class="st0" d="M149.5,102.7v1.8h-6.6v-1.4l3.4-3.4c0.8-0.8,0.9-1.3,0.9-1.7c0-0.7-0.5-1.2-1.4-1.2c-0.7,0-1.4,0.3-1.8,0.9
		l-1.5-1c0.7-1.1,1.9-1.7,3.5-1.7c1.9,0,3.2,1.1,3.2,2.8c0,0.9-0.2,1.7-1.5,3l-2,2H149.5z"/>
</g>
<g class="st1">
	<path class="st0" d="M13.5,49.9c0-4.8,3.5-8.3,8.1-8.3c2.6,0,4.7,1,6.1,2.8l-2.2,2.2c-1-1.2-2.3-1.9-3.8-1.9
		c-2.8,0-4.8,2.1-4.8,5.1s2,5.1,4.8,5.1c1.5,0,2.8-0.6,3.8-1.9l2.2,2.2c-1.4,1.9-3.6,2.9-6.2,2.9C16.9,58.2,13.5,54.7,13.5,49.9z"/>
	<path class="st0" d="M28.8,49.9c0-4.8,3.5-8.3,8.2-8.3c4.7,0,8.2,3.5,8.2,8.3s-3.5,8.3-8.2,8.3C32.3,58.2,28.8,54.7,28.8,49.9z
		 M41.7,49.9c0-3.1-2-5.1-4.7-5.1s-4.7,2.1-4.7,5.1s2,5.1,4.7,5.1S41.7,52.9,41.7,49.9z"/>
</g>
<g class="st1">
	<path class="st0" d="M53.7,63.8v1.8h-6.6v-1.4l3.4-3.4c0.8-0.8,0.9-1.3,0.9-1.7c0-0.7-0.5-1.2-1.4-1.2c-0.7,0-1.4,0.3-1.8,0.9
		l-1.5-1c0.7-1.1,1.9-1.7,3.5-1.7c1.9,0,3.2,1.1,3.2,2.8c0,0.9-0.2,1.7-1.5,3l-2,2H53.7z"/>
</g>
<g class="st1">
	<path class="st0" d="M66.4,98.8c0-4.8,3.5-8.3,8.1-8.3c2.6,0,4.7,1,6.1,2.8l-2.2,2.2c-1-1.2-2.3-1.9-3.8-1.9
		c-2.8,0-4.8,2.1-4.8,5.1s2,5.1,4.8,5.1c1.5,0,2.8-0.6,3.8-1.9l2.2,2.2c-1.4,1.9-3.6,2.9-6.2,2.9C69.8,107.1,66.4,103.6,66.4,98.8z"
		/>
	<path class="st0" d="M81.7,98.8c0-4.8,3.5-8.3,8.2-8.3c4.7,0,8.2,3.5,8.2,8.3s-3.5,8.3-8.2,8.3C85.1,107.1,81.7,103.6,81.7,98.8z
		 M94.5,98.8c0-3.1-2-5.1-4.7-5.1s-4.7,2.1-4.7,5.1s2,5.1,4.7,5.1S94.5,101.8,94.5,98.8z"/>
</g>
<g class="st1">
	<path class="st0" d="M106.6,112.7v1.8H100v-1.4l3.4-3.4c0.8-0.8,0.9-1.3,0.9-1.7c0-0.7-0.5-1.2-1.4-1.2c-0.7,0-1.4,0.3-1.8,0.9
		l-1.5-1c0.7-1.1,1.9-1.7,3.5-1.7c1.9,0,3.2,1.1,3.2,2.8c0,0.9-0.2,1.7-1.5,3l-2,2H106.6z"/>
</g>
<g class="st1">
	<path class="st0" d="M288.7,127.7c0-4.8,3.5-8.3,8.2-8.3c4.7,0,8.2,3.5,8.2,8.3s-3.5,8.3-8.2,8.3
		C292.2,136,288.7,132.5,288.7,127.7z M301.6,127.7c0-3.1-2-5.1-4.7-5.1s-4.7,2.1-4.7,5.1s2,5.1,4.7,5.1S301.6,130.8,301.6,127.7z"
		/>
</g>
<g class="st1">
	<path class="st0" d="M313.1,141.6v1.8h-6.6V142l3.4-3.4c0.8-0.8,0.9-1.3,0.9-1.7c0-0.7-0.5-1.2-1.4-1.2c-0.7,0-1.4,0.3-1.8,0.9
		l-1.5-1c0.7-1.1,1.9-1.7,3.5-1.7c1.9,0,3.2,1.1,3.2,2.8c0,0.9-0.2,1.7-1.5,3l-2,2H313.1z"/>
</g>
<g class="st1">
	<path class="st0" d="M262.8,96.8c0-4.8,3.5-8.3,8.2-8.3c4.7,0,8.2,3.5,8.2,8.3s-3.5,8.3-8.2,8.3
		C266.2,105.1,262.8,101.6,262.8,96.8z M275.6,96.8c0-3.1-2-5.1-4.7-5.1c-2.7,0-4.7,2.1-4.7,5.1s2,5.1,4.7,5.1
		C273.6,101.9,275.6,99.8,275.6,96.8z"/>
</g>
<g class="st1">
	<path class="st0" d="M287.2,110.7v1.8h-6.6v-1.4l3.4-3.4c0.8-0.8,0.9-1.3,0.9-1.7c0-0.7-0.5-1.2-1.4-1.2c-0.7,0-1.4,0.3-1.8,0.9
		l-1.5-1c0.7-1.1,1.9-1.7,3.5-1.7c1.9,0,3.2,1.1,3.2,2.8c0,0.9-0.2,1.7-1.5,3l-2,2H287.2z"/>
</g>
<g class="st1">
	<path class="st0" d="M231.9,151.7c0-4.8,3.5-8.3,8.2-8.3c4.7,0,8.2,3.5,8.2,8.3s-3.5,8.3-8.2,8.3
		C235.3,160,231.9,156.4,231.9,151.7z M244.7,151.7c0-3.1-2-5.1-4.7-5.1c-2.7,0-4.7,2.1-4.7,5.1s2,5.1,4.7,5.1
		C242.7,156.8,244.7,154.7,244.7,151.7z"/>
</g>
<g class="st1">
	<path class="st0" d="M256.3,165.6v1.8h-6.6v-1.4l3.4-3.4c0.8-0.8,0.9-1.3,0.9-1.7c0-0.7-0.5-1.2-1.4-1.2c-0.7,0-1.4,0.3-1.8,0.9
		l-1.5-1c0.7-1.1,1.9-1.7,3.5-1.7c1.9,0,3.2,1.1,3.2,2.8c0,0.9-0.2,1.7-1.5,3l-2,2H256.3z"/>
</g>
<g class="st1">
	<path class="st0" d="M272.8,180.6c0-4.8,3.5-8.3,8.2-8.3c4.7,0,8.2,3.5,8.2,8.3s-3.5,8.3-8.2,8.3
		C276.2,188.9,272.8,185.4,272.8,180.6z M285.6,180.6c0-3.1-2-5.1-4.7-5.1s-4.7,2.1-4.7,5.1s2,5.1,4.7,5.1S285.6,183.6,285.6,180.6z
		"/>
</g>
<g class="st1">
	<path class="st0" d="M297.2,194.5v1.8h-6.6v-1.4l3.4-3.4c0.8-0.8,0.9-1.3,0.9-1.7c0-0.7-0.5-1.2-1.4-1.2c-0.7,0-1.4,0.3-1.8,0.9
		l-1.5-1c0.7-1.1,1.9-1.7,3.5-1.7c1.9,0,3.2,1.1,3.2,2.8c0,0.9-0.2,1.7-1.5,3l-2,2H297.2z"/>
</g>
<g class="st1">
	<path class="st0" d="M254.8,132.7c0-4.8,3.5-8.3,8.2-8.3c4.7,0,8.2,3.5,8.2,8.3s-3.5,8.3-8.2,8.3
		C258.3,141,254.8,137.5,254.8,132.7z M267.7,132.7c0-3.1-2-5.1-4.7-5.1s-4.7,2.1-4.7,5.1s2,5.1,4.7,5.1S267.7,135.8,267.7,132.7z"
		/>
</g>
<g class="st1">
	<path class="st0" d="M279.2,146.6v1.8h-6.6V147l3.4-3.4c0.8-0.8,0.9-1.3,0.9-1.7c0-0.7-0.5-1.2-1.4-1.2c-0.7,0-1.4,0.3-1.8,0.9
		l-1.5-1c0.7-1.1,1.9-1.7,3.5-1.7c1.9,0,3.2,1.1,3.2,2.8c0,0.9-0.2,1.7-1.5,3l-2,2H279.2z"/>
</g>
</svg>
