<?xml version="1.0" encoding="utf-8"?>
<!-- Generator: Adobe Illustrator 24.1.1, SVG Export Plug-In . SVG Version: 6.00 Build 0)  -->
<svg version="1.1" id="Layer_1" xmlns="http://www.w3.org/2000/svg" xmlns:xlink="http://www.w3.org/1999/xlink" x="0px" y="0px"
	 viewBox="0 0 282 178" style="enable-background:new 0 0 282 178;" xml:space="preserve">
	<style type="text/css">
		.st0{fill:#010101;}
	</style>
	<path class="st0" d="M123.7,87.8l-51.8,50.8c-1,1-1,2.6,0,3.6c1,1,2.6,1,3.6,0l51.8-50.8c1-1,1-2.6,0-3.6
		C126.3,86.8,124.7,86.8,123.7,87.8"/>
	<path class="st0" d="M169.6,99.5l37.9,50.9c0.8,1.1,2.4,1.4,3.5,0.5c1.1-0.8,1.4-2.4,0.5-3.5l-37.9-50.9c-0.8-1.1-2.4-1.4-3.5-0.5
		C169,96.7,168.7,98.3,169.6,99.5"/>
	<path class="st0" d="M111.1,130.3l14.5-17.4l1.3,5.5c0.3,1.1,1.3,2,2.5,2H168c1.3,0,2.3-0.9,2.5-2.2l2.1-14.1l1.3-7.5l36,35.1
		c1,1,2.6,1,3.6,0c1-1,1-2.6,0-3.6L174,89.7c-0.7-0.7-1.7-0.9-2.5-0.6c-0.9,0.3-1.6,1.1-1.7,2l-2.1,12.3l0,0.1l-1.8,11.9h-34.5
		l-2-8.5c-0.2-0.9-0.9-1.7-1.9-1.9c-0.9-0.2-1.9,0.1-2.5,0.8l-17.8,21.4c-0.9,1.1-0.7,2.7,0.3,3.6
		C108.6,131.6,110.2,131.4,111.1,130.3L111.1,130.3z"/>
	<path class="st0" d="M175.2,100.1l-1.2-11.8c-0.1-1.3-1.2-2.3-2.5-2.3l-46.3,0.3c-0.7,0-1.4,0.3-1.9,0.8c-0.5,0.5-0.7,1.2-0.7,1.9
		l1.6,18.5c0.1,1.4,1.4,2.4,2.7,2.3c1.4-0.1,2.4-1.4,2.3-2.7L128,91.4l41.2-0.3l0.9,9.5c0.1,1.4,1.4,2.4,2.8,2.3
		C174.4,102.8,175.4,101.5,175.2,100.1L175.2,100.1z"/>
	<path class="st0" d="M70.7,138.4l-1.8,1.8l3.2,3.3l-3.9,3.4l-1.5-1.5l5.7-5L70.7,138.4l-1.8,1.8L70.7,138.4l-1.7-1.9l-7.8,6.9
		c-0.5,0.5-0.8,1.1-0.9,1.9s0.3,1.4,0.8,1.9l5.2,5c1,0.9,2.4,0.9,3.4,0.1l7.6-6.6c0.5-0.5,0.8-1.1,0.9-1.8c0-0.7-0.2-1.4-0.7-1.9
		l-5-5.2c-0.9-1-2.5-1.1-3.5-0.2L70.7,138.4z"/>
	<path class="st0" d="M206.9,151.1l1.7,1.9l3.4-3.1l3.3,4l-1.5,1.5l-4.9-5.9L206.9,151.1l1.7,1.9L206.9,151.1l-2,1.6l6.6,8
		c0.5,0.6,1.1,0.9,1.8,0.9c0.7,0,1.4-0.2,1.9-0.7l5.1-5.1c0.9-0.9,1-2.4,0.2-3.4l-6.4-7.8c-0.4-0.5-1.1-0.9-1.8-0.9
		c-0.7-0.1-1.4,0.2-1.9,0.6l-5.4,4.8c-1,0.9-1.1,2.4-0.3,3.5L206.9,151.1z"/>
	<path class="st0" d="M108,127.4l-1.7,1.9l0.9,0.8l-0.4,0.4l-1.2-1l-1.6,2l1.8,1.8l3.9-4.1L108,127.4l-1.7,1.9L108,127.4l-1.8-1.8
		l-3.9,4.1c-0.5,0.5-0.8,1.2-0.7,1.9c0,0.7,0.4,1.4,0.9,1.8l3,2.5c1,0.8,2.5,0.7,3.4-0.2l3.8-3.9c0.5-0.5,0.7-1.2,0.7-1.9
		c0-0.7-0.3-1.3-0.8-1.8l-2.9-2.6c-1-0.9-2.6-0.8-3.5,0.1L108,127.4z"/>
	<path class="st0" d="M210.2,131.4l1.8,1.8l0.9-0.9l0.3,0.4l-1.1,1.2l1.9,1.7l1.9-1.7l-3.8-4.2L210.2,131.4l1.8,1.8L210.2,131.4
		l-1.9,1.7l3.8,4.2c0.5,0.5,1.1,0.8,1.9,0.8s1.4-0.3,1.9-0.8l2.7-2.9c0.9-1,0.9-2.4,0-3.4l-3.7-4.1c-0.5-0.5-1.1-0.8-1.8-0.8
		c-0.7,0-1.4,0.2-1.9,0.7l-2.8,2.7c-1,1-1,2.5-0.1,3.5L210.2,131.4z"/>
	<path class="st0" d="M152.2,86.7L152,50.4c0-1.4-1.2-2.5-2.6-2.5c-1.4,0-2.5,1.2-2.5,2.6l0.2,36.3c0,1.4,1.2,2.5,2.6,2.5
		C151.1,89.3,152.2,88.1,152.2,86.7"/>
	<path class="st0" d="M107.5,24.2h-2.5v7.4c0,0.7,0.3,1.3,0.7,1.8c0.5,0.5,1.1,0.7,1.8,0.7h35.2l0,11.6c0,0.7,0.3,1.3,0.7,1.8
		c0.5,0.5,1.1,0.7,1.8,0.7h8.8c0.7,0,1.3-0.3,1.8-0.7c0.5-0.5,0.7-1.1,0.7-1.8V33.8h36.6c0.7,0,1.3-0.3,1.8-0.7
		c0.5-0.5,0.7-1.1,0.7-1.8v-7.6c0-0.7-0.3-1.3-0.7-1.8c-0.5-0.5-1.1-0.7-1.8-0.7l-85.6,0.5c-1.4,0-2.5,1.1-2.5,2.5H107.5l0,2.5
		l83.1-0.5v2.5l-36.6,0c-0.7,0-1.3,0.3-1.8,0.7c-0.5,0.5-0.7,1.1-0.7,1.8v11.8h-3.7l0-11.6c0-0.7-0.3-1.3-0.7-1.8
		c-0.5-0.5-1.1-0.7-1.8-0.7H110l0-4.8H107.5l0,2.5L107.5,24.2z"/>
	<path class="st0" d="M145.2,45.6l0.1-2.5l-17.8-1l-14.9-2l-0.3,0H32c-1,0-1.9,0.6-2.3,1.6s-0.2,2,0.5,2.8l9.6,9.6
		c0.5,0.5,1.1,0.7,1.8,0.7H85l21.2,5.2l0.6,0.1h19.8c0.8,0,1.6-0.4,2.1-1l3.3-4.6h15.8c1.2,0,2.2-0.8,2.5-1.9l1.7-6.4
		c0.2-0.8,0-1.6-0.5-2.2c-0.5-0.6-1.3-1-2.1-0.9l-4.3,0.2L145.2,45.6l0.1-2.5L145.2,45.6l0.1,2.5l0.8,0l-0.3,1.2h-15.1
		c-0.8,0-1.6,0.4-2.1,1l-3.3,4.6h-18.2l-21.2-5.2l-0.6-0.1H42.6l-4.5-4.5h73.9l14.9,2l0.2,0l17.9,1l0.3,0L145.2,45.6z"/>
	<path class="st0" d="M145.2,67.9l0-2.5l-86.9,1.1c-1,0-1.9,0.6-2.3,1.6c-0.4,0.9-0.2,2,0.6,2.7l6.1,6.1c0.4,0.4,0.9,0.7,1.5,0.7
		L85.3,80l0.1,0l21.2,1.4l0.2,0h19.8c0.7,0,1.5-0.3,1.9-0.9l3.3-3.9h17.6c0.7,0,1.3-0.3,1.8-0.7c0.5-0.5,0.7-1.1,0.7-1.8l0-6.5
		c0-0.7-0.3-1.4-0.8-1.8c-0.5-0.5-1.2-0.7-1.9-0.7l-4.3,0.2L145.2,67.9l0-2.5L145.2,67.9l0.1,2.5l1.6-0.1l0,1.2h-16.2
		c-0.7,0-1.5,0.3-1.9,0.9l-3.3,3.9h-18.5l-21-1.4l-20.2-2.3l-1.3-1.3l80.8-1l0.1,0L145.2,67.9z"/>
	<path class="st0" d="M153,45.6l0.1,2.5l17.9-1l0.2,0l14.9-2h73.9l-4.5,4.5h-42.6l-0.6,0.1l-21.2,5.2h-18.2l-3.3-4.6
		c-0.5-0.7-1.2-1-2.1-1h-15.1l-0.3-1.2l0.8,0l0.3,0L153,45.6l0.1-2.5l-4.3-0.2c-0.8,0-1.6,0.3-2.1,0.9c-0.5,0.6-0.7,1.5-0.5,2.2
		l1.7,6.4c0.3,1.1,1.3,1.9,2.5,1.9h15.8l3.3,4.6c0.5,0.7,1.2,1,2.1,1h19.8l0.6-0.1l21.2-5.2h43.4c0.7,0,1.3-0.3,1.8-0.7l9.6-9.6
		c0.7-0.7,0.9-1.8,0.5-2.8c-0.4-0.9-1.3-1.6-2.3-1.6H186l-0.3,0l-14.9,2l-17.8,1L153,45.6l0.1-2.5L153,45.6z"/>
	<path class="st0" d="M153,67.9l0,2.5l80.8,1l-1.3,1.3L212.4,75l-21,1.4h-18.5l-3.3-3.9c-0.5-0.6-1.2-0.9-1.9-0.9h-16.2l0-1.2
		l1.6,0.1l0.1,0L153,67.9l0.1-2.5l-4.3-0.2c-0.7,0-1.4,0.2-1.9,0.7c-0.5,0.5-0.8,1.1-0.8,1.8l0,6.5c0,0.7,0.3,1.3,0.7,1.8
		c0.5,0.5,1.1,0.7,1.8,0.7h17.6l3.3,3.9c0.5,0.6,1.2,0.9,1.9,0.9h19.8l0.2,0l21.2-1.4l0.1,0l21.2-2.4c0.6-0.1,1.1-0.3,1.5-0.7
		l6.1-6.1c0.7-0.7,0.9-1.8,0.6-2.7c-0.4-0.9-1.3-1.6-2.3-1.6l-86.9-1.1L153,67.9l0.1-2.5L153,67.9z"/>
</svg>
