<?xml version="1.0" encoding="utf-8"?>
<!-- Generator: Adobe Illustrator 24.1.1, SVG Export Plug-In . SVG Version: 6.00 Build 0)  -->
<svg version="1.1" id="Layer_1" xmlns="http://www.w3.org/2000/svg" xmlns:xlink="http://www.w3.org/1999/xlink" x="0px" y="0px"
	 viewBox="0 0 1114.5 119.9" style="enable-background:new 0 0 1114.5 119.9;" xml:space="preserve">
<style type="text/css">
	.st0{fill:#FFFFFF;}
</style>
<g>
	<g>
		<path class="st0" d="M102.5,115.6l-0.1-64.3l-29.3,53H62.7L33.5,52.7v62.9H11.8V8.4h19.1L68.2,75L105,8.4h18.9l0.3,107.2H102.5z"
			/>
		<path class="st0" d="M214.9,92.6h-46.3l-8.8,23h-23.6L180.6,8.4h22.8L248,115.6h-24.2L214.9,92.6z M207.6,73.8l-15.8-41l-15.8,41
			H207.6z"/>
		<path class="st0" d="M323.3,115.6l-19.2-29.9h-1.1h-20.1v29.9h-23.1V8.4h43.2c26.6,0,43.3,14.9,43.3,38.9
			c0,16.1-7.5,27.9-20.5,33.8l22.4,34.5H323.3z M301.6,28.6h-18.8V66h18.8c14.1,0,21.2-7,21.2-18.7
			C322.9,35.5,315.7,28.6,301.6,28.6z"/>
		<path class="st0" d="M358,105l7.8-18.7c8.4,6.6,20.9,11.2,32.9,11.2c13.7,0,19.2-4.9,19.2-11.5c0-20.1-58-6.3-58-46.1
			c0-18.2,13.7-33.4,42-33.4c12.5,0,25.4,3.2,34.6,9.5l-7.1,18.8c-9.3-5.7-18.8-8.4-27.6-8.4c-13.7,0-18.9,5.5-18.9,12.3
			c0,19.8,58,6.1,58,45.5c0,17.9-13.8,33.2-42.3,33.2C382.8,117.4,366.9,112.4,358,105z"/>
		<path class="st0" d="M493.6,62c0-32.3,23.1-55.4,54.1-55.4c17.2,0,31.6,6.7,41,19l-14.8,14.7c-6.7-8.3-15.1-12.6-25.1-12.6
			C530.2,27.7,517,41.8,517,62c0,20.2,13.2,34.3,31.9,34.3c10,0,18.4-4.3,25.1-12.7l14.8,14.7c-9.4,12.4-23.8,19.1-41.2,19.1
			C516.7,117.4,493.6,94.3,493.6,62z"/>
		<path class="st0" d="M597.3,62c0-31.9,23.1-55.4,54.5-55.4c31.3,0,54.5,23.4,54.5,55.4c0,32-23.2,55.4-54.5,55.4
			C620.4,117.4,597.3,93.9,597.3,62z M683,62c0-20.4-13.4-34.3-31.2-34.3S620.7,41.6,620.7,62c0,20.4,13.4,34.3,31.2,34.3
			S683,82.4,683,62z"/>
		<path class="st0" d="M811.6,47.3c0,23.9-16.7,38.7-43.3,38.7h-20.1v29.6h-23.1V8.4h43.2C795,8.4,811.6,23.3,811.6,47.3z
			 M788.3,47.3c0-11.8-7.1-18.7-21.2-18.7h-18.8v37.2h18.8C781.2,65.8,788.3,58.9,788.3,47.3z"/>
		<path class="st0" d="M847.4,28.6h-31.9V8.4h86.9v20.2h-31.9v87h-23.1V28.6z"/>
		<path class="st0" d="M993.4,95.7v19.9h-77.2V8.4h75.3v19.9h-52.4v23.3h46.3v19.3h-46.3v24.8H993.4z"/>
		<path class="st0" d="M1076.7,115.6l-19.2-29.9h-1.1h-20.1v29.9h-23.1V8.4h43.2c26.6,0,43.3,14.9,43.3,38.9
			c0,16.1-7.5,27.9-20.5,33.8l22.4,34.5H1076.7z M1055,28.6h-18.8V66h18.8c14.1,0,21.2-7,21.2-18.7
			C1076.3,35.5,1069.1,28.6,1055,28.6z"/>
	</g>
</g>
</svg>
