<?xml version="1.0" encoding="utf-8"?>
<!-- Generator: Adobe Illustrator 24.1.1, SVG Export Plug-In . SVG Version: 6.00 Build 0)  -->
<svg version="1.1" id="Layer_1" xmlns="http://www.w3.org/2000/svg" xmlns:xlink="http://www.w3.org/1999/xlink" x="0px" y="0px"
	 viewBox="0 0 1526.2 119.9" style="enable-background:new 0 0 1526.2 119.9;" xml:space="preserve">
<style type="text/css">
	.st0{fill:#FFFFFF;}
</style>
<g>
	<path class="st0" d="M99.2,117.2l-0.1-67.9l-31,55.9h-11L26.3,50.8v66.4H3.5V4.1h20.1L63,74.4l38.8-70.3h20l0.3,113.1H99.2z"/>
	<path class="st0" d="M217.8,92.9h-48.8l-9.3,24.2h-24.9L181.6,4.1h24l47,113.1h-25.5L217.8,92.9z M210.1,73.1l-16.7-43.3
		l-16.7,43.3H210.1z"/>
	<path class="st0" d="M332.2,117.2l-20.3-31.5h-1.2h-21.2v31.5h-24.3V4.1h45.5c28.1,0,45.7,15.7,45.7,41c0,17-8,29.4-21.6,35.7
		l23.6,36.4H332.2z M309.3,25.4h-19.8v39.4h19.8c14.9,0,22.4-7.4,22.4-19.7C331.7,32.7,324.2,25.4,309.3,25.4z"/>
	<path class="st0" d="M368.8,106l8.3-19.7c8.9,6.9,22.1,11.8,34.7,11.8c14.4,0,20.3-5.2,20.3-12.1c0-21.2-61.2-6.6-61.2-48.6
		c0-19.2,14.4-35.2,44.3-35.2c13.2,0,26.8,3.4,36.5,10L444.3,32c-9.8-6-19.8-8.9-29.2-8.9c-14.4,0-20,5.8-20,12.9
		c0,20.8,61.2,6.5,61.2,48c0,18.9-14.6,35.1-44.6,35.1C395,119.1,378.1,113.8,368.8,106z"/>
	<path class="st0" d="M615,4.1v113.1h-24.3V70.8h-47.8v46.4h-24.3V4.1h24.3v44.6h47.8V4.1H615z"/>
	<path class="st0" d="M722.9,96.2v21h-81.5V4.1h79.5v21h-55.3v24.6h48.8V70h-48.8v26.2H722.9z"/>
	<path class="st0" d="M743.8,4.1h24.3v91.8h52.8v21.3h-77.1V4.1z"/>
	<path class="st0" d="M836.1,4.1h24.3v113.1h-24.3V4.1z"/>
	<path class="st0" d="M880.2,60.6c0-34.1,24.3-58.5,57.1-58.5c18.2,0,33.4,7.1,43.3,20L965,37.7c-7.1-8.7-15.9-13.3-26.5-13.3
		c-19.7,0-33.7,14.9-33.7,36.2c0,21.3,14,36.2,33.7,36.2c10.5,0,19.4-4.5,26.5-13.4l15.6,15.5c-9.9,13.1-25.1,20.2-43.4,20.2
		C904.6,119.1,880.2,94.7,880.2,60.6z"/>
	<path class="st0" d="M989.7,60.6c0-33.6,24.3-58.5,57.6-58.5c33.1,0,57.6,24.7,57.6,58.5s-24.5,58.5-57.6,58.5
		C1014,119.1,989.7,94.2,989.7,60.6z M1080.1,60.6c0-21.5-14.1-36.2-32.9-36.2s-32.9,14.7-32.9,36.2s14.1,36.2,32.9,36.2
		S1080.1,82.1,1080.1,60.6z"/>
	<path class="st0" d="M1215.8,45.1c0,25.2-17.6,40.9-45.7,40.9H1149v31.2h-24.3V4.1h45.5C1198.3,4.1,1215.8,19.7,1215.8,45.1z
		 M1191.2,45.1c0-12.4-7.5-19.7-22.4-19.7H1149v39.3h19.8C1183.7,64.7,1191.2,57.4,1191.2,45.1z"/>
	<path class="st0" d="M1253.6,25.4h-33.7V4.1h91.7v21.3h-33.7v91.8h-24.3V25.4z"/>
	<path class="st0" d="M1407.6,96.2v21h-81.5V4.1h79.5v21h-55.3v24.6h48.8V70h-48.8v26.2H1407.6z"/>
	<path class="st0" d="M1495.5,117.2l-20.3-31.5h-1.2h-21.2v31.5h-24.3V4.1h45.5c28.1,0,45.7,15.7,45.7,41c0,17-8,29.4-21.6,35.7
		l23.6,36.4H1495.5z M1472.7,25.4h-19.8v39.4h19.8c14.9,0,22.4-7.4,22.4-19.7C1495.1,32.7,1487.6,25.4,1472.7,25.4z"/>
</g>
</svg>
