<?xml version="1.0" encoding="utf-8"?>
<!-- Generator: Adobe Illustrator 24.1.1, SVG Export Plug-In . SVG Version: 6.00 Build 0)  -->
<svg version="1.1" id="Layer_1" xmlns="http://www.w3.org/2000/svg" xmlns:xlink="http://www.w3.org/1999/xlink" x="0px" y="0px"
	 viewBox="0 0 60 60" style="enable-background:new 0 0 60 60;" xml:space="preserve">
<style type="text/css">
	.st0{fill:none;stroke:#666666;stroke-linecap:round;stroke-linejoin:round;stroke-miterlimit:10;}
</style>
<g>
	<line class="st0" x1="25.3" y1="30.7" x2="15.1" y2="40.8"/>
	<line class="st0" x1="34.4" y1="32.4" x2="41.9" y2="42.4"/>
	<polyline class="st0" points="22.1,38.5 25.6,34.2 26.1,36.3 33.7,36.3 34.1,33.5 34.5,31.1 42.3,38.7 	"/>
	<polyline class="st0" points="34.6,32.8 34.4,30.5 25.3,30.6 25.6,34.2 	"/>
	<polygon class="st0" points="14.5,40.4 15.5,41.4 14,42.7 13,41.7 	"/>
	<polygon class="st0" points="41.4,42.9 42.4,41.9 43.7,43.4 42.7,44.4 	"/>
	<polygon class="st0" points="21.9,38.2 22.5,38.7 21.7,39.5 21.1,39 	"/>
	<polygon class="st0" points="42,39 42.6,38.4 43.3,39.2 42.8,39.8 	"/>
	<line class="st0" x1="30.1" y1="30.2" x2="30" y2="23"/>
	<path class="st0" d="M21.8,17.8v1.5h7.4v2.8h1.7v-2.8h7.7v-1.5C38.7,17.7,21.8,17.8,21.8,17.8z"/>
	<polygon class="st0" points="29.2,22 25.7,21.9 22.7,21.5 6.9,21.5 8.8,23.3 17.4,23.3 21.6,24.4 25.5,24.4 26.4,23.3 29.7,23.3 
		30,22 	"/>
	<polygon class="st0" points="29.2,26.5 12.1,26.7 13.3,27.9 17.5,28.3 21.6,28.6 25.5,28.6 26.4,27.7 30,27.7 30,26.4 	"/>
	<polygon class="st0" points="30.8,22 34.3,21.9 37.3,21.5 53.1,21.5 51.2,23.3 42.6,23.3 38.3,24.4 34.4,24.4 33.6,23.3 30.3,23.3 
		29.9,22 	"/>
	<polygon class="st0" points="30.8,26.5 47.9,26.7 46.7,27.9 42.5,28.3 38.3,28.6 34.4,28.6 33.6,27.7 29.9,27.7 29.9,26.4 	"/>
</g>
</svg>
