<?xml version="1.0" encoding="utf-8"?>
<!-- Generator: Adobe Illustrator 24.1.1, SVG Export Plug-In . SVG Version: 6.00 Build 0)  -->
<svg version="1.1" id="Layer_1" xmlns="http://www.w3.org/2000/svg" xmlns:xlink="http://www.w3.org/1999/xlink" x="0px" y="0px"
	 viewBox="0 0 60 60" style="enable-background:new 0 0 60 60;" xml:space="preserve">
<style type="text/css">
	.st0{fill:#666666;}
</style>
<g>
	<path class="st0" d="M49.6,29.7c-0.1-0.7-0.4-1.3-1-1.7l-7.4-5.7v-5.7c0-1.4-1.2-2.6-2.6-2.6c-1.4,0-2.6,1.2-2.6,2.6v1.7l-4.9-3.8
		c-0.5-0.3-1-0.5-1.6-0.5c-0.6,0-1.1,0.2-1.6,0.5L10.6,28c-1.1,0.9-1.3,2.5-0.5,3.6c0.5,0.6,1.2,1,2.1,1c0.4,0,0.8-0.1,1.2-0.3v13.5
		c0,1.4,1.2,2.6,2.6,2.6h11.7V36.2h4v12.3h11.5c1.4,0,2.6-1.2,2.6-2.6V32.2c0.4,0.3,0.9,0.4,1.4,0.4c0.8,0,1.6-0.4,2.1-1
		C49.5,31.1,49.7,30.4,49.6,29.7z M47.2,30.2c-0.1,0.1-0.1,0.1-0.2,0.1c0,0-0.1,0-0.1,0l-3.6-2.8v18.5c0,0.1-0.1,0.2-0.2,0.2H34
		l0-12.3h-8.8V46h-9.3c-0.1,0-0.2-0.1-0.2-0.2V27.5l-3.5,2.7c0,0-0.1,0-0.1,0c0,0-0.1,0-0.2-0.1c0-0.1,0-0.1,0-0.1
		c0,0,0-0.1,0.1-0.1l17.4-13.4c0.1-0.1,0.2-0.1,0.2,0l8.7,6.7v-6.6c0-0.1,0.1-0.2,0.2-0.2s0.2,0.1,0.2,0.2v6.9l8.3,6.4
		c0.1,0,0.1,0.1,0.1,0.1C47.2,30,47.2,30.1,47.2,30.2z"/>
</g>
</svg>
