<?xml version="1.0" encoding="utf-8"?>
<!-- Generator: Adobe Illustrator 24.1.1, SVG Export Plug-In . SVG Version: 6.00 Build 0)  -->
<svg version="1.1" id="Layer_1" xmlns="http://www.w3.org/2000/svg" xmlns:xlink="http://www.w3.org/1999/xlink" x="0px" y="0px"
	 viewBox="0 0 100 100" style="enable-background:new 0 0 100 100;" xml:space="preserve">
<style type="text/css">
	.st0{fill:#7D7D7D;}
</style>
<g>
	<path class="st0" d="M49.9,17.6c2.4,0.1,4.6-0.1,6.8,0.4c6.4,1.6,11.4,7,12.3,13.5c0.1,0.7,0.1,1.4,0.1,2.2s-0.3,1.3-1,1.5
		c-0.3,0.1-0.6,0.3-0.8,0.6c-5.3,6.2-10.5,12.5-15.8,18.7c-0.3,0.3-0.4,0.6-0.4,1c0,1.1,0,2.2,0,3.3c0,0.4,0.1,0.7,0.6,0.9
		c0.8,0.3,1.5,0.9,2,1.6c3.5,4.8,7,9.7,10.5,14.6c1.2,1.7,0.5,4.1-1.5,4.9c-2.6,1.1-5.3,1.7-8.2,2.1C49.2,83.5,44,83.1,39,81.4
		c-0.5-0.2-1.1-0.4-1.6-0.6c-2-0.8-2.7-3.1-1.5-4.9c2.6-3.6,5.2-7.2,7.8-10.8c0.9-1.2,1.8-2.5,2.7-3.7c0.5-0.8,1.2-1.3,2.1-1.7
		c0.4-0.2,0.5-0.4,0.5-0.8c0-1.2,0-2.3,0-3.5c0-0.3-0.1-0.6-0.3-0.9C43.3,48.3,38,42.1,32.7,35.8c-0.2-0.2-0.3-0.4-0.6-0.5
		c-0.9-0.3-1.2-1-1.2-1.9c0.1-2.8,0.8-5.4,2.2-7.8c2.5-4.2,6.2-6.8,11.1-7.8C46.1,17.5,48.1,17.7,49.9,17.6z M50.1,32.1
		c2.3,0,4.6,0,6.9,0c0.6,0,0.8-0.2,0.8-0.8c-0.3-3.9-2.1-7-5-9.6C51.9,21,51,20.7,50,20.8c-0.6,0.1-1.2,0-1.7,0.4
		c-3.5,2.5-5.4,5.9-5.8,10.2c-0.1,0.6,0.1,0.8,0.7,0.8C45.5,32.1,47.8,32.1,50.1,32.1z M50.1,35.4c-2.1,0-4.2,0-6.3,0
		c-0.5,0-0.7,0.1-0.4,0.6c2.1,5,4.2,10,6.3,15c0,0.1,0.1,0.3,0.2,0.3c0.2,0,0.2-0.2,0.3-0.3c2.2-5,4.3-10,6.5-14.9
		c0.2-0.5,0-0.7-0.5-0.7C54.2,35.4,52.2,35.4,50.1,35.4z M50,75.6L50,75.6c3,0,6.1,0,9.1,0c0.2,0,0.5,0.1,0.6-0.1
		c0.1-0.2-0.1-0.4-0.2-0.6c-2.8-3.9-5.6-7.8-8.4-11.6c-0.7-0.9-1.6-0.9-2.2,0c-2.8,3.9-5.6,7.7-8.4,11.6c-0.1,0.2-0.4,0.4-0.2,0.6
		c0.1,0.1,0.4,0.1,0.6,0.1C43.9,75.6,47,75.6,50,75.6z M44.6,21.1c-0.2,0-0.3,0-0.4,0c-4.8,0.9-9.3,5.6-9.9,10.4
		c-0.1,0.6,0.2,0.5,0.6,0.5c1.4,0,2.7,0,4.1,0c1.1,0,1.1,0,1.2-1.1c0.2-2.8,1.1-5.3,2.6-7.6C43.3,22.7,43.9,22,44.6,21.1z
		 M55.6,21.1c0.1,0.2,0.1,0.3,0.2,0.3c2.7,2.9,4.1,6.3,4.4,10.2c0,0.5,0.2,0.6,0.6,0.6c1.5,0,3,0,4.4,0c0.5,0,0.6-0.2,0.5-0.7
		c-0.6-3.3-2.3-6-5-8C59.2,22.3,57.6,21.5,55.6,21.1z M35.4,35.4c3.5,4.2,6.8,8.1,10.2,12.1c-0.2-0.9-0.6-1.7-0.9-2.5
		c-1.3-3-2.5-6-3.8-9c-0.1-0.3-0.2-0.6-0.6-0.6C38.8,35.4,37.2,35.4,35.4,35.4z M64.6,35.4c-1.6,0-3,0-4.3,0c-0.5,0-0.8,0.2-1,0.7
		c-1.1,2.6-2.2,5.1-3.3,7.7c-0.5,1.2-1,2.3-1.5,3.5l0.1,0.1C57.9,43.4,61.2,39.5,64.6,35.4z M60.8,78c-7.2,0-14.3,0-21.5,0
		C46.5,80.6,53.6,80.6,60.8,78z"/>
	<path class="st0" d="M50,73.8c-1.3,0-2.5,0-3.7,0c-0.9,0-1.1-0.3-0.8-1.2c0.3-0.8,0.6-1.5,0.9-2.3c0.2-0.5,0.5-0.7,1-0.7
		c1.7,0,3.4,0,5.1,0c0.5,0,0.8,0.2,0.9,0.6c0.3,0.8,0.7,1.6,1,2.5c0.3,0.7,0.1,1.1-0.7,1.1C52.5,73.8,51.3,73.8,50,73.8L50,73.8z"/>
</g>
</svg>
