<?xml version="1.0" encoding="utf-8"?>
<!-- Generator: Adobe Illustrator 24.1.1, SVG Export Plug-In . SVG Version: 6.00 Build 0)  -->
<svg version="1.1" id="Layer_1" xmlns="http://www.w3.org/2000/svg" xmlns:xlink="http://www.w3.org/1999/xlink" x="0px" y="0px"
	 viewBox="0 0 100 100" style="enable-background:new 0 0 100 100;" xml:space="preserve">
<g>
	<path d="M50.1,17.6c2.4,0.1,4.7-0.1,6.9,0.4c6.5,1.6,11.5,7.1,12.4,13.7c0.1,0.7,0.1,1.5,0.1,2.2s-0.3,1.3-1,1.6
		c-0.3,0.1-0.6,0.3-0.8,0.6c-5.3,6.3-10.6,12.6-16,19c-0.3,0.3-0.4,0.6-0.4,1.1c0,1.1,0,2.2,0,3.3c0,0.4,0.1,0.7,0.6,0.9
		c0.8,0.3,1.5,0.9,2,1.6c3.5,4.9,7.1,9.8,10.6,14.7c1.3,1.7,0.5,4.2-1.5,5c-2.7,1.1-5.4,1.8-8.3,2.1C49.3,84.5,44.1,84,39,82.3
		c-0.5-0.2-1.1-0.4-1.6-0.6c-2-0.8-2.7-3.2-1.5-4.9c2.6-3.7,5.2-7.3,7.8-10.9c0.9-1.3,1.8-2.5,2.7-3.8c0.5-0.8,1.2-1.4,2.1-1.7
		c0.4-0.2,0.5-0.4,0.5-0.8c0-1.2,0-2.3,0-3.5c0-0.4-0.1-0.6-0.3-0.9c-5.3-6.3-10.7-12.7-16-19.1c-0.2-0.2-0.3-0.4-0.6-0.5
		c-0.9-0.3-1.2-1-1.2-1.9c0.1-2.8,0.8-5.5,2.2-7.9c2.6-4.3,6.3-6.9,11.2-7.9C46.3,17.5,48.3,17.7,50.1,17.6z M50.3,32.3
		c2.3,0,4.6,0,7,0c0.6,0,0.9-0.2,0.8-0.8c-0.3-3.9-2.1-7.1-5.1-9.7c-0.8-0.7-1.7-1.1-2.8-1c-0.6,0.1-1.2,0-1.7,0.4
		c-3.5,2.6-5.5,6-5.9,10.3c-0.1,0.6,0.1,0.8,0.7,0.8C45.6,32.3,48,32.3,50.3,32.3z M50.4,35.6c-2.1,0-4.2,0-6.3,0
		c-0.5,0-0.7,0.1-0.4,0.6c2.1,5.1,4.3,10.1,6.4,15.2c0.1,0.1,0.1,0.3,0.2,0.3c0.2,0,0.2-0.2,0.3-0.3c2.2-5,4.4-10.1,6.5-15.1
		c0.2-0.6,0.1-0.7-0.5-0.7C54.5,35.6,52.5,35.6,50.4,35.6z M50.3,76.3L50.3,76.3c3.1,0,6.2,0,9.2,0c0.2,0,0.5,0.1,0.6-0.1
		s-0.1-0.4-0.2-0.6c-2.8-3.9-5.6-7.8-8.5-11.8c-0.7-0.9-1.6-0.9-2.3,0c-2.8,3.9-5.7,7.8-8.5,11.8c-0.1,0.2-0.4,0.4-0.2,0.6
		c0.1,0.1,0.4,0.1,0.6,0.1C44.1,76.3,47.2,76.3,50.3,76.3z M44.8,21.2c-0.2,0-0.3,0-0.4,0c-4.9,0.9-9.4,5.7-10,10.6
		c-0.1,0.6,0.2,0.6,0.6,0.6c1.4,0,2.8,0,4.1,0c1.1,0,1.1,0,1.2-1.1c0.2-2.8,1.1-5.3,2.7-7.7C43.5,22.7,44.1,22,44.8,21.2z
		 M55.9,21.1c0.1,0.2,0.1,0.3,0.2,0.3c2.7,2.9,4.2,6.3,4.4,10.3c0,0.5,0.2,0.6,0.6,0.6c1.5,0,3,0,4.5,0c0.5,0,0.6-0.2,0.5-0.7
		c-0.6-3.4-2.3-6.1-5-8.1C59.6,22.3,57.9,21.5,55.9,21.1z M35.5,35.6c3.5,4.2,6.9,8.2,10.3,12.2c-0.2-0.9-0.6-1.7-0.9-2.5
		c-1.3-3-2.6-6.1-3.8-9.2c-0.1-0.3-0.2-0.6-0.6-0.6C38.9,35.6,37.3,35.6,35.5,35.6z M65,35.6c-1.6,0-3,0-4.4,0c-0.5,0-0.8,0.2-1,0.7
		c-1.1,2.6-2.2,5.2-3.4,7.8c-0.5,1.2-1,2.4-1.5,3.6l0.1,0.1C58.2,43.7,61.5,39.8,65,35.6z M61.1,78.8c-7.2,0-14.5,0-21.7,0
		C46.6,81.4,53.9,81.4,61.1,78.8z"/>
	<path d="M50.3,74.6c-1.3,0-2.5,0-3.8,0c-0.9,0-1.1-0.3-0.8-1.2c0.3-0.8,0.6-1.5,0.9-2.3c0.2-0.5,0.5-0.7,1-0.7c1.7,0,3.4,0,5.2,0
		c0.5,0,0.8,0.2,1,0.6c0.3,0.8,0.7,1.7,1,2.5c0.3,0.7,0.1,1.1-0.7,1.1C52.8,74.6,51.5,74.6,50.3,74.6L50.3,74.6z"/>
</g>
</svg>
