<?xml version="1.0" encoding="utf-8"?>
<!-- Generator: Adobe Illustrator 24.1.1, SVG Export Plug-In . SVG Version: 6.00 Build 0)  -->
<svg version="1.1" id="Layer_1" xmlns="http://www.w3.org/2000/svg" xmlns:xlink="http://www.w3.org/1999/xlink" x="0px" y="0px"
	 viewBox="0 0 670 119.87" style="enable-background:new 0 0 670 119.87;" xml:space="preserve">
<path d="M96.45,116.69l-0.15-68.2l-31.11,56.18H54.17L23.21,49.95v66.74H0.26V3.02H20.5l39.57,70.64L99.02,3.02h20.08l0.3,113.67
	C119.4,116.69,96.45,116.69,96.45,116.69z"/>
<path d="M145.98,3.02h24.46v113.67h-24.46L145.98,3.02L145.98,3.02z"/>
<path d="M188.72,105.49l8.31-19.81c8.91,6.98,22.2,11.85,34.88,11.85c14.5,0,20.39-5.2,20.39-12.18c0-21.27-61.46-6.66-61.46-48.88
	c0-19.32,14.5-35.4,44.55-35.4c13.29,0,26.88,3.41,36.7,10.07l-7.55,19.97c-9.82-6.01-19.93-8.93-29.3-8.93
	c-14.5,0-20.08,5.85-20.08,12.99c0,20.95,61.46,6.5,61.46,48.23c0,19-14.65,35.24-44.85,35.24
	C214.99,118.65,198.08,113.29,188.72,105.49z"/>
<path d="M286.57,105.49l8.31-19.81c8.91,6.98,22.2,11.85,34.88,11.85c14.5,0,20.39-5.2,20.39-12.18c0-21.27-61.46-6.66-61.46-48.88
	c0-19.32,14.5-35.4,44.55-35.4c13.29,0,26.88,3.41,36.7,10.07l-7.55,19.97c-9.82-6.01-19.93-8.93-29.3-8.93
	c-14.5,0-20.08,5.85-20.08,12.99c0,20.95,61.46,6.5,61.46,48.23c0,19-14.65,35.24-44.85,35.24
	C312.85,118.65,295.93,113.29,286.57,105.49z"/>
<path d="M392.73,3.02h24.46v113.67h-24.46V3.02z"/>
<path d="M437.13,59.85c0-33.78,24.46-58.78,57.84-58.78c33.22,0,57.84,24.84,57.84,58.78s-24.62,58.78-57.84,58.78
	C461.59,118.64,437.13,93.63,437.13,59.85z M528.04,59.85c0-21.6-14.2-36.37-33.07-36.37S461.9,38.26,461.9,59.85
	s14.2,36.37,33.07,36.37S528.04,81.45,528.04,59.85z"/>
<path d="M669.69,3.02v113.67H649.6l-52.7-69.01v69.01h-24.16V3.02h20.24l52.55,69.01V3.02H669.69z"/>
</svg>
