<?xml version="1.0" encoding="utf-8"?>
<!-- Generator: Adobe Illustrator 24.1.1, SVG Export Plug-In . SVG Version: 6.00 Build 0)  -->
<svg version="1.1" id="Layer_1" xmlns="http://www.w3.org/2000/svg" xmlns:xlink="http://www.w3.org/1999/xlink" x="0px" y="0px"
	 viewBox="0 0 60 60" style="enable-background:new 0 0 60 60;" xml:space="preserve">
<style type="text/css">
	.st0{fill:#F16061;}
</style>
<g>
	<path class="st0" d="M25.61,17.37v-3.19C19.5,15.78,14.68,20.6,13.09,26.7h3.19C17.69,22.28,21.18,18.79,25.61,17.37z"/>
	<path class="st0" d="M43.7,26.7h3.19c-1.59-6.11-6.41-10.93-12.52-12.52v3.19C38.79,18.79,42.28,22.28,43.7,26.7z"/>
	<path class="st0" d="M16.27,35.46h-3.19c1.59,6.11,6.41,10.93,12.52,12.52V44.8C21.18,43.38,17.69,39.89,16.27,35.46z"/>
	<path class="st0" d="M34.37,44.8v3.19c6.11-1.59,10.93-6.41,12.52-12.52H43.7C42.28,39.89,38.79,43.38,34.37,44.8z"/>
	<path class="st0" d="M29.99,20.82c-5.66,0-10.26,4.6-10.26,10.26s4.6,10.26,10.26,10.26s10.26-4.6,10.26-10.26
		S35.65,20.82,29.99,20.82z M29.99,38.25c-3.98,0-7.17-3.23-7.17-7.17c0-3.98,3.23-7.17,7.17-7.17c3.98,0,7.17,3.23,7.17,7.17
		C37.15,35.07,33.97,38.25,29.99,38.25z"/>
	<circle class="st0" cx="29.99" cy="31.08" r="3.45"/>
	<path class="st0" d="M29.99,19.05c0.84,0,1.55-0.66,1.55-1.55v-5.88c0-0.84-0.66-1.55-1.55-1.55s-1.55,0.66-1.55,1.55v5.93
		C28.44,18.34,29.15,19.05,29.99,19.05z"/>
	<path class="st0" d="M17.95,31.08c0-0.84-0.66-1.55-1.55-1.55h-5.88c-0.84,0-1.55,0.66-1.55,1.55s0.66,1.55,1.55,1.55h5.93
		C17.24,32.63,17.95,31.93,17.95,31.08z"/>
	<path class="st0" d="M29.99,43.12c-0.84,0-1.55,0.66-1.55,1.55v5.88c0,0.84,0.66,1.55,1.55,1.55s1.55-0.66,1.55-1.55v-5.88
		C31.53,43.83,30.83,43.12,29.99,43.12z"/>
	<path class="st0" d="M49.45,29.54h-5.88c-0.84,0-1.55,0.66-1.55,1.55s0.66,1.55,1.55,1.55h5.88c0.84,0,1.55-0.66,1.55-1.55
		S50.34,29.54,49.45,29.54z"/>
</g>
</svg>
