<?xml version="1.0" encoding="utf-8"?>
<!-- Generator: Adobe Illustrator 24.1.1, SVG Export Plug-In . SVG Version: 6.00 Build 0)  -->
<svg version="1.1" id="Layer_1" xmlns="http://www.w3.org/2000/svg" xmlns:xlink="http://www.w3.org/1999/xlink" x="0px" y="0px"
	 viewBox="0 0 60 60" style="enable-background:new 0 0 60 60;" xml:space="preserve">
<style type="text/css">
	.st0{fill:#666666;}
</style>
<g>
	<path class="st0" d="M25.6,17.4v-3.2c-6.1,1.6-10.9,6.4-12.5,12.5h3.2C17.7,22.3,21.2,18.8,25.6,17.4z"/>
	<path class="st0" d="M43.7,26.7h3.2c-1.6-6.1-6.4-10.9-12.5-12.5v3.2C38.8,18.8,42.3,22.3,43.7,26.7z"/>
	<path class="st0" d="M16.3,35.5h-3.2c1.6,6.1,6.4,10.9,12.5,12.5v-3.2C21.2,43.4,17.7,39.9,16.3,35.5z"/>
	<path class="st0" d="M34.4,44.8V48c6.1-1.6,10.9-6.4,12.5-12.5h-3.2C42.3,39.9,38.8,43.4,34.4,44.8z"/>
	<path class="st0" d="M30,20.8c-5.7,0-10.3,4.6-10.3,10.3S24.3,41.3,30,41.3s10.3-4.6,10.3-10.3S35.7,20.8,30,20.8z M30,38.3
		c-4,0-7.2-3.2-7.2-7.2c0-4,3.2-7.2,7.2-7.2c4,0,7.2,3.2,7.2,7.2C37.2,35.1,34,38.3,30,38.3z"/>
	<circle class="st0" cx="30" cy="31.1" r="3.4"/>
	<path class="st0" d="M30,19c0.8,0,1.5-0.7,1.5-1.5v-5.9c0-0.8-0.7-1.6-1.5-1.6s-1.5,0.7-1.5,1.6v5.9C28.4,18.3,29.1,19,30,19z"/>
	<path class="st0" d="M18,31.1c0-0.8-0.7-1.5-1.5-1.5h-5.9c-0.8,0-1.6,0.7-1.6,1.5s0.7,1.6,1.6,1.6h5.9C17.2,32.6,18,31.9,18,31.1z"
		/>
	<path class="st0" d="M30,43.1c-0.8,0-1.5,0.7-1.5,1.5v5.9c0,0.8,0.7,1.5,1.5,1.5s1.5-0.7,1.5-1.5v-5.9C31.5,43.8,30.8,43.1,30,43.1
		z"/>
	<path class="st0" d="M49.5,29.5h-5.9c-0.8,0-1.5,0.7-1.5,1.5s0.7,1.5,1.5,1.5h5.9c0.8,0,1.5-0.7,1.5-1.5S50.3,29.5,49.5,29.5z"/>
</g>
</svg>
