<?xml version="1.0" encoding="utf-8"?>
<!-- Generator: Adobe Illustrator 24.1.1, SVG Export Plug-In . SVG Version: 6.00 Build 0)  -->
<svg version="1.1" id="Layer_1" xmlns="http://www.w3.org/2000/svg" xmlns:xlink="http://www.w3.org/1999/xlink" x="0px" y="0px"
	 viewBox="0 0 670 119.9" style="enable-background:new 0 0 670 119.9;" xml:space="preserve">
<style type="text/css">
	.st0{fill:#FFFFFD;}
</style>
<path class="st0" d="M96.4,116.7l-0.2-68.2l-31.1,56.2h-11L23.2,50v66.7H0.3V3h20.2l39.6,70.6L99,3h20.1l0.3,113.7
	C119.4,116.7,96.4,116.7,96.4,116.7z"/>
<path class="st0" d="M146,3h24.5v113.7H146L146,3L146,3z"/>
<path class="st0" d="M188.7,105.5l8.3-19.8c8.9,7,22.2,11.8,34.9,11.8c14.5,0,20.4-5.2,20.4-12.2c0-21.3-61.5-6.7-61.5-48.9
	c0-19.3,14.5-35.4,44.6-35.4c13.3,0,26.9,3.4,36.7,10.1l-7.5,20c-9.8-6-19.9-8.9-29.3-8.9c-14.5,0-20.1,5.9-20.1,13
	c0,21,61.5,6.5,61.5,48.2c0,19-14.6,35.2-44.9,35.2C215,118.7,198.1,113.3,188.7,105.5z"/>
<path class="st0" d="M286.6,105.5l8.3-19.8c8.9,7,22.2,11.8,34.9,11.8c14.5,0,20.4-5.2,20.4-12.2c0-21.3-61.5-6.7-61.5-48.9
	c0-19.3,14.5-35.4,44.5-35.4c13.3,0,26.9,3.4,36.7,10.1l-7.5,20c-9.8-6-19.9-8.9-29.3-8.9c-14.5,0-20.1,5.9-20.1,13
	c0,21,61.5,6.5,61.5,48.2c0,19-14.6,35.2-44.9,35.2C312.9,118.7,295.9,113.3,286.6,105.5z"/>
<path class="st0" d="M392.7,3h24.5v113.7h-24.5V3z"/>
<path class="st0" d="M437.1,59.8c0-33.8,24.5-58.8,57.8-58.8c33.2,0,57.8,24.8,57.8,58.8s-24.6,58.8-57.8,58.8
	C461.6,118.6,437.1,93.6,437.1,59.8z M528,59.8c0-21.6-14.2-36.4-33.1-36.4s-33.1,14.8-33.1,36.4s14.2,36.4,33.1,36.4
	C513.8,96.2,528,81.4,528,59.8z"/>
<path class="st0" d="M669.7,3v113.7h-20.1l-52.7-69v69h-24.2V3H593l52.5,69V3H669.7z"/>
</svg>
