<?xml version="1.0" encoding="utf-8"?>
<!-- Generator: Adobe Illustrator 24.1.1, SVG Export Plug-In . SVG Version: 6.00 Build 0)  -->
<svg version="1.1" id="Layer_1" xmlns="http://www.w3.org/2000/svg" xmlns:xlink="http://www.w3.org/1999/xlink" x="0px" y="0px"
	 viewBox="0 0 119 671" style="enable-background:new 0 0 119 671;" xml:space="preserve">
<path d="M116.81,573.37l-68.2,0.15l56.18,31.11v11.02l-54.72,30.96h66.74v22.96H3.14v-20.24l70.64-39.57L3.14,570.8v-20.08
	l113.67-0.3V573.37z"/>
<path d="M3.14,523.84v-24.46h113.67v24.46H3.14z"/>
<path d="M105.6,481.11l-19.81-8.31c6.98-8.91,11.85-22.2,11.85-34.88c0-14.5-5.2-20.39-12.18-20.39c-21.27,0-6.66,61.46-48.88,61.46
	c-19.32,0-35.4-14.5-35.4-44.55c0-13.29,3.41-26.88,10.07-36.7l19.97,7.55c-6.01,9.82-8.93,19.93-8.93,29.3
	c0,14.5,5.85,20.08,12.99,20.08c20.95,0,6.5-61.46,48.23-61.46c19,0,35.24,14.65,35.24,44.85
	C118.76,454.83,113.4,471.75,105.6,481.11z"/>
<path d="M105.6,383.26l-19.81-8.31c6.98-8.91,11.85-22.2,11.85-34.88c0-14.5-5.2-20.39-12.18-20.39c-21.27,0-6.66,61.46-48.88,61.46
	c-19.32,0-35.4-14.5-35.4-44.55c0-13.29,3.41-26.88,10.07-36.7l19.97,7.55c-6.01,9.82-8.93,19.93-8.93,29.3
	c0,14.5,5.85,20.08,12.99,20.08c20.95,0,6.5-61.46,48.23-61.46c19,0,35.24,14.65,35.24,44.85
	C118.76,356.98,113.4,373.89,105.6,383.26z"/>
<path d="M3.14,277.1v-24.46h113.67v24.46H3.14z"/>
<path d="M59.97,232.7c-33.78,0-58.78-24.46-58.78-57.84c0-33.22,24.84-57.84,58.78-57.84c33.94,0,58.78,24.62,58.78,57.84
	C118.76,208.24,93.75,232.7,59.97,232.7z M59.97,141.79c-21.6,0-36.37,14.2-36.37,33.07s14.78,33.07,36.37,33.07
	s36.37-14.2,36.37-33.07S81.57,141.79,59.97,141.79z"/>
<path d="M3.14,0.14h113.67v20.09l-69.01,52.7h69.01v24.16H3.14V76.86L72.15,24.3H3.14V0.14z"/>
</svg>
