<?xml version="1.0" encoding="utf-8"?>
<!-- Generator: Adobe Illustrator 24.1.1, SVG Export Plug-In . SVG Version: 6.00 Build 0)  -->
<svg version="1.1" id="Layer_1" xmlns="http://www.w3.org/2000/svg" xmlns:xlink="http://www.w3.org/1999/xlink" x="0px" y="0px"
	 viewBox="0 0 100 100" style="enable-background:new 0 0 100 100;" xml:space="preserve">
<style type="text/css">
	.st0{fill:#070707;}
</style>
<g>
	<path class="st0" d="M20.7,62.7h1.5c0-12,0-24,0-36.1h-1.5l1.3,0.5c0.5-1.2,1-2.1,1.5-2.8c0.4-0.5,0.7-0.9,1.1-1.3
		c0.5-0.5,1.3-0.8,2.1-1.1c0.9-0.3,2-0.4,3.5-0.4c0.1,0,0.3,0,0.4,0c7.7,0,15.6,0,23.3,0c5.9,0,11.7,0,17.7-0.1l0,0h0.1
		c2.4,0,4.2,0.9,5.5,2.2c1.3,1.4,2,3.3,2,5.4v0.1c-0.1,4.2-0.1,8.3-0.1,12.5c0,5.5,0,10.9,0,16.5c0,0.6,0,1.3,0,2
		c0,1.4-0.2,2.5-0.5,3.5c-0.5,1.5-1.4,2.5-2.5,3.2c-1.2,0.7-2.7,1.2-4.7,1.2c-3.3,0-6.6,0-9.8,0c-2.8,0-5.6,0-8.4-0.1l0,0
		c-1.1,0-2.1,0.2-3,0.5s-1.8,1-2.5,1.8c-2.8,3-5.8,5.8-8.8,8.7l1,1v-1.5c-0.5,0-1.2,0-1.7,0V80l0.9-1c-0.2-0.2-0.3-0.3-0.3-0.5
		c-0.1-0.2-0.1-0.5-0.1-0.8l0,0l0,0c0-0.5,0-1.2,0-1.7c0-1.1,0-2.2,0-3.3c0-0.5,0-1.1,0-1.6l0,0l0,0c0-0.4,0-0.7-0.2-1.1
		c-0.1-0.3-0.2-0.5-0.4-0.8c-0.3-0.4-0.7-0.7-1.1-0.8c-0.5-0.2-0.8-0.2-1.3-0.2h-0.1l0.1,1.5v-1.5c-0.6,0-1.2,0-1.8,0
		c-1.1,0-2.2,0-3.3,0c-1.2,0-2.2-0.1-3.1-0.4c-1.3-0.4-2.2-0.8-2.9-1.6c-0.8-0.8-1.5-2-2.1-3.7L20.7,62.7h1.5H20.7l-1.4,0.5
		c0.5,1.3,1,2.5,1.6,3.4c0.9,1.5,2.2,2.5,3.7,3.3c1.5,0.7,3.3,0.9,5.4,0.9c1.1,0,2.2,0,3.3,0c0.6,0,1.3,0,1.9,0l0,0v-0.3v0.3l0,0
		v-0.3v0.3l0,0c0.2,0,0.3,0,0.3,0v-0.1v0.2l0,0v-0.1l-0.1,0.1l0.2-0.3l-0.4,0.2l0.2,0.2l0.2-0.3l-0.3,0.2l0,0l0,0l0,0l0,0l0,0
		c0,0,0,0.1,0,0.3l0,0l0,0c0,0.5,0,1.2,0,1.7c0,1.1,0,2.2,0,3.3c0,0.5,0,1.2,0,1.7l0,0v0.1c0,0.5,0.1,1.1,0.3,1.6s0.5,1.2,1.1,1.6
		c0.3,0.3,0.6,0.4,0.9,0.4c0.5,0,1.2,0,1.7,0c0.4,0,0.7-0.2,1-0.4c2.9-2.9,6-5.7,8.9-8.8c0.5-0.5,1.1-0.9,1.6-1.2
		c0.5-0.2,1.2-0.4,1.9-0.4H53c2.8,0.1,5.6,0.1,8.5,0.1c3.3,0,6.6,0,9.8,0c1.6,0,3.1-0.3,4.4-0.7c2-0.7,3.6-2,4.6-3.7
		c1.1-1.7,1.5-3.8,1.6-6.3c0-0.6,0-1.3,0-2c0-5.5,0-10.9,0-16.5c0-4.2,0-8.3,0.1-12.5v-0.1c0-2.7-1-5.4-2.8-7.3s-4.5-3.1-7.6-3.1
		h-0.2l0,0c-5.8,0.1-11.7,0.1-17.6,0.1c-7.7,0-15.6,0-23.3,0c-0.1,0-0.3,0-0.4,0c-1.4,0-2.6,0.1-3.7,0.4c-1.6,0.4-3.1,1.1-4.3,2.3
		c-1.2,1.2-2,2.7-2.8,4.6c-0.1,0.2-0.1,0.4-0.1,0.5c0,12,0,24,0,36.1c0,0.2,0,0.4,0.1,0.5L20.7,62.7z"/>
	<path class="st0" d="M57.5,36.2c3,0,6,0,9,0c1.1,0,2.2-0.2,2.2-1.5c0-1.3-1.2-1.4-2.2-1.4c-4.4,0-8.7,0-13.1,0c-1.7,0-3.5,0-5.3,0
		c-0.9,0-1.5,0.4-1.5,1.4c0,1,0.7,1.4,1.5,1.5c0.4,0,0.8,0,1.2,0C52.1,36.2,54.8,36.2,57.5,36.2z"/>
	<path class="st0" d="M57.6,46.7c2.9,0,5.9,0,8.8,0c1.1,0,2.2-0.2,2.3-1.5c0-1.3-1.1-1.4-2.1-1.4c-5.9,0-11.9,0-17.9,0
		c-1,0-2.1,0-2.1,1.4c0,1.5,1.1,1.5,2.2,1.5C51.7,46.7,54.7,46.7,57.6,46.7z"/>
	<path class="st0" d="M57.5,57.4c3,0,6,0,9,0c1,0,2.1-0.2,2.2-1.5c0.1-1.3-1-1.5-2-1.5c-6,0-12,0-18,0c-1,0-2.1,0.1-2.1,1.5
		c0,1.3,1.1,1.5,2.1,1.5C51.6,57.4,54.6,57.4,57.5,57.4z"/>
	<path class="st0" d="M42.1,32.4c0-0.5-0.3-1-0.7-1.3c-0.6-0.3-1.3-0.3-1.7,0.2c-0.8,0.7-1.6,1.5-2.5,2.4c-0.7,0.8-1.5,1.5-2.5,0.4
		c-0.5-0.5-1.4-0.5-2,0.2c-0.5,0.6-0.5,1.4,0.1,2c0.5,0.5,1,1.1,1.5,1.6c1,1,2,1,2.9,0c1.4-1.4,2.7-2.7,4.1-4.1
		C41.7,33.3,42,32.8,42.1,32.4z"/>
	<path class="st0" d="M35.8,59.7c0.4,0,0.7-0.2,1.1-0.5c1.5-1.5,3.1-3,4.6-4.6c0.6-0.6,0.9-1.4,0.2-2.1c-0.7-0.6-1.5-0.5-2.2,0
		c-0.8,0.7-1.6,1.5-2.4,2.3c-0.8,0.9-1.5,1.5-2.6,0.4c-0.5-0.5-1.1-0.4-1.5,0c-0.5,0.3-0.7,0.7-0.6,1.3
		C32.3,57.4,34.8,59.7,35.8,59.7z"/>
	<path class="st0" d="M42.1,42.7c-0.1-0.4-0.3-0.8-0.7-1c-0.6-0.3-1.3-0.3-1.7,0.2c-0.8,0.7-1.7,1.5-2.5,2.4
		c-0.8,0.9-1.5,1.5-2.6,0.4c-0.5-0.5-1.3-0.4-1.8,0.2c-0.6,0.6-0.5,1.4,0,2c0.5,0.5,1,1.1,1.5,1.6c1,1,1.9,1.1,2.9,0
		c1.4-1.4,2.7-2.7,4.1-4.1C41.6,43.9,42,43.5,42.1,42.7z"/>
</g>
</svg>
