<?xml version="1.0" encoding="utf-8"?>
<!-- Generator: Adobe Illustrator 24.1.1, SVG Export Plug-In . SVG Version: 6.00 Build 0)  -->
<svg version="1.1" id="Layer_1" xmlns="http://www.w3.org/2000/svg" xmlns:xlink="http://www.w3.org/1999/xlink" x="0px" y="0px"
	 viewBox="0 0 100 100" style="enable-background:new 0 0 100 100;" xml:space="preserve">
<style type="text/css">
	.st0{fill:#7D7D7D;}
</style>
<g>
	<path class="st0" d="M22.43,62.11h1.3c0-11.09,0-22.18,0-33.27h-1.3l1.2,0.5c0.46-1.1,0.9-1.96,1.35-2.62
		c0.34-0.5,0.68-0.88,1.04-1.18c0.54-0.45,1.14-0.75,1.96-0.97c0.82-0.21,1.86-0.31,3.18-0.31c0.1,0,0.21,0,0.31,0
		c7.16,0,14.32,0.04,21.49,0.04c5.42,0,10.84-0.02,16.26-0.1l0,0l0.12,0c2.18,0.01,3.87,0.8,5.06,2.05
		c1.19,1.25,1.87,2.98,1.88,4.91l0,0.11c-0.05,3.83-0.06,7.67-0.06,11.5c0,5.05,0.02,10.1,0.02,15.15c0,0.6,0,1.21,0,1.81
		c0,1.23-0.18,2.3-0.5,3.19c-0.48,1.34-1.25,2.29-2.34,2.97c-1.09,0.68-2.55,1.08-4.4,1.08c-3.01,0.01-6.02,0.03-9.02,0.03
		c-2.58,0-5.16-0.01-7.73-0.06l-0.18,0c-0.98,0-1.91,0.14-2.78,0.51c-0.87,0.36-1.65,0.93-2.36,1.67c-2.6,2.74-5.39,5.36-8.14,8.07
		l0.91,0.93v-1.3c-0.53,0-1.07,0-1.6,0v1.3l0.88-0.96c-0.15-0.14-0.21-0.25-0.27-0.42c-0.06-0.17-0.09-0.41-0.09-0.73v-0.04v-0.01
		c0.01-0.54,0.01-1.08,0.01-1.62c0-1.02-0.01-2.04-0.01-3.04c0-0.52,0-1.04,0.01-1.55v0l0-0.04c0-0.33-0.03-0.67-0.14-1
		c-0.08-0.25-0.2-0.51-0.37-0.74c-0.26-0.35-0.64-0.63-1.02-0.77c-0.39-0.15-0.77-0.2-1.16-0.2l-0.1,0l0.05,1.3l-0.02-1.3
		c-0.56,0.01-1.13,0.01-1.7,0.01c-1.01,0-2.03-0.01-3.06-0.01c-1.12,0-2.05-0.1-2.83-0.3c-1.17-0.3-1.99-0.77-2.72-1.54
		c-0.72-0.77-1.35-1.88-1.91-3.46L22.43,62.11h1.3H22.43l-1.23,0.43c0.42,1.19,0.9,2.23,1.5,3.14c0.88,1.35,2.04,2.38,3.47,3.01
		c1.42,0.63,3.05,0.88,4.95,0.88c1.01,0,2.04,0.01,3.06,0.01c0.58,0,1.16,0,1.74-0.01l0.03,0l-0.01-0.29l0,0.29l0.01,0l-0.01-0.29
		l0,0.29l0,0c0.14,0,0.21,0.02,0.22,0.02l0.04-0.11l-0.05,0.1l0.02,0.01l0.04-0.11l-0.05,0.1l0.15-0.28L36,69.44l0.14,0.15
		l0.15-0.28L36,69.44l0,0l0,0h0l0,0l0,0c0.01,0.02,0.02,0.1,0.02,0.25v0.02v0c-0.01,0.53-0.01,1.06-0.01,1.58
		c0,1.02,0.01,2.03,0.01,3.04c0,0.53,0,1.06-0.01,1.59v-0.01l0,0.08c0,0.49,0.05,1.01,0.23,1.55c0.18,0.54,0.5,1.08,0.97,1.51
		c0.24,0.22,0.56,0.34,0.88,0.34c0.53,0,1.07,0,1.6,0c0.34,0,0.67-0.13,0.91-0.37c2.72-2.68,5.53-5.31,8.2-8.13
		c0.51-0.53,0.97-0.85,1.47-1.06c0.5-0.2,1.06-0.31,1.79-0.31l0.13,0c2.6,0.05,5.19,0.06,7.78,0.06c3.01,0,6.02-0.02,9.03-0.03
		c1.48,0,2.84-0.22,4.06-0.65c1.83-0.65,3.32-1.82,4.31-3.42c0.99-1.59,1.46-3.55,1.47-5.77c0-0.61,0-1.21,0-1.82
		c0-5.05-0.02-10.1-0.02-15.15c0-3.82,0.01-7.65,0.06-11.47l0-0.14c0-2.54-0.92-4.94-2.59-6.7c-1.67-1.76-4.1-2.86-6.95-2.86
		l-0.17,0h0c-5.4,0.08-10.81,0.1-16.22,0.1c-7.16,0-14.32-0.04-21.49-0.04c-0.1,0-0.21,0-0.31,0c-1.28,0-2.41,0.08-3.44,0.3
		c-1.54,0.32-2.87,1.01-3.92,2.09c-1.05,1.09-1.83,2.49-2.58,4.29c-0.07,0.16-0.1,0.33-0.1,0.5c0,11.09,0,22.18,0,33.27
		c0,0.14,0.03,0.3,0.07,0.43L22.43,62.11z"/>
	<path class="st0" d="M56.39,37.69c2.77,0,5.55,0,8.32,0c1.02,0,2.04-0.18,2-1.43c-0.03-1.19-1.08-1.23-2-1.23
		c-4.03,0-8.06-0.01-12.09-0.01c-1.62,0-3.24,0-4.87,0.03c-0.82,0.02-1.46,0.37-1.46,1.29c0,0.91,0.64,1.25,1.45,1.32
		c0.36,0.03,0.73,0.02,1.1,0.02C51.36,37.7,53.88,37.69,56.39,37.69z"/>
	<path class="st0" d="M56.49,47.46c2.72,0,5.44,0,8.16,0c1.01,0,2.05-0.14,2.06-1.38c0.02-1.19-1.01-1.28-1.95-1.28
		c-5.49,0-10.99,0-16.48,0c-0.92,0-1.94,0.03-1.97,1.26c-0.03,1.32,1.02,1.39,2.01,1.4C51.05,47.46,53.77,47.46,56.49,47.46z"/>
	<path class="st0" d="M56.42,57.22c2.77,0,5.55,0,8.32,0c0.96,0,1.92-0.18,1.98-1.31c0.06-1.19-0.92-1.35-1.88-1.35
		c-5.55,0-11.09,0-16.64,0c-0.94,0-1.92,0.11-1.89,1.34c0.03,1.2,1,1.31,1.94,1.31C50.97,57.22,53.7,57.22,56.42,57.22z"/>
	<path class="st0" d="M42.14,34.14c-0.01-0.51-0.21-0.93-0.68-1.15c-0.57-0.27-1.15-0.23-1.62,0.2c-0.78,0.7-1.54,1.43-2.26,2.19
		c-0.7,0.74-1.32,1.33-2.33,0.35c-0.54-0.53-1.28-0.47-1.81,0.15c-0.54,0.62-0.4,1.27,0.1,1.85c0.45,0.51,0.95,0.98,1.42,1.47
		c0.92,0.93,1.81,0.89,2.71-0.04c1.24-1.28,2.51-2.53,3.77-3.79C41.78,35.01,42.06,34.63,42.14,34.14z"/>
	<path class="st0" d="M36.4,59.4c0.32,0.03,0.68-0.19,0.99-0.49c1.41-1.4,2.83-2.8,4.22-4.23c0.56-0.58,0.82-1.29,0.14-1.94
		c-0.63-0.6-1.37-0.5-1.99,0.04c-0.75,0.65-1.47,1.35-2.14,2.08c-0.75,0.83-1.44,1.35-2.45,0.32c-0.39-0.4-0.98-0.36-1.46-0.04
		c-0.42,0.28-0.64,0.69-0.6,1.21C33.18,57.24,35.41,59.38,36.4,59.4z"/>
	<path class="st0" d="M42.14,43.75c-0.07-0.36-0.22-0.75-0.63-0.95c-0.56-0.29-1.15-0.25-1.62,0.16c-0.79,0.68-1.56,1.4-2.27,2.17
		c-0.75,0.81-1.42,1.36-2.45,0.33c-0.5-0.49-1.19-0.37-1.69,0.15c-0.58,0.6-0.48,1.25,0.02,1.83c0.44,0.52,0.94,0.98,1.41,1.47
		c0.89,0.92,1.78,0.98,2.71,0.04c1.25-1.27,2.52-2.51,3.78-3.77C41.77,44.79,42.1,44.39,42.14,43.75z"/>
</g>
</svg>
