<?xml version="1.0" encoding="utf-8"?>
<!-- Generator: Adobe Illustrator 24.1.1, SVG Export Plug-In . SVG Version: 6.00 Build 0)  -->
<svg version="1.1" id="Layer_1" xmlns="http://www.w3.org/2000/svg" xmlns:xlink="http://www.w3.org/1999/xlink" x="0px" y="0px"
	 viewBox="0 0 100 100" style="enable-background:new 0 0 100 100;" xml:space="preserve">
<style type="text/css">
	.st0{fill:#7D7D7D;}
</style>
<g>
	<path class="st0" d="M18.3,34.5c0.2-0.5,0.4-1,0.6-1.6c1.3-3.2,4.7-5,7.9-4.3c3.5,0.7,6,3.7,5.7,7.3c-0.1,1.4,0.3,2,1.5,2.6
		c2.1,1.1,4.2,2.4,5.9,3.3c2.9-1.7,5.5-3.2,8.4-4.9c0-2.5,0-5.6,0-8.6c-4.1-2.1-5.8-4.9-5.1-8.4c0.7-3.3,3.6-5.7,7-5.7
		c3.3,0,6.1,2.3,6.9,5.5c0.9,3.5-0.7,6.3-5,8.6c0,3,0,6,0,8.5c2.8,1.6,5.4,3.1,8.5,4.9c2-1.1,4.5-2.5,7-4.1c0.3-0.2,0.4-0.9,0.4-1.4
		c-0.3-4,2.5-7.4,6.2-7.8c4-0.4,7.5,2.4,8,6.3c0.4,3.8-2.3,7.4-6.2,7.8c-1.7,0.1-3.4-0.8-5.1-1.3c-0.5-0.1-1.2-0.4-1.6-0.2
		c-2.4,1.3-4.8,2.7-6.8,3.9c0,3.3,0,6.4,0,9.8c2,1.2,4.3,2.6,6.8,3.8c0.5,0.2,1.4-0.1,1.9-0.4c3.7-2.3,8.3-1,10.2,2.8
		c1.9,3.7,0.1,8.3-3.7,9.8c-3.8,1.6-8.2-0.5-9.4-4.6c-0.1-0.4-0.3-0.9-0.2-1.3c0.6-2.5-0.9-3.5-2.8-4.4c-1.7-0.8-3.2-1.9-4.9-2.8
		c-1.3,1-2.4,2.1-3.7,2.9c-1.3,0.8-2.8,1.2-4.4,1.9c0,2.7,0,5.4,0,8.2c0,0.4,0.4,1,0.8,1.2c3,1.4,4.6,3.7,4.4,7
		c-0.2,3.3-2.1,5.5-5.3,6.5c-0.1,0-0.2,0.2-0.3,0.2c-1,0-2,0-3,0c-0.1-0.1-0.2-0.2-0.3-0.2c-3.2-1-5.1-3.2-5.3-6.5
		c-0.2-3.3,1.5-5.6,4.4-6.9c0.3-0.2,0.8-0.6,0.8-0.9c0.1-2.9,0-5.8,0-8.1c-3-1.8-5.6-3.3-8.5-4.9c-1.7,1-3.8,2.3-5.9,3.4
		c-1.1,0.6-1.5,1.2-1.4,2.5c0.3,3.6-2.3,6.8-5.8,7.4c-3.5,0.6-6.9-1.5-8.1-4.9c-0.2-0.5-0.3-0.9-0.5-1.4c0-0.5,0-1,0-1.5
		c0.1-0.1,0.2-0.2,0.2-0.3c0.7-5,6.9-8,11.4-4.5c0.3,0.3,1.1,0.3,1.5,0.1c2.4-1.3,4.7-2.7,6.9-4c-0.2-1.7-0.6-3.3-0.6-4.8
		c0-1.5,0.4-3,0.6-4.7c-2.2-1.3-4.5-2.7-6.9-3.9c-0.5-0.2-1.4-0.1-1.9,0.2c-3.2,2-7,1.6-9.3-1.2c-0.9-1-1.3-2.4-1.9-3.6
		C18.3,35.9,18.3,35.2,18.3,34.5z M50.1,40.9c-4.9,0-8.9,4.2-8.9,9c0.1,4.9,4.2,9,9.1,8.9c4.8-0.1,8.8-4.2,8.8-8.9
		C59.1,45,54.9,40.9,50.1,40.9z M50.1,24.8c2,0,3.5-1.4,3.5-3.3c0.1-2-1.4-3.6-3.4-3.6c-2,0-3.5,1.4-3.5,3.3
		C46.6,23.2,48.1,24.8,50.1,24.8z M50.1,81.8c2,0,3.4-1.5,3.5-3.4c0-2-1.5-3.6-3.5-3.6c-2,0-3.4,1.5-3.5,3.4
		C46.6,80.3,48.1,81.8,50.1,81.8z M29,35.6c0-2-1.6-3.5-3.6-3.5c-1.9,0.1-3.4,1.5-3.4,3.5c0,2,1.6,3.5,3.6,3.5
		C27.5,39,29,37.5,29,35.6z M29,64c0-2-1.6-3.5-3.7-3.4c-1.9,0.1-3.4,1.6-3.3,3.5c0,2,1.6,3.5,3.6,3.4C27.5,67.5,29,65.9,29,64z
		 M78.3,35.6c0-2-1.4-3.5-3.3-3.5c-2-0.1-3.6,1.4-3.7,3.4c0,2,1.5,3.5,3.5,3.5C76.8,39,78.3,37.6,78.3,35.6z M71.3,64
		c-0.1,1.9,1.4,3.5,3.3,3.6c2,0.1,3.6-1.3,3.7-3.3c0.1-1.9-1.3-3.5-3.3-3.6C73,60.5,71.4,62,71.3,64z"/>
	<path class="st0" d="M48.8,44.2c0.5,3.7-0.5,4.7-4.3,4.3c-0.7,2.6,0.4,5.2,2.7,6.5c2.4,1.4,5.3,1,7.2-1c1.9-1.9,2.3-4.9,0.9-7.2
		C54,44.5,51.4,43.4,48.8,44.2z"/>
	<path class="st0" d="M48.8,44.2c2.6-0.7,5.1,0.3,6.5,2.7c1.4,2.3,1,5.3-0.9,7.2c-1.9,2-4.8,2.4-7.2,1c-2.3-1.3-3.4-3.9-2.7-6.5
		C48.3,48.9,49.4,47.8,48.8,44.2z"/>
</g>
</svg>
