<?xml version="1.0" encoding="utf-8"?>
<!-- Generator: Adobe Illustrator 24.1.1, SVG Export Plug-In . SVG Version: 6.00 Build 0)  -->
<svg version="1.1" id="Layer_1" xmlns="http://www.w3.org/2000/svg" xmlns:xlink="http://www.w3.org/1999/xlink" x="0px" y="0px"
	 viewBox="0 0 100 100" style="enable-background:new 0 0 100 100;" xml:space="preserve">
<style type="text/css">
	.st0{fill:#020202;}
</style>
<g>
	<path class="st0" d="M22,36.3c0.2-0.4,0.4-0.9,0.5-1.4c1.2-2.8,4.2-4.4,7-3.8c3.1,0.6,5.3,3.3,5,6.5c-0.1,1.2,0.3,1.8,1.3,2.3
		c1.9,1,3.7,2.1,5.2,2.9c2.6-1.5,4.9-2.8,7.4-4.3c0-2.2,0-5,0-7.6c-3.6-1.9-5.1-4.3-4.5-7.4c0.6-2.9,3.2-5,6.2-5
		c2.9,0,5.4,2,6.1,4.9c0.8,3.1-0.6,5.6-4.4,7.6c0,2.7,0,5.3,0,7.5c2.5,1.4,4.8,2.7,7.5,4.3c1.8-1,4-2.2,6.2-3.6
		c0.3-0.2,0.4-0.8,0.4-1.2c-0.3-3.5,2.2-6.6,5.5-6.9c3.5-0.4,6.6,2.1,7.1,5.6c0.4,3.4-2,6.6-5.5,6.9c-1.5,0.1-3-0.7-4.5-1.2
		c-0.4-0.1-1.1-0.4-1.4-0.2c-2.1,1.2-4.3,2.4-6,3.5c0,2.9,0,5.7,0,8.7c1.8,1.1,3.8,2.3,6,3.4c0.4,0.2,1.2-0.1,1.7-0.4
		c3.3-2,7.4-0.9,9,2.5c1.7,3.3,0.1,7.4-3.3,8.7c-3.4,1.4-7.3-0.4-8.3-4.1c-0.1-0.4-0.3-0.8-0.2-1.2c0.5-2.2-0.8-3.1-2.5-3.9
		c-1.5-0.7-2.8-1.7-4.3-2.5c-1.2,0.9-2.1,1.9-3.3,2.6c-1.2,0.7-2.5,1.1-3.9,1.7c0,2.4,0,4.8,0,7.3c0,0.4,0.4,0.9,0.7,1.1
		c2.7,1.2,4.1,3.3,3.9,6.2c-0.2,2.9-1.9,4.9-4.7,5.8c-0.1,0-0.2,0.2-0.3,0.2c-0.9,0-1.8,0-2.7,0c-0.1-0.1-0.2-0.2-0.3-0.2
		c-2.8-0.9-4.5-2.8-4.7-5.8c-0.2-2.9,1.3-5,3.9-6.1c0.3-0.2,0.7-0.5,0.7-0.8c0.1-2.6,0-5.1,0-7.2c-2.7-1.6-5-2.9-7.5-4.3
		c-1.5,0.9-3.4,2-5.2,3c-1,0.5-1.3,1.1-1.2,2.2c0.3,3.2-2,6-5.1,6.6c-3.1,0.5-6.1-1.3-7.2-4.3c-0.2-0.4-0.3-0.8-0.4-1.2
		c0-0.4,0-0.9,0-1.3c0.1-0.1,0.2-0.2,0.2-0.3c0.6-4.4,6.1-7.1,10.1-4c0.3,0.3,1,0.3,1.3,0.1c2.1-1.2,4.2-2.4,6.1-3.5
		c-0.2-1.5-0.5-2.9-0.5-4.3s0.4-2.7,0.5-4.2c-1.9-1.2-4-2.4-6.1-3.5c-0.4-0.2-1.2-0.1-1.7,0.2c-2.8,1.8-6.2,1.4-8.2-1.1
		c-0.8-0.9-1.2-2.1-1.7-3.2C22,37.5,22,36.9,22,36.3z M50.1,41.9c-4.3,0-7.9,3.7-7.9,8c0.1,4.3,3.7,8,8.1,7.9
		c4.3-0.1,7.8-3.7,7.8-7.9C58.1,45.6,54.4,41.9,50.1,41.9z M50.1,27.7c1.8,0,3.1-1.2,3.1-2.9c0.1-1.8-1.2-3.2-3-3.2
		s-3.1,1.2-3.1,2.9C47,26.3,48.3,27.7,50.1,27.7z M50.1,78.1c1.8,0,3-1.3,3.1-3c0-1.8-1.3-3.2-3.1-3.2s-3,1.3-3.1,3
		C47,76.8,48.3,78.1,50.1,78.1z M31.4,37.2c0-1.8-1.4-3.1-3.2-3.1c-1.7,0.1-3,1.3-3,3.1s1.4,3.1,3.2,3.1
		C30.1,40.2,31.4,38.9,31.4,37.2z M31.4,62.4c0-1.8-1.4-3.1-3.3-3c-1.7,0.1-3,1.4-2.9,3.1c0,1.8,1.4,3.1,3.2,3
		C30.1,65.5,31.4,64.1,31.4,62.4z M75.1,37.2c0-1.8-1.2-3.1-2.9-3.1c-1.8-0.1-3.2,1.2-3.3,3c0,1.8,1.3,3.1,3.1,3.1
		C73.8,40.2,75.1,39,75.1,37.2z M68.9,62.4c-0.1,1.7,1.2,3.1,2.9,3.2c1.8,0.1,3.2-1.2,3.3-2.9c0.1-1.7-1.2-3.1-2.9-3.2
		C70.4,59.3,69,60.6,68.9,62.4z"/>
	<path class="st0" d="M49,44.8c0.4,3.3-0.4,4.2-3.8,3.8c-0.6,2.3,0.4,4.6,2.4,5.8c2.1,1.2,4.7,0.9,6.4-0.9c1.7-1.7,2-4.3,0.8-6.4
		C53.6,45.1,51.3,44.1,49,44.8z"/>
	<path class="st0" d="M49,44.8c2.3-0.6,4.5,0.3,5.8,2.4c1.2,2,0.9,4.7-0.8,6.4c-1.7,1.8-4.3,2.1-6.4,0.9c-2-1.2-3-3.5-2.4-5.8
		C48.5,49,49.5,48,49,44.8z"/>
</g>
</svg>
