<?xml version="1.0" encoding="utf-8"?>
<!-- Generator: Adobe Illustrator 24.1.1, SVG Export Plug-In . SVG Version: 6.00 Build 0)  -->
<svg version="1.1" id="Layer_1" xmlns="http://www.w3.org/2000/svg" xmlns:xlink="http://www.w3.org/1999/xlink" x="0px" y="0px"
	 viewBox="0 0 60 60" style="enable-background:new 0 0 60 60;" xml:space="preserve">
<style type="text/css">
	.st0{fill:#F16061;stroke:#F16061;stroke-width:1.7817;stroke-miterlimit:10;}
</style>
<path class="st0" d="M37.44,45.37V29.06c0-0.04-0.01-0.09-0.03-0.12l-3.8-3.82c-0.11-0.22-0.33-0.34-0.57-0.34
	c-0.04,0-0.08,0-0.11,0.01v-8c0-1.81-2.2-4.52-2.29-4.63c-0.1-0.12-1.2-0.12-1.3,0c-0.09,0.11-2.29,2.83-2.29,4.63v7.97
	c-0.04-0.01-0.08-0.01-0.12-0.01c-0.24,0-0.45,0.13-0.57,0.34l-3.8,3.82c-0.02,0.04-0.03,0.08-0.03,0.12v16.31
	c0,0.15,0.12,0.27,0.27,0.27h0.74l-0.93,4.12c-0.03,0.08-0.02,0.18,0.03,0.25c0.05,0.07,0.13,0.12,0.22,0.12h4.4
	c0.09,0,0.17-0.04,0.22-0.12c0.05-0.07,0.06-0.17,0.03-0.25l-0.93-4.12h0.74c0.15,0,0.27-0.12,0.27-0.27V40.7h1.34l-0.93,2.34
	c-0.03,0.08-0.02,0.18,0.03,0.25c0.05,0.07,0.13,0.12,0.22,0.12h3.5c0.09,0,0.17-0.04,0.22-0.12c0.05-0.07,0.06-0.17,0.03-0.25
	l-0.93-2.34h1.34v4.67c0,0.15,0.12,0.27,0.27,0.27h0.79l-0.92,4.1c-0.03,0.08-0.02,0.18,0.03,0.25c0.05,0.07,0.13,0.12,0.22,0.12
	h4.4c0.09,0,0.17-0.04,0.22-0.12c0.05-0.07,0.06-0.17,0.03-0.25l-0.92-4.1h0.67C37.32,45.64,37.44,45.52,37.44,45.37z M26.05,45.74
	l0.81,3.82h-3.61l0.81-3.82c0.04-0.1,1.87-0.13,1.89-0.13C25.96,45.61,26.01,45.65,26.05,45.74z M27.04,45.08h-3.98V29.11l3.77-3.76
	c0.01-0.01,0.03-0.06,0.09-0.06c0,0,0.12,0,0.12,0.11v15.03V45.08z M30.54,40.83l0.81,2.04h-2.72l0.81-2.04
	c0.04-0.1,0.59-0.09,1-0.13C30.45,40.7,30.5,40.73,30.54,40.83z M27.57,40.16V25.4v-8.61c0-1.31,2.31-3.31,2.86-4.03
	c0.54,0.71,1.97,2.71,1.97,4.03v8.63v14.74L27.57,40.16L27.57,40.16z M35.97,45.74l0.81,3.82h-3.61l0.81-3.82
	c0.02-0.05,0.04-0.08,0.06-0.1h1.86C35.93,45.66,35.95,45.69,35.97,45.74z M36.91,45.1h-0.88c-0.05-0.02-1.89-0.02-1.94-0.02
	s-0.11,0.01-0.16,0.02h-1v-4.67V25.43c0-0.11,0.11-0.11,0.11-0.11c0.06,0,0.09,0.04,0.09,0.06l3.77,3.76L36.91,45.1L36.91,45.1z"/>
</svg>
