<?xml version="1.0" encoding="utf-8"?>
<!-- Generator: Adobe Illustrator 24.1.1, SVG Export Plug-In . SVG Version: 6.00 Build 0)  -->
<svg version="1.1" id="Layer_1" xmlns="http://www.w3.org/2000/svg" xmlns:xlink="http://www.w3.org/1999/xlink" x="0px" y="0px"
	 viewBox="0 0 60 60" style="enable-background:new 0 0 60 60;" xml:space="preserve">
<style type="text/css">
	.st0{fill:none;stroke:#666666;stroke-width:1.7817;stroke-miterlimit:10;}
</style>
<path class="st0" d="M37.4,45.4V29.1c0,0,0-0.1,0-0.1l-3.8-3.8c-0.1-0.2-0.3-0.3-0.6-0.3c0,0-0.1,0-0.1,0v-8c0-1.8-2.2-4.5-2.3-4.6
	c-0.1-0.1-1.2-0.1-1.3,0C29.3,12.3,27,15,27,16.8v8c0,0-0.1,0-0.1,0c-0.2,0-0.5,0.1-0.6,0.3l-3.8,3.8c0,0,0,0.1,0,0.1v16.3
	c0,0.2,0.1,0.3,0.3,0.3h0.7l-0.9,4.1c0,0.1,0,0.2,0,0.3c0,0.1,0.1,0.1,0.2,0.1h4.4c0.1,0,0.2,0,0.2-0.1c0-0.1,0.1-0.2,0-0.3
	l-0.9-4.1h0.7c0.1,0,0.3-0.1,0.3-0.3v-4.6h1.3L28,43c0,0.1,0,0.2,0,0.3c0,0.1,0.1,0.1,0.2,0.1h3.5c0.1,0,0.2,0,0.2-0.1
	c0-0.1,0.1-0.2,0-0.3l-0.9-2.3h1.3v4.7c0,0.2,0.1,0.3,0.3,0.3h0.8l-0.9,4.1c0,0.1,0,0.2,0,0.3s0.1,0.1,0.2,0.1h4.4
	c0.1,0,0.2,0,0.2-0.1c0-0.1,0.1-0.2,0-0.3l-0.9-4.1h0.7C37.3,45.6,37.4,45.5,37.4,45.4z M26,45.7l0.8,3.8h-3.6l0.8-3.8
	c0-0.1,1.9-0.1,1.9-0.1C26,45.6,26,45.7,26,45.7z M27,45.1h-4v-16l3.8-3.8c0,0,0-0.1,0.1-0.1c0,0,0.1,0,0.1,0.1v15
	C27,40.4,27,45.1,27,45.1z M30.5,40.8l0.8,2h-2.7l0.8-2c0-0.1,0.6-0.1,1-0.1C30.5,40.7,30.5,40.7,30.5,40.8z M27.6,40.2V25.4v-8.6
	c0-1.3,2.3-3.3,2.9-4c0.5,0.7,2,2.7,2,4v8.6v14.7L27.6,40.2L27.6,40.2z M36,45.7l0.8,3.8h-3.6l0.8-3.8c0,0,0-0.1,0.1-0.1L36,45.7
	C35.9,45.7,36,45.7,36,45.7z M36.9,45.1H36c0,0-1.9,0-1.9,0s-0.1,0-0.2,0h-1v-4.7v-15c0-0.1,0.1-0.1,0.1-0.1c0.1,0,0.1,0,0.1,0.1
	l3.8,3.8L36.9,45.1L36.9,45.1z"/>
</svg>
