<?xml version="1.0" encoding="utf-8"?>
<!-- Generator: Adobe Illustrator 24.1.1, SVG Export Plug-In . SVG Version: 6.00 Build 0)  -->
<svg version="1.1" id="Layer_1" xmlns="http://www.w3.org/2000/svg" xmlns:xlink="http://www.w3.org/1999/xlink" x="0px" y="0px"
	 viewBox="0 0 670 123.5" style="enable-background:new 0 0 670 123.5;" xml:space="preserve">
<style type="text/css">
	.st0{fill:#FFFFFF;}
</style>
<path class="st0" d="M70.4,120.2l-21-32.6h-1.2H26.3v32.6H1.2V3.3h47.1c29.1,0,47.2,16.2,47.2,42.4c0,17.5-8.2,30.4-22.4,36.9
	l24.4,37.6C97.5,120.2,70.4,120.2,70.4,120.2z M46.8,25.3H26.3v40.8h20.5c15.4,0,23.1-7.7,23.1-20.4C70,32.8,62.2,25.3,46.8,25.3z"
	/>
<path class="st0" d="M110.1,61.7c0-34.7,25.2-60.5,59.5-60.5c34.2,0,59.5,25.6,59.5,60.5s-25.3,60.5-59.5,60.5
	C135.2,122.2,110.1,96.5,110.1,61.7z M203.6,61.7c0-22.2-14.6-37.4-34-37.4s-34,15.2-34,37.4s14.6,37.4,34,37.4
	C189,99.2,203.6,84,203.6,61.7z"/>
<path class="st0" d="M242.7,61.7c0-35.2,25.2-60.5,59-60.5c18.8,0,34.5,7.4,44.7,20.7l-16.2,16c-7.3-9-16.5-13.7-27.3-13.7
	c-20.4,0-34.8,15.4-34.8,37.4S282.5,99,302.9,99c10.9,0,20-4.7,27.3-13.9l16.2,16c-10.3,13.5-25.9,20.9-44.9,20.9
	C267.9,122.2,242.7,97,242.7,61.7z"/>
<path class="st0" d="M404.6,74.3L390,90.6v29.6h-25V3.3h25v54.6l48.2-54.6h28l-45.1,52.1l47.7,64.8h-29.4L404.6,74.3z"/>
<path class="st0" d="M565.7,98.5v21.7h-84.2V3.3h82.2V25h-57.2v25.4H557v21h-50.5v27.1H565.7z"/>
<path class="st0" d="M609.9,25.3h-34.8v-22h94.8v22.1H635v94.9h-25.2v-95H609.9z"/>
</svg>
