<?xml version="1.0" encoding="utf-8"?>
<!-- Generator: Adobe Illustrator 24.1.1, SVG Export Plug-In . SVG Version: 6.00 Build 0)  -->
<svg version="1.1" id="Layer_1" xmlns="http://www.w3.org/2000/svg" xmlns:xlink="http://www.w3.org/1999/xlink" x="0px" y="0px"
	 viewBox="0 0 670 119.9" style="enable-background:new 0 0 670 119.9;" xml:space="preserve">
<path d="M70.4,119.2l-21-32.6h-1.2H26.3v32.6H1.2V2.3h47.1c29.1,0,47.2,16.2,47.2,42.4c0,17.5-8.2,30.4-22.4,36.9l24.4,37.6H70.4z
	 M46.8,24.3H26.3v40.8h20.5c15.4,0,23.1-7.7,23.1-20.4C70,31.8,62.2,24.3,46.8,24.3z"/>
<path d="M110.1,60.7c0-34.7,25.2-60.5,59.5-60.5c34.2,0,59.5,25.6,59.5,60.5s-25.3,60.5-59.5,60.5
	C135.2,121.2,110.1,95.5,110.1,60.7z M203.6,60.7c0-22.2-14.6-37.4-34-37.4c-19.4,0-34,15.2-34,37.4s14.6,37.4,34,37.4
	C189,98.2,203.6,83,203.6,60.7z"/>
<path d="M242.7,60.7c0-35.2,25.2-60.5,59-60.5c18.8,0,34.5,7.4,44.7,20.7l-16.2,16c-7.3-9-16.5-13.7-27.3-13.7
	c-20.4,0-34.8,15.4-34.8,37.4s14.4,37.4,34.8,37.4c10.9,0,20-4.7,27.3-13.9l16.2,16c-10.3,13.5-25.9,20.9-44.9,20.9
	C267.9,121.2,242.7,96,242.7,60.7z"/>
<path d="M404.6,73.3L390,89.6v29.6h-25V2.3h25v54.6l48.2-54.6h28l-45.1,52.1l47.7,64.8h-29.4L404.6,73.3z"/>
<path d="M565.7,97.5v21.7h-84.2V2.3h82.2V24h-57.2v25.4H557v21h-50.5v27.1H565.7z"/>
<path d="M609.9,24.3h-34.8V2.3h94.8v22.1H635v94.9h-25.2V24.3z"/>
</svg>
