<?xml version="1.0" encoding="utf-8"?>
<!-- Generator: Adobe Illustrator 24.1.1, SVG Export Plug-In . SVG Version: 6.00 Build 0)  -->
<svg version="1.1" id="Layer_1" xmlns="http://www.w3.org/2000/svg" xmlns:xlink="http://www.w3.org/1999/xlink" x="0px" y="0px"
	 viewBox="0 0 560.2 119.9" style="enable-background:new 0 0 560.2 119.9;" xml:space="preserve">
<style type="text/css">
	.st0{fill:#FFFFFF;}
</style>
<path class="st0" d="M70.1,117.1L49.5,85h-1.2H26.7v32.1H1.9V2h46.3c28.6,0,46.5,15.9,46.5,41.8c0,17.3-8.1,29.9-22,36.3l24,37H70.1
	z M46.9,23.7H26.7v40.1h20.2c15.1,0,22.8-7.6,22.8-20.1C69.7,31.1,62,23.7,46.9,23.7z"/>
<path class="st0" d="M109.1,59.5c0-34.2,24.8-59.5,58.6-59.5c33.6,0,58.6,25.2,58.6,59.5c0,34.4-24.9,59.5-58.6,59.5
	C133.9,119,109.1,93.7,109.1,59.5z M201.2,59.5c0-21.9-14.4-36.8-33.5-36.8s-33.5,15-33.5,36.8s14.4,36.8,33.5,36.8
	S201.2,81.4,201.2,59.5z"/>
<path class="st0" d="M345.8,2l-46.3,115.1H275L228.9,2h26.8l32.6,82.2l33-82.2H345.8z"/>
<path class="st0" d="M439.1,95.7v21.4h-82.9V2h80.9v21.4h-56.3v25h49.7v20.7h-49.7v26.6H439.1z"/>
<path class="st0" d="M528.6,117.1L507.9,85h-1.2h-21.6v32.1h-24.8V2h46.3c28.6,0,46.5,15.9,46.5,41.8c0,17.3-8.1,29.9-22,36.3l24,37
	H528.6z M505.3,23.7h-20.2v40.1h20.2c15.1,0,22.8-7.6,22.8-20.1C528.1,31.1,520.5,23.7,505.3,23.7z"/>
</svg>
