<?xml version="1.0" encoding="utf-8"?>
<!-- Generator: Adobe Illustrator 24.1.1, SVG Export Plug-In . SVG Version: 6.00 Build 0)  -->
<svg version="1.1" id="Layer_1" xmlns="http://www.w3.org/2000/svg" xmlns:xlink="http://www.w3.org/1999/xlink" x="0px" y="0px"
	 viewBox="0 0 60 60" style="enable-background:new 0 0 60 60;" xml:space="preserve">
<style type="text/css">
	.st0{fill:#F16061;}
</style>
<path class="st0" d="M51.2,28.56c-0.21-0.21-0.54-0.21-0.74,0l-1.97,1.97l-0.89,0.01l0.01-0.89l1.97-1.97
	c0.21-0.21,0.21-0.54,0-0.74c-0.21-0.21-0.54-0.21-0.74,0l-2.12,2.12c-0.1,0.1-0.15,0.23-0.15,0.37l-0.01,1.4
	c0,0.05,0.01,0.09,0.03,0.13l-3.63,3.23c-0.2-0.11-0.43-0.18-0.67-0.18c-0.42,0-0.79,0.19-1.04,0.49l-5-1.32v-3.07
	c0-0.29-0.24-0.53-0.53-0.53h-3.86c-0.18-1.04-0.98-1.87-2.01-2.08v-6.27h2.37c0.29,0,0.53-0.24,0.53-0.53v-3.9
	c0-0.29-0.24-0.53-0.53-0.53h-5.8c-0.29,0-0.53,0.24-0.53,0.53v3.9c0,0.29,0.24,0.53,0.53,0.53h2.37v6.27
	c-1.03,0.21-1.83,1.04-2.01,2.08h-0.69v-1.24c0-0.29-0.24-0.53-0.53-0.53h-0.49v-2.59c0-0.02-0.01-0.03-0.01-0.05
	c0-0.02,0-0.03,0-0.05c-0.45-2.3-0.78-3.34-1.01-3.84c-0.06-0.18-0.15-0.3-0.23-0.39c-0.03-0.04-0.06-0.06-0.08-0.07l0,0
	c-0.16-0.13-0.37-0.2-0.6-0.2c-0.68,0-1.46,0.6-2.07,1.26l-0.61-0.48c-0.23-0.18-0.56-0.14-0.74,0.09
	c-0.18,0.23-0.14,0.56,0.09,0.74l0.61,0.48c-0.54,0.81-0.83,1.62-0.76,2.18c0.05,0.37,0.22,0.57,0.36,0.68c0,0,0,0,0,0
	c0.03,0.03,0.09,0.07,0.21,0.11c0.07,0.03,0.14,0.05,0.21,0.06c0.28,0.06,0.75,0.11,1.57,0.11c0.51,0,1.17-0.02,1.99-0.07v2.03h-3.8
	c-0.29,0-0.53,0.24-0.53,0.53v1.24h-1.12l-0.7-2.1c-0.01-0.02-0.02-0.04-0.03-0.06c-0.01-0.01-0.01-0.03-0.01-0.04l-0.76-1.31
	c0.49-0.2,0.83-0.68,0.83-1.24v-2.36c0-0.74-0.6-1.35-1.35-1.35h-0.68c-0.74,0-1.35,0.6-1.35,1.35v2.36c0,0.55,0.33,1.03,0.81,1.24
	l-0.63,1.03l-2.25-1.78c-0.44-0.35-1.08-0.27-1.42,0.17l-2.1,2.66c-0.35,0.44-0.27,1.07,0.17,1.42l4.99,3.94
	c0.11,0.09,0.23,0.14,0.36,0.17v0.63l-0.4-0.14c-0.18-0.54-0.69-0.94-1.29-0.94c-0.76,0-1.37,0.61-1.37,1.37
	c0,0.57,0.35,1.06,0.84,1.26v3.84c-0.41,0.08-0.79,0.25-1.12,0.49c-0.12-0.17-0.31-0.29-0.54-0.29c-0.37,0-0.68,0.3-0.68,0.68
	c0,0.26,0.15,0.48,0.37,0.6c-0.1,0.19-0.18,0.38-0.23,0.59c-0.05-0.01-0.09-0.03-0.14-0.03c-0.37,0-0.68,0.3-0.68,0.68
	c0,0.37,0.3,0.68,0.68,0.68c0.04,0,0.07-0.01,0.1-0.02c0.06,0.27,0.17,0.53,0.3,0.77c-0.18,0.12-0.3,0.32-0.3,0.55
	c0,0.37,0.3,0.68,0.68,0.68c0.21,0,0.38-0.1,0.51-0.24c0.23,0.16,0.49,0.27,0.76,0.35c0,0.03-0.01,0.05-0.01,0.07
	c0,0.37,0.3,0.68,0.68,0.68c0.37,0,0.66-0.29,0.67-0.66c0.35-0.06,0.68-0.2,0.98-0.38c0.12,0.11,0.28,0.18,0.45,0.18
	c0.37,0,0.68-0.3,0.68-0.68c0-0.18-0.07-0.35-0.19-0.47c0.15-0.26,0.27-0.53,0.34-0.83c0.01,0,0.02,0,0.02,0
	c0.37,0,0.68-0.3,0.68-0.68c0-0.37-0.3-0.68-0.68-0.68c-0.02,0-0.04,0.01-0.07,0.01c-0.06-0.22-0.14-0.42-0.25-0.61
	c0.18-0.12,0.31-0.32,0.31-0.56c0-0.37-0.3-0.68-0.68-0.68c-0.21,0-0.39,0.1-0.51,0.25c-0.32-0.22-0.68-0.37-1.07-0.44v-3.84
	c0.29-0.12,0.52-0.34,0.67-0.62l0.5,0.17v1.55c0,0.29,0.24,0.53,0.53,0.53h5.64c0.18,0.54,0.69,0.94,1.29,0.94
	c0.24,0,0.46-0.07,0.66-0.18l2.26,1.03v0.41c-0.4,0.08-0.77,0.24-1.09,0.46c-0.12-0.16-0.31-0.27-0.53-0.27
	c-0.37,0-0.68,0.3-0.68,0.68c0,0.25,0.14,0.46,0.34,0.58c-0.1,0.19-0.18,0.39-0.24,0.6c-0.03-0.01-0.07-0.02-0.1-0.02
	c-0.37,0-0.68,0.3-0.68,0.68c0,0.37,0.3,0.68,0.68,0.68c0.02,0,0.04-0.01,0.06-0.01c0.06,0.28,0.17,0.54,0.31,0.78
	c-0.16,0.12-0.27,0.31-0.27,0.53c0,0.37,0.3,0.68,0.68,0.68c0.2,0,0.37-0.09,0.49-0.22c0.23,0.15,0.49,0.26,0.77,0.34
	c0,0.02-0.01,0.04-0.01,0.06c0,0.37,0.3,0.68,0.68,0.68c0.37,0,0.67-0.3,0.67-0.66c0.35-0.07,0.67-0.2,0.96-0.39
	c0.12,0.12,0.29,0.19,0.47,0.19c0.37,0,0.68-0.3,0.68-0.68c0-0.2-0.09-0.37-0.22-0.49c0.15-0.25,0.26-0.52,0.33-0.82
	c0.02,0,0.04,0.01,0.06,0.01c0.37,0,0.68-0.3,0.68-0.68c0-0.37-0.3-0.68-0.68-0.68c-0.04,0-0.07,0.02-0.1,0.02
	c-0.06-0.21-0.14-0.41-0.24-0.6c0.2-0.12,0.34-0.33,0.34-0.58c0-0.37-0.3-0.68-0.68-0.68c-0.22,0-0.4,0.11-0.53,0.27
	c-0.32-0.23-0.69-0.39-1.09-0.46v-0.75c0-0.21-0.12-0.39-0.31-0.48l-2.14-0.97H35.7c0.23,0,0.43-0.15,0.49-0.37l0.47,0.12
	c0.07,0.49,0.38,0.89,0.82,1.08v1.37c-0.41,0.08-0.79,0.25-1.12,0.49c-0.12-0.17-0.31-0.29-0.54-0.29c-0.37,0-0.68,0.3-0.68,0.68
	c0,0.26,0.15,0.48,0.37,0.6c-0.1,0.19-0.18,0.38-0.23,0.59c-0.05-0.01-0.09-0.03-0.14-0.03c-0.37,0-0.68,0.3-0.68,0.68
	c0,0.37,0.3,0.68,0.68,0.68c0.04,0,0.07-0.01,0.1-0.02c0.06,0.27,0.17,0.53,0.3,0.77c-0.18,0.12-0.3,0.32-0.3,0.55
	c0,0.37,0.3,0.68,0.68,0.68c0.21,0,0.38-0.1,0.51-0.24c0.23,0.16,0.49,0.27,0.76,0.35c0,0.02-0.01,0.05-0.01,0.07
	c0,0.37,0.3,0.68,0.68,0.68c0.37,0,0.66-0.29,0.67-0.66c0.36-0.06,0.68-0.2,0.98-0.38c0.12,0.11,0.28,0.18,0.45,0.18
	c0.37,0,0.68-0.3,0.68-0.68c0-0.18-0.07-0.35-0.19-0.47c0.15-0.26,0.27-0.53,0.34-0.83c0.01,0,0.02,0,0.02,0
	c0.37,0,0.68-0.3,0.68-0.68c0-0.37-0.3-0.68-0.68-0.68c-0.02,0-0.04,0.01-0.07,0.01c-0.06-0.22-0.14-0.42-0.25-0.61
	c0.18-0.12,0.31-0.32,0.31-0.56c0-0.37-0.3-0.68-0.68-0.68c-0.21,0-0.39,0.1-0.51,0.25c-0.32-0.22-0.68-0.37-1.07-0.44v-1.37
	c0.49-0.21,0.84-0.7,0.84-1.26c0-0.76-0.62-1.37-1.37-1.37c-0.44,0-0.83,0.21-1.08,0.54l-0.71-0.19v-1.78l4.68,1.24
	c0.07,0.69,0.65,1.24,1.36,1.24c0.76,0,1.37-0.61,1.37-1.37c0-0.12-0.02-0.24-0.05-0.35l3.85-3.43l1.28-0.01
	c0.14,0,0.27-0.06,0.37-0.15l2.12-2.12C51.41,29.1,51.41,28.77,51.2,28.56z M29.3,18.04c0.41,0,0.75,0.34,0.75,0.75
	s-0.34,0.75-0.75,0.75s-0.75-0.34-0.75-0.75C28.55,18.38,28.88,18.04,29.3,18.04z M31.67,20.17h-1.22c0.4-0.33,0.66-0.82,0.66-1.38
	c0-0.61-0.3-1.14-0.76-1.47h1.33V20.17z M26.92,17.33h1.33c-0.46,0.33-0.76,0.86-0.76,1.47c0,0.56,0.26,1.05,0.66,1.38h-1.22V17.33z
	 M21.29,23.42c0.1,0.08,0.21,0.11,0.33,0.11c0.16,0,0.31-0.07,0.41-0.2c0.18-0.23,0.14-0.56-0.09-0.74l-0.07-0.05
	c0.48-0.52,0.93-0.8,1.16-0.85c0,0.26-0.2,0.94-0.85,1.77c-0.61,0.78-1.22,1.19-1.51,1.25c0-0.21,0.14-0.71,0.55-1.34L21.29,23.42z
	 M22.4,24.79c0.23-0.22,0.44-0.46,0.62-0.69c0.21-0.27,0.38-0.54,0.54-0.8c0.11,0.45,0.22,0.94,0.33,1.43
	C23.38,24.76,22.87,24.78,22.4,24.79z M12.74,34.28c0.17,0,0.32,0.14,0.32,0.32c0,0.17-0.14,0.32-0.32,0.32
	c-0.17,0-0.32-0.14-0.32-0.32C12.42,34.42,12.56,34.28,12.74,34.28z M14.51,42.47c0,0.98-0.79,1.77-1.77,1.77
	c-0.98,0-1.77-0.79-1.77-1.77c0-0.79,0.53-1.46,1.24-1.68v1.68c0,0.29,0.24,0.53,0.53,0.53c0.29,0,0.53-0.24,0.53-0.53v-1.68
	C13.98,41.01,14.51,41.67,14.51,42.47z M27.1,42.47c0,0.98-0.79,1.77-1.77,1.77c-0.98,0-1.77-0.79-1.77-1.77
	c0-0.79,0.53-1.46,1.24-1.68v1.68c0,0.29,0.24,0.53,0.53,0.53s0.53-0.24,0.53-0.53v-1.68C26.58,41.01,27.1,41.67,27.1,42.47z
	 M29.3,28.49c0.69,0,1.26,0.46,1.46,1.09h-2.91C28.03,28.95,28.61,28.49,29.3,28.49z M20.72,28.86h4.29v0.71h-4.29V28.86z
	 M16.44,27.12H15.9l0.27-0.45L16.44,27.12z M15.56,22.46c0-0.16,0.13-0.29,0.29-0.29h0.68c0.16,0,0.29,0.13,0.29,0.29v2.36
	c0,0.16-0.13,0.29-0.29,0.29h-0.68c-0.16,0-0.29-0.13-0.29-0.29V22.46z M9.76,28.76l2.05-2.6l2.58,2.03
	c0.01,0.01,0.03,0.01,0.05,0.02v0.49l-2.08-1.64c-0.23-0.18-0.56-0.14-0.74,0.09c-0.18,0.23-0.14,0.56,0.09,0.74l2.73,2.15v0.57
	l-3.09-2.44c-0.23-0.18-0.56-0.14-0.74,0.09c-0.18,0.23-0.14,0.56,0.09,0.74l3.69,2.91c0.01,0.01,0.03,0.02,0.05,0.03v0.49
	L9.76,28.76z M15.49,35.76l2.03,0.68h-2.03V35.76z M21.89,37.38c-0.17,0-0.32-0.14-0.32-0.32s0.14-0.32,0.32-0.32
	c0.17,0,0.32,0.14,0.32,0.32S22.07,37.38,21.89,37.38z M24.8,36.44l2.97-0.93C28.03,35.8,28.4,36,28.82,36
	c0.44,0,0.83-0.21,1.08-0.54l3.7,0.98H24.8z M28.5,34.63c0-0.17,0.14-0.32,0.32-0.32c0.17,0,0.32,0.14,0.32,0.32
	c0,0.17-0.14,0.32-0.32,0.32C28.65,34.94,28.5,34.8,28.5,34.63z M39.78,42.47c0,0.98-0.79,1.77-1.77,1.77
	c-0.98,0-1.77-0.79-1.77-1.77c0-0.79,0.53-1.46,1.24-1.68v1.68c0,0.29,0.24,0.53,0.53,0.53s0.53-0.24,0.53-0.53v-1.68
	C39.26,41.01,39.78,41.67,39.78,42.47z M38.01,36.74c0.17,0,0.32,0.14,0.32,0.32c0,0.17-0.14,0.32-0.32,0.32
	c-0.17,0-0.32-0.14-0.32-0.32C37.69,36.89,37.84,36.74,38.01,36.74z M35.17,35.76l-5-1.32c-0.09-0.67-0.66-1.18-1.35-1.18
	c-0.71,0-1.29,0.55-1.36,1.24l-4.74,1.48c-0.23-0.18-0.52-0.29-0.84-0.29c-0.51,0-0.95,0.28-1.19,0.7l-5.22-1.74v-6.48h1.49l0.7,2.1
	c0.07,0.21,0.27,0.36,0.5,0.36h2.02h3.79v1.22c0,0.65-0.67,0.71-0.87,0.72h-0.7v-0.24c0-0.74-0.6-1.35-1.35-1.35H19.2
	c-0.74,0-1.35,0.6-1.35,1.35v1.44c0,0.74,0.6,1.35,1.35,1.35h1.87c0.74,0,1.35-0.6,1.35-1.35v-0.15h0.7c0.77,0,1.92-0.48,1.92-1.77
	v-1.22h0.5h9.63v2.26l-0.76-0.2c0-0.75-0.62-1.36-1.37-1.36c-0.76,0-1.37,0.62-1.37,1.37c0,0.76,0.61,1.37,1.37,1.37
	c0.37,0,0.71-0.15,0.96-0.39l1.17,0.31L35.17,35.76L35.17,35.76z M21.36,32.91c-0.02,0.06-0.04,0.12-0.04,0.19
	c0,0.07,0.02,0.13,0.04,0.19v0.49c0,0.16-0.13,0.29-0.29,0.29H19.2c-0.16,0-0.29-0.13-0.29-0.29v-1.44c0-0.16,0.13-0.29,0.29-0.29
	h1.87c0.16,0,0.29,0.13,0.29,0.29V32.91z M33.36,32.7c0,0.17-0.14,0.32-0.32,0.32c-0.17,0-0.32-0.14-0.32-0.32
	c0-0.17,0.14-0.32,0.32-0.32C33.21,32.38,33.36,32.53,33.36,32.7z M42.26,35.69c-0.17,0-0.32-0.14-0.32-0.32
	c0-0.17,0.14-0.32,0.32-0.32s0.32,0.14,0.32,0.32C42.58,35.55,42.44,35.69,42.26,35.69z"/>
</svg>
