<?xml version="1.0" encoding="utf-8"?>
<!-- Generator: Adobe Illustrator 24.1.1, SVG Export Plug-In . SVG Version: 6.00 Build 0)  -->
<svg version="1.1" id="Layer_1" xmlns="http://www.w3.org/2000/svg" xmlns:xlink="http://www.w3.org/1999/xlink" x="0px" y="0px"
	 viewBox="0 0 60 60" style="enable-background:new 0 0 60 60;" xml:space="preserve">
<style type="text/css">
	.st0{fill:#666666;}
</style>
<path class="st0" d="M51.2,28.6c-0.2-0.2-0.5-0.2-0.7,0l-2,2l-0.9,0l0-0.9l2-2c0.2-0.2,0.2-0.5,0-0.7c-0.2-0.2-0.5-0.2-0.7,0
	l-2.1,2.1c-0.1,0.1-0.2,0.2-0.2,0.4l0,1.4c0,0,0,0.1,0,0.1L43,34.2c-0.2-0.1-0.4-0.2-0.7-0.2c-0.4,0-0.8,0.2-1,0.5l-5-1.3v-3.1
	c0-0.3-0.2-0.5-0.5-0.5h-3.9c-0.2-1-1-1.9-2-2.1v-6.3h2.4c0.3,0,0.5-0.2,0.5-0.5v-3.9c0-0.3-0.2-0.5-0.5-0.5h-5.8
	c-0.3,0-0.5,0.2-0.5,0.5v3.9c0,0.3,0.2,0.5,0.5,0.5h2.4v6.3c-1,0.2-1.8,1-2,2.1h-0.7v-1.2c0-0.3-0.2-0.5-0.5-0.5h-0.5v-2.6
	c0,0,0,0,0,0c0,0,0,0,0,0c-0.5-2.3-0.8-3.3-1-3.8c-0.1-0.2-0.1-0.3-0.2-0.4c0,0-0.1-0.1-0.1-0.1l0,0c-0.2-0.1-0.4-0.2-0.6-0.2
	c-0.7,0-1.5,0.6-2.1,1.3l-0.6-0.5c-0.2-0.2-0.6-0.1-0.7,0.1s-0.1,0.6,0.1,0.7l0.6,0.5c-0.5,0.8-0.8,1.6-0.8,2.2
	c0,0.4,0.2,0.6,0.4,0.7l0,0c0,0,0.1,0.1,0.2,0.1c0.1,0,0.1,0,0.2,0.1c0.3,0.1,0.8,0.1,1.6,0.1c0.5,0,1.2,0,2-0.1v2h-3.8
	c-0.3,0-0.5,0.2-0.5,0.5v1.2h-1.1l-0.7-2.1c0,0,0,0,0-0.1c0,0,0,0,0,0L17,26.1c0.5-0.2,0.8-0.7,0.8-1.2v-2.4c0-0.7-0.6-1.4-1.4-1.4
	h-0.7c-0.7,0-1.4,0.6-1.4,1.4v2.4c0,0.5,0.3,1,0.8,1.2l-0.6,1l-2.3-1.8C12,25,11.3,25.1,11,25.5l-2.1,2.7c-0.4,0.4-0.3,1.1,0.2,1.4
	l5,3.9c0.1,0.1,0.2,0.1,0.4,0.2v0.6L14,34.2c-0.2-0.5-0.7-0.9-1.3-0.9c-0.8,0-1.4,0.6-1.4,1.4c0,0.6,0.4,1.1,0.8,1.3v3.8
	c-0.4,0.1-0.8,0.3-1.1,0.5c-0.1-0.2-0.3-0.3-0.5-0.3c-0.4,0-0.7,0.3-0.7,0.7c0,0.3,0.1,0.5,0.4,0.6c-0.1,0.2-0.2,0.4-0.2,0.6
	c-0.1,0-0.1,0-0.1,0c-0.4,0-0.7,0.3-0.7,0.7c0,0.4,0.3,0.7,0.7,0.7c0,0,0.1,0,0.1,0c0.1,0.3,0.2,0.5,0.3,0.8
	C10.1,44,10,44.2,10,44.4c0,0.4,0.3,0.7,0.7,0.7c0.2,0,0.4-0.1,0.5-0.2c0.2,0.2,0.5,0.3,0.8,0.3c0,0,0,0,0,0.1
	c0,0.4,0.3,0.7,0.7,0.7c0.4,0,0.7-0.3,0.7-0.7c0.4-0.1,0.7-0.2,1-0.4c0.1,0.1,0.3,0.2,0.4,0.2c0.4,0,0.7-0.3,0.7-0.7
	c0-0.2-0.1-0.3-0.2-0.5c0.1-0.3,0.3-0.5,0.3-0.8c0,0,0,0,0,0c0.4,0,0.7-0.3,0.7-0.7c0-0.4-0.3-0.7-0.7-0.7c0,0,0,0-0.1,0
	c-0.1-0.2-0.1-0.4-0.3-0.6c0.2-0.1,0.3-0.3,0.3-0.6c0-0.4-0.3-0.7-0.7-0.7c-0.2,0-0.4,0.1-0.5,0.3c-0.3-0.2-0.7-0.4-1.1-0.4v-3.8
	c0.3-0.1,0.5-0.3,0.7-0.6l0.5,0.2V37c0,0.3,0.2,0.5,0.5,0.5h5.6c0.2,0.5,0.7,0.9,1.3,0.9c0.2,0,0.5-0.1,0.7-0.2l2.3,1v0.4
	c-0.4,0.1-0.8,0.2-1.1,0.5c-0.1-0.2-0.3-0.3-0.5-0.3c-0.4,0-0.7,0.3-0.7,0.7c0,0.3,0.1,0.5,0.3,0.6c-0.1,0.2-0.2,0.4-0.2,0.6
	c0,0-0.1,0-0.1,0c-0.4,0-0.7,0.3-0.7,0.7c0,0.4,0.3,0.7,0.7,0.7c0,0,0,0,0.1,0c0.1,0.3,0.2,0.5,0.3,0.8c-0.2,0.1-0.3,0.3-0.3,0.5
	c0,0.4,0.3,0.7,0.7,0.7c0.2,0,0.4-0.1,0.5-0.2c0.2,0.2,0.5,0.3,0.8,0.3c0,0,0,0,0,0.1c0,0.4,0.3,0.7,0.7,0.7c0.4,0,0.7-0.3,0.7-0.7
	c0.4-0.1,0.7-0.2,1-0.4c0.1,0.1,0.3,0.2,0.5,0.2c0.4,0,0.7-0.3,0.7-0.7c0-0.2-0.1-0.4-0.2-0.5c0.1-0.3,0.3-0.5,0.3-0.8
	c0,0,0,0,0.1,0c0.4,0,0.7-0.3,0.7-0.7c0-0.4-0.3-0.7-0.7-0.7c0,0-0.1,0-0.1,0c-0.1-0.2-0.1-0.4-0.2-0.6c0.2-0.1,0.3-0.3,0.3-0.6
	c0-0.4-0.3-0.7-0.7-0.7c-0.2,0-0.4,0.1-0.5,0.3c-0.3-0.2-0.7-0.4-1.1-0.5v-0.8c0-0.2-0.1-0.4-0.3-0.5l-2.1-1h12.3
	c0.2,0,0.4-0.2,0.5-0.4l0.5,0.1c0.1,0.5,0.4,0.9,0.8,1.1v1.4c-0.4,0.1-0.8,0.3-1.1,0.5c-0.1-0.2-0.3-0.3-0.5-0.3
	c-0.4,0-0.7,0.3-0.7,0.7c0,0.3,0.2,0.5,0.4,0.6c-0.1,0.2-0.2,0.4-0.2,0.6c0,0-0.1,0-0.1,0c-0.4,0-0.7,0.3-0.7,0.7
	c0,0.4,0.3,0.7,0.7,0.7c0,0,0.1,0,0.1,0c0.1,0.3,0.2,0.5,0.3,0.8c-0.2,0.1-0.3,0.3-0.3,0.5c0,0.4,0.3,0.7,0.7,0.7
	c0.2,0,0.4-0.1,0.5-0.2c0.2,0.2,0.5,0.3,0.8,0.3c0,0,0,0,0,0.1c0,0.4,0.3,0.7,0.7,0.7c0.4,0,0.7-0.3,0.7-0.7c0.4-0.1,0.7-0.2,1-0.4
	c0.1,0.1,0.3,0.2,0.5,0.2c0.4,0,0.7-0.3,0.7-0.7c0-0.2-0.1-0.3-0.2-0.5c0.2-0.3,0.3-0.5,0.3-0.8c0,0,0,0,0,0c0.4,0,0.7-0.3,0.7-0.7
	c0-0.4-0.3-0.7-0.7-0.7c0,0,0,0-0.1,0c-0.1-0.2-0.1-0.4-0.3-0.6c0.2-0.1,0.3-0.3,0.3-0.6c0-0.4-0.3-0.7-0.7-0.7
	c-0.2,0-0.4,0.1-0.5,0.3c-0.3-0.2-0.7-0.4-1.1-0.4v-1.4c0.5-0.2,0.8-0.7,0.8-1.3c0-0.8-0.6-1.4-1.4-1.4c-0.4,0-0.8,0.2-1.1,0.5
	l-0.7-0.2v-1.8l4.7,1.2c0.1,0.7,0.7,1.2,1.4,1.2c0.8,0,1.4-0.6,1.4-1.4c0-0.1,0-0.2,0-0.3l3.8-3.4l1.3,0c0.1,0,0.3-0.1,0.4-0.1
	l2.1-2.1C51.4,29.1,51.4,28.8,51.2,28.6z M29.3,18c0.4,0,0.8,0.3,0.8,0.8s-0.3,0.8-0.8,0.8s-0.8-0.3-0.8-0.8
	C28.5,18.4,28.9,18,29.3,18z M31.7,20.2h-1.2c0.4-0.3,0.7-0.8,0.7-1.4c0-0.6-0.3-1.1-0.8-1.5h1.3L31.7,20.2L31.7,20.2z M26.9,17.3
	h1.3c-0.5,0.3-0.8,0.9-0.8,1.5c0,0.6,0.3,1,0.7,1.4h-1.2L26.9,17.3L26.9,17.3z M21.3,23.4c0.1,0.1,0.2,0.1,0.3,0.1
	c0.2,0,0.3-0.1,0.4-0.2c0.2-0.2,0.1-0.6-0.1-0.7l-0.1,0c0.5-0.5,0.9-0.8,1.2-0.9c0,0.3-0.2,0.9-0.9,1.8c-0.6,0.8-1.2,1.2-1.5,1.3
	C20.7,24.5,20.8,24,21.3,23.4L21.3,23.4z M22.4,24.8c0.2-0.2,0.4-0.5,0.6-0.7c0.2-0.3,0.4-0.5,0.5-0.8c0.1,0.5,0.2,0.9,0.3,1.4
	C23.4,24.8,22.9,24.8,22.4,24.8z M12.7,34.3c0.2,0,0.3,0.1,0.3,0.3c0,0.2-0.1,0.3-0.3,0.3c-0.2,0-0.3-0.1-0.3-0.3
	S12.6,34.3,12.7,34.3z M14.5,42.5c0,1-0.8,1.8-1.8,1.8S11,43.5,11,42.5c0-0.8,0.5-1.5,1.2-1.7v1.7c0,0.3,0.2,0.5,0.5,0.5
	s0.5-0.2,0.5-0.5v-1.7C14,41,14.5,41.7,14.5,42.5z M27.1,42.5c0,1-0.8,1.8-1.8,1.8s-1.8-0.8-1.8-1.8c0-0.8,0.5-1.5,1.2-1.7v1.7
	c0,0.3,0.2,0.5,0.5,0.5s0.5-0.2,0.5-0.5v-1.7C26.6,41,27.1,41.7,27.1,42.5z M29.3,28.5c0.7,0,1.3,0.5,1.5,1.1h-2.9
	C28,29,28.6,28.5,29.3,28.5z M20.7,28.9H25v0.7h-4.3C20.7,29.6,20.7,28.9,20.7,28.9z M16.4,27.1h-0.5l0.3-0.5L16.4,27.1z M15.6,22.5
	c0-0.2,0.1-0.3,0.3-0.3h0.7c0.2,0,0.3,0.1,0.3,0.3v2.4c0,0.2-0.1,0.3-0.3,0.3h-0.7c-0.2,0-0.3-0.1-0.3-0.3V22.5z M9.8,28.8l2.1-2.6
	l2.6,2c0,0,0,0,0.1,0v0.5l-2.1-1.6c-0.2-0.2-0.6-0.1-0.7,0.1c-0.2,0.2-0.1,0.6,0.1,0.7l2.7,2.1v0.6l-3.1-2.4
	c-0.2-0.2-0.6-0.1-0.7,0.1c-0.2,0.2-0.1,0.6,0.1,0.7l3.7,2.9c0,0,0,0,0.1,0v0.5L9.8,28.8z M15.5,35.8l2,0.7h-2
	C15.5,36.4,15.5,35.8,15.5,35.8z M21.9,37.4c-0.2,0-0.3-0.1-0.3-0.3s0.1-0.3,0.3-0.3c0.2,0,0.3,0.1,0.3,0.3S22.1,37.4,21.9,37.4z
	 M24.8,36.4l3-0.9c0.3,0.3,0.6,0.5,1.1,0.5c0.4,0,0.8-0.2,1.1-0.5l3.7,1H24.8z M28.5,34.6c0-0.2,0.1-0.3,0.3-0.3
	c0.2,0,0.3,0.1,0.3,0.3c0,0.2-0.1,0.3-0.3,0.3C28.6,34.9,28.5,34.8,28.5,34.6z M39.8,42.5c0,1-0.8,1.8-1.8,1.8s-1.8-0.8-1.8-1.8
	c0-0.8,0.5-1.5,1.2-1.7v1.7c0,0.3,0.2,0.5,0.5,0.5s0.5-0.2,0.5-0.5v-1.7C39.3,41,39.8,41.7,39.8,42.5z M38,36.7
	c0.2,0,0.3,0.1,0.3,0.3c0,0.2-0.1,0.3-0.3,0.3c-0.2,0-0.3-0.1-0.3-0.3C37.7,36.9,37.8,36.7,38,36.7z M35.2,35.8l-5-1.3
	c-0.1-0.7-0.7-1.2-1.4-1.2c-0.7,0-1.3,0.5-1.4,1.2L22.7,36c-0.2-0.2-0.5-0.3-0.8-0.3c-0.5,0-1,0.3-1.2,0.7l-5.2-1.7v-6.5H17l0.7,2.1
	c0.1,0.2,0.3,0.4,0.5,0.4h2H24v1.2c0,0.7-0.7,0.7-0.9,0.7h-0.7v-0.2c0-0.7-0.6-1.4-1.4-1.4h-1.8c-0.7,0-1.4,0.6-1.4,1.4v1.4
	c0,0.7,0.6,1.3,1.4,1.3h1.9c0.7,0,1.4-0.6,1.4-1.3v-0.2h0.7c0.8,0,1.9-0.5,1.9-1.8v-1.2h0.5h9.6v2.3l-0.8-0.2c0-0.8-0.6-1.4-1.4-1.4
	c-0.8,0-1.4,0.6-1.4,1.4c0,0.8,0.6,1.4,1.4,1.4c0.4,0,0.7-0.2,1-0.4l1.2,0.3L35.2,35.8L35.2,35.8z M21.4,32.9c0,0.1,0,0.1,0,0.2
	s0,0.1,0,0.2v0.5c0,0.2-0.1,0.3-0.3,0.3h-1.9c-0.2,0-0.3-0.1-0.3-0.3v-1.4c0-0.2,0.1-0.3,0.3-0.3h1.9c0.2,0,0.3,0.1,0.3,0.3
	C21.4,32.3,21.4,32.9,21.4,32.9z M33.4,32.7c0,0.2-0.1,0.3-0.3,0.3c-0.2,0-0.3-0.1-0.3-0.3c0-0.2,0.1-0.3,0.3-0.3
	C33.2,32.4,33.4,32.5,33.4,32.7z M42.3,35.7c-0.2,0-0.3-0.1-0.3-0.3c0-0.2,0.1-0.3,0.3-0.3s0.3,0.1,0.3,0.3
	C42.6,35.5,42.4,35.7,42.3,35.7z"/>
</svg>
